#N canvas 101 23 1179 751 12;
#X obj 33 636 osc~;
#X obj 57 201 mtof;
#X floatatom 57 171 5 0 0 0 - - -;
#X obj 146 86 bng 15 250 50 0 empty empty empty 17 7 0 10 -262144 -1
-1;
#X obj 209 270 random 100;
#X obj 230 476 osc~;
#X obj 230 446 *;
#X obj 230 505 *~;
#X obj 253 242 random 5;
#X obj 358 270 random 100;
#X obj 124 427 random 360;
#X obj 260 445 random 360;
#X obj 374 473 osc~;
#X obj 374 443 *;
#X obj 374 502 *~;
#X obj 511 269 random 100;
#X obj 406 444 random 360;
#X obj 530 475 osc~;
#X obj 530 445 *;
#X obj 530 504 *~;
#X obj 671 268 random 100;
#X obj 564 447 random 360;
#X obj 700 473 osc~;
#X obj 700 443 *;
#X obj 700 502 *~;
#X obj 841 266 random 100;
#X obj 731 438 random 360;
#X obj 841 137 r randomise;
#X obj 671 136 r randomise;
#X obj 145 151 r randomise;
#X obj 311 152 r randomise;
#X obj 428 149 r randomise;
#X obj 146 108 s randomise;
#X obj 33 606 * 1;
#X obj 57 64 inlet;
#X obj 146 59 inlet;
#X obj 447 717 outlet~;
#X obj 447 684 *~ 1;
#X obj 764 267 random 5;
#X obj 762 303 / 1;
#X obj 594 269 random 5;
#X obj 592 305 / 1;
#X obj 438 269 random 5;
#X obj 395 412 / 1;
#X obj 57 229 s \$0-freq;
#X obj 51 331 r \$0-freq;
#X text 250 39 additive-voice.pd - additive synth with randomiser;
#X text 250 64 randomiser changes all voices' octave in the range of
1-5 and their volume, f 44;
#X obj 912 301 print;
#X obj 401 559 lop~ 4000;
#X obj 519 562 lop~ 4000;
#X obj 651 562 lop~ 6000;
#X obj 950 607 line;
#X floatatom 936 674 5 0 0 0 - - -;
#X obj 890 423 / 300;
#X obj 890 519 t b b;
#X obj 888 584 f 0;
#X obj 890 487 t b f;
#X floatatom 931 451 5 0 0 0 - - -;
#X obj 888 632 line;
#X obj 890 550 delay 500;
#X msg 888 608 \$1 1000;
#X msg 950 583 0.01 0.1;
#X obj 206 318 / 300;
#X obj 511 300 / 300;
#X obj 671 299 / 400;
#X obj 841 297 / 500;
#X obj 170 566 line;
#X floatatom 170 590 5 0 0 0 - - -;
#X obj 124 453 t b f b;
#X floatatom 146 495 5 0 0 0 - - -;
#X obj 32 699 *~ 0;
#X msg 170 542 0;
#X obj 80 513 delay 1000;
#X obj 80 541 bng 15 250 50 0 empty empty empty 17 7 0 10 -262144 -1
-1;
#X msg 80 561 0.3 1000;
#X floatatom 59 388 5 0 0 0 - - -;
#X connect 0 0 71 0;
#X connect 1 0 44 0;
#X connect 2 0 1 0;
#X connect 3 0 32 0;
#X connect 4 0 63 0;
#X connect 5 0 7 0;
#X connect 6 0 5 0;
#X connect 8 0 6 1;
#X connect 9 0 54 0;
#X connect 10 0 69 0;
#X connect 11 0 5 1;
#X connect 12 0 14 0;
#X connect 13 0 12 0;
#X connect 14 0 49 0;
#X connect 15 0 64 0;
#X connect 16 0 12 1;
#X connect 17 0 19 0;
#X connect 18 0 17 0;
#X connect 19 0 50 0;
#X connect 20 0 65 0;
#X connect 21 0 17 1;
#X connect 22 0 24 0;
#X connect 23 0 22 0;
#X connect 24 0 51 0;
#X connect 25 0 66 0;
#X connect 26 0 22 1;
#X connect 27 0 26 0;
#X connect 27 0 25 0;
#X connect 27 0 38 0;
#X connect 28 0 21 0;
#X connect 28 0 20 0;
#X connect 28 0 40 0;
#X connect 29 0 4 0;
#X connect 29 0 10 0;
#X connect 30 0 11 0;
#X connect 30 0 8 0;
#X connect 30 0 9 0;
#X connect 31 0 16 0;
#X connect 31 0 15 0;
#X connect 31 0 42 0;
#X connect 33 0 0 0;
#X connect 34 0 2 0;
#X connect 35 0 3 0;
#X connect 37 0 36 0;
#X connect 38 0 39 0;
#X connect 39 0 23 1;
#X connect 40 0 41 0;
#X connect 41 0 18 1;
#X connect 42 0 43 0;
#X connect 43 0 13 1;
#X connect 45 0 6 0;
#X connect 45 0 13 0;
#X connect 45 0 18 0;
#X connect 45 0 23 0;
#X connect 45 0 33 0;
#X connect 45 0 76 0;
#X connect 52 0 53 0;
#X connect 53 0 7 1;
#X connect 54 0 57 0;
#X connect 54 0 58 0;
#X connect 55 0 60 0;
#X connect 55 1 62 0;
#X connect 56 0 61 0;
#X connect 57 0 55 0;
#X connect 57 1 56 1;
#X connect 59 0 53 0;
#X connect 60 0 56 0;
#X connect 61 0 59 0;
#X connect 62 0 52 0;
#X connect 64 0 14 1;
#X connect 65 0 19 1;
#X connect 66 0 24 1;
#X connect 67 0 68 0;
#X connect 68 0 71 1;
#X connect 69 0 73 0;
#X connect 69 1 70 0;
#X connect 69 2 72 0;
#X connect 70 0 0 1;
#X connect 72 0 67 0;
#X connect 73 0 74 0;
#X connect 74 0 75 0;
#X connect 75 0 67 0;
