#N canvas 312 52 968 697 12;
#X obj 453 577 hsl 128 15 0 1 0 0 empty empty empty -2 -8 0 10 -262144
-1 -1 8890 1;
#X msg 450 621 dry \$1;
#X obj 127 802 e_platereverb somename;
#X msg 570 673 decay \$1;
#X obj 652 619 hsl 128 15 0 1 0 0 empty empty empty -2 -8 0 10 -262144
-1 -1 5080 1;
#X floatatom 650 641 5 0 0 0 - - -;
#X msg 569 699 input_diffusion1 \$1;
#X msg 569 729 input_diffusion2 \$1;
#X msg 568 762 decay_diffusion1 \$1;
#X msg 568 791 decay_diffusion2 \$1;
#X floatatom 450 599 5 0 0 0 - - -;
#X obj 454 333 loadbang;
#X obj 454 357 delay 200;
#X obj 454 381 bng 15 250 50 0 empty empty empty 17 7 0 10 -262144
-1 -1;
#X obj 734 693 dac~;
#X obj 506 135 loadbang;
#X msg 506 251 speed \$1;
#X msg 595 250 pitch \$1;
#X obj 685 242 / 100;
#X msg 685 268 window \$1;
#X msg 684 213 88.18;
#X obj 801 121 bng 15 250 50 0 empty empty empty 17 7 0 10 -262144
-1 -1;
#X obj 116 48 bng 15 250 50 0 empty empty empty 17 7 0 10 -262144 -1
-1;
#X obj 331 557 loadbang;
#X obj 331 581 bng 15 250 50 0 empty empty empty 17 7 0 10 -262144
-1 -1;
#X text 407 425 fb;
#X text 324 607 time;
#X text 280 470 16;
#X text 275 492 25;
#X text 232 470 546;
#X text 230 494 12.39;
#X obj 41 464 hsl 128 15 0 1 0 0 empty empty empty -2 -8 0 10 -262144
-1 -1 0 1;
#X msg 450 552 0.7;
#X msg 650 593 0.4;
#X msg 790 268 duration \$1;
#X msg 795 226 1;
#X obj 50 491 t f b;
#X obj 946 367 + 1;
#X floatatom 946 442 5 0 0 0 - - -;
#X obj 946 343 random 50;
#X obj 946 391 + 50;
#X msg 590 224 35;
#X msg 506 223 34;
#X text 1017 346 window;
#X obj 1101 366 + 1;
#X floatatom 1101 414 5 0 0 0 - - -;
#X obj 1101 390 + 4;
#X obj 1101 342 random 31;
#X text 987 524 6;
#X obj 568 402 / 10;
#X msg 567 473 \$1 200;
#X obj 567 497 line;
#X floatatom 567 521 5 0 0 0 - - -;
#X floatatom 568 426 5 0 0 0 - - -;
#X obj 764 466 / 10;
#X msg 768 655 \$1 200;
#X obj 768 679 line;
#X floatatom 768 703 5 0 0 0 - - -;
#X floatatom 769 608 5 0 0 0 - - -;
#X obj 568 378 + 1;
#X obj 568 354 random 6;
#X obj 764 373 random 6;
#X text 987 510 5;
#X text 984 543 7;
#X text 987 567 8;
#X text 992 587 9;
#X text 986 608 10;
#X text 990 626 12;
#X text 989 653 13;
#X obj 343 237 makefilename %s.wav;
#X obj 342 134 bng 15 250 50 0 empty empty empty 17 7 0 10 -262144
-1 -1;
#X msg 342 203 symbol bahn/stimme/\$1;
#X obj 342 177 f \$1;
#X obj 117 139 bng 15 250 50 0 empty bang6_receive empty 17 7 0 10
-262144 -1 -1;
#X obj 366 94 loadbang;
#X msg 40 439 0;
#X floatatom 42 467 5 0 0 0 - - -;
#X floatatom 137 138 5 0 0 0 - - -;
#X text 121 120 stimme;
#X obj 112 20 inlet;
#X obj 342 154 delay 1000;
#X obj 89 540 jakobstretchja;
#X obj 162 105 tgl 15 0 empty empty empty 17 7 0 10 -262144 -1 -1 0
1;
#X obj 210 139 switch~;
#X msg 184 192 1;
#X obj 117 159 t b b b;
#X obj 267 21 loadbang;
#X msg 267 45 0;
#X msg 136 245 0;
#X obj 136 221 delay 15000;
#X msg 211 290 symbol bang\$1;
#X obj 211 314 makefilename %s_receive;
#X msg 211 338 receive \$1;
#X obj 199 836 throw~ bahnlinks;
#X obj 339 836 throw~ bahnrechts;
#X obj 764 402 + 1;
#X connect 0 0 10 0;
#X connect 1 0 2 2;
#X connect 2 0 93 0;
#X connect 2 1 94 0;
#X connect 3 0 2 2;
#X connect 4 0 5 0;
#X connect 5 0 3 0;
#X connect 5 0 6 0;
#X connect 5 0 7 0;
#X connect 5 0 8 0;
#X connect 5 0 9 0;
#X connect 6 0 2 2;
#X connect 7 0 2 2;
#X connect 8 0 2 2;
#X connect 9 0 2 2;
#X connect 10 0 1 0;
#X connect 11 0 12 0;
#X connect 12 0 13 0;
#X connect 13 0 32 0;
#X connect 13 0 33 0;
#X connect 15 0 42 0;
#X connect 15 0 20 0;
#X connect 15 0 41 0;
#X connect 16 0 81 1;
#X connect 17 0 81 1;
#X connect 18 0 19 0;
#X connect 19 0 81 1;
#X connect 20 0 18 0;
#X connect 21 0 42 0;
#X connect 21 0 41 0;
#X connect 21 0 20 0;
#X connect 21 0 35 0;
#X connect 22 0 73 0;
#X connect 23 0 24 0;
#X connect 31 0 76 0;
#X connect 32 0 0 0;
#X connect 33 0 4 0;
#X connect 34 0 81 1;
#X connect 35 0 34 0;
#X connect 36 0 81 0;
#X connect 36 1 39 0;
#X connect 36 1 47 0;
#X connect 36 1 60 0;
#X connect 36 1 61 0;
#X connect 37 0 40 0;
#X connect 38 0 18 0;
#X connect 39 0 37 0;
#X connect 40 0 38 0;
#X connect 41 0 17 0;
#X connect 42 0 16 0;
#X connect 44 0 46 0;
#X connect 45 0 16 0;
#X connect 46 0 45 0;
#X connect 47 0 44 0;
#X connect 49 0 53 0;
#X connect 50 0 51 0;
#X connect 51 0 52 0;
#X connect 52 0 0 0;
#X connect 53 0 50 0;
#X connect 54 0 58 0;
#X connect 55 0 56 0;
#X connect 56 0 57 0;
#X connect 57 0 4 0;
#X connect 58 0 55 0;
#X connect 59 0 49 0;
#X connect 60 0 59 0;
#X connect 61 0 95 0;
#X connect 69 0 81 2;
#X connect 70 0 80 0;
#X connect 71 0 69 0;
#X connect 72 0 71 0;
#X connect 72 0 77 0;
#X connect 72 0 90 0;
#X connect 73 0 85 0;
#X connect 74 0 70 0;
#X connect 75 0 31 0;
#X connect 76 0 36 0;
#X connect 79 0 22 0;
#X connect 80 0 72 0;
#X connect 81 0 2 0;
#X connect 81 1 2 1;
#X connect 82 0 83 0;
#X connect 84 0 83 0;
#X connect 84 0 82 0;
#X connect 85 0 75 0;
#X connect 85 1 89 0;
#X connect 85 2 84 0;
#X connect 86 0 87 0;
#X connect 87 0 82 0;
#X connect 88 0 83 0;
#X connect 88 0 82 0;
#X connect 89 0 88 0;
#X connect 90 0 91 0;
#X connect 91 0 92 0;
#X connect 92 0 73 0;
#X connect 95 0 54 0;
#X coords 0 -1 1 1 85 60 1 100 100;
