#N canvas 724 81 528 466 12;
#X obj 149 317 print;
#X msg 133 81 devices;
#X obj 133 123 comport 8 9600;
#X msg 208 81 close 8;
#X msg 285 82 open 8;
#X obj 228 168 print rechts;
#X obj 338 328 tosymbol;
#X obj 371 215 list tosymbol;
#X obj 133 278 spigot;
#X obj 172 254 tgl 15 0 empty empty empty 17 7 0 10 -262144 -1 -1 0
1;
#X obj 133 439 print;
#X obj 291 243 zl group 100;
#X msg 373 104 100;
#X obj 371 158 zl group 3;
#X msg 414 105 1;
#X msg 450 104 3;
#X obj 49 407 s;
#X connect 1 0 2 0;
#X connect 2 0 8 0;
#X connect 2 1 5 0;
#X connect 3 0 2 0;
#X connect 4 0 2 0;
#X connect 7 0 10 0;
#X connect 8 0 0 0;
#X connect 9 0 8 1;
#X connect 12 0 13 0;
#X connect 13 0 7 0;
#X connect 14 0 13 0;
#X connect 15 0 13 0;
