#N canvas 0 23 1043 673 12;
#X msg 118 -43 66;
#X obj 193 113 mtof;
#X obj 193 144 phasor~;
#X obj 193 182 *~;
#X obj 193 215 wrap~;
#X obj 193 248 cos~;
#X obj 238 391 wrap~;
#X obj 238 419 cos~;
#X obj 193 363 *~;
#X obj 211 330 * 0.01;
#X obj 277 511 vline~;
#X obj 238 537 *~;
#X msg 277 481 0 0 \, 0.0625 0 0 \, 0 \$1 0;
#X obj 213 49 random 8;
#X obj 211 308 random 150;
#X obj 277 454 random 901;
#X floatatom 253 201 20 0 0 0 - - -;
#X obj 193 -78 inlet midiNoteIn;
#X obj 193 -16 t f b b b;
#X obj -355 611 outlet~ left;
#X obj 330 584 outlet~ right;
#X obj 238 563 *~ 0.2;
#X connect 0 0 18 0;
#X connect 1 0 2 0;
#X connect 1 0 16 0;
#X connect 2 0 3 0;
#X connect 2 0 6 0;
#X connect 3 0 4 0;
#X connect 4 0 5 0;
#X connect 5 0 8 0;
#X connect 6 0 7 0;
#X connect 7 0 11 0;
#X connect 8 0 6 0;
#X connect 9 0 8 1;
#X connect 10 0 11 1;
#X connect 11 0 21 0;
#X connect 12 0 10 0;
#X connect 13 0 3 1;
#X connect 14 0 9 0;
#X connect 15 0 12 0;
#X connect 17 0 18 0;
#X connect 18 0 1 0;
#X connect 18 1 13 0;
#X connect 18 2 15 0;
#X connect 18 3 14 0;
#X connect 21 0 20 0;
#X connect 21 0 19 0;
