#N canvas -39 98 1920 984 12;
#X obj 229 -1053 inlet raw_values;
#X obj 476 -662 + 1;
#X obj 711 -744 bng 15 250 50 0 empty empty empty 17 7 0 10 -262144
-1 -1;
#X obj 339 -338 bng 15 250 50 0 empty empty empty 17 7 0 10 -262144
-1 -1;
#X msg 482 -1070 4;
#X obj 441 -597 moses 3;
#X obj 558 -373 bng 15 250 50 0 empty empty empty 17 7 0 10 -262144
-1 -1;
#X obj 441 -269 f 0;
#X obj 441 -400 bng 15 250 50 0 empty empty empty 17 7 0 10 -262144
-1 -1;
#X obj 474 -748 s \$0-currentvalue;
#X obj 459 -298 r \$0-currentvalue;
#X text 506 -589 number of values to put into list;
#X obj 263 175 list store;
#X obj 441 -196 list store;
#X msg 441 -244 append \$1;
#X obj 359 -92 bng 15 250 50 0 empty empty empty 17 7 0 10 -262144
-1 -1;
#X obj 578 -377 s \$0-putOutList;
#X obj 453 -220 r \$0-putOutList;
#X obj 558 -355 s \$0-clearList;
#X obj 569 -210 r \$0-clearList;
#X obj 538 -327 s \$0-clearCounter;
#X obj 538 -354 bng 15 250 50 0 empty empty empty 17 7 0 10 -262144
-1 -1;
#X obj 459 -715 r \$0-clearCounter;
#X obj 483 -781 s \$0-listSize;
#X obj 484 -625 r \$0-listSize;
#X obj 536 631 list store;
#X text 615 631 list of sensor values;
#X obj 515 60 s \$0-clearDiffList;
#X obj 467 2132 until;
#X obj 520 209 r \$0-listSize;
#X obj 502 240 f 0;
#X obj 502 265 until;
#X obj 538 386 + 1;
#X obj 503 444 moses;
#X obj 535 415 r \$0-listSize;
#X obj 535 477 t f b;
#X obj 476 614 bng 15 250 50 0 empty empty empty 17 7 0 10 -262144
-1 -1;
#X obj 441 -662 f 0;
#X msg 459 -692 1;
#X msg 519 350 1;
#X obj 502 383 f 1;
#X obj 461 417;
#X obj 374 550;
#X msg 535 -1067 5;
#X msg 536 545 get \$1 1;
#X obj 535 519 - 1;
#X text 590 565 get each value of list with until;
#X text 621 654 output: each value of list on after einander;
#X text 517 -813 muss mindestens 2 sein;
#X text 562 266 OUTER LOOP: GET SENSOR VALUES OUT OF LIST;
#X obj 891 821 until;
#X text 953 810 INNER LOOP.. for each sensor value go through list
again;
#X obj 909 760 r \$0-listSize;
#X obj 891 791 f 0;
#X obj 908 847 print until inner loop;
#X obj 519 325 r \$0-clearOuterLoopCounter;
#X obj 565 502 s \$0-clearOuterLoopCounter;
#X obj 891 1221 list store;
#X text 970 1221 list of sensor values;
#X obj 927 943 + 1;
#X obj 891 1005 moses;
#X obj 923 973 r \$0-listSize;
#X obj 923 1045 t f b;
#X obj 818 1210 bng 15 250 50 0 empty empty empty 17 7 0 10 -262144
-1 -1;
#X msg 908 907 1;
#X obj 891 940 f 1;
#X obj 787 987;
#X msg 891 1114 get \$1 1;
#X obj 891 1078 - 1;
#X text 967 1117 get each value of list with until;
#X text 976 1275 output: each value of list on after einander;
#X obj 908 882 r \$0-clearInnerLoopCounter;
#X obj 955 1070 s \$0-clearInnerLoopCounter;
#X obj 496 89 s \$0-clearListOuterLoop;
#X obj 616 598 r \$0-clearListOuterLoop;
#X obj 478 123 s \$0-setListOuterLoop;
#X obj 603 583 r \$0-setListOuterLoop;
#X obj 958 1186 r \$0-setListOuterLoop;
#X obj 979 1156 r \$0-clearListOuterLoop;
#X obj 975 738 print values OUTER loop;
#X text 1038 1359 differenz = abs(current value under test - current
list value inner loop);
#X obj 921 1409 print differenz;
#X obj 1286 739 print current value under test;
#X obj 923 1309 print current value inner loop;
#X obj 488 -136 print new list;
#X obj 1247 731 t f f;
#X obj 891 1277 t f f;
#X obj 503 -852 s \$0-großeDifferenz;
#X obj 891 1350 expr abs($f2 - $f1);
#X obj 891 1477 expr $f1 >= $f2;
#X obj 993 1446 r \$0-großeDifferenz;
#X obj 891 1508 route 1;
#X text 1023 1490 checke \, ob differenz groesser gleich schwellwert
"grosse Differenz";
#X obj 1001 1590 print kleineDiff;
#X obj 891 1375 t f f;
#X obj 434 -1005 t b f b b b;
#X obj 595 -405 s \$0-clearDiffList;
#X text 732 -404 neue Differenzliste.;
#X obj 909 1638 r \$0-resetDiffCounter;
#X obj 891 1578 bng 15 250 50 0 empty empty empty 17 7 0 10 -262144
-1 -1;
#X obj 579 1852 print bigDiffCounter;
#X obj 891 1714 t f f;
#X obj 922 1690 + 1;
#X obj 537 1790 f 0;
#X obj 515 9 t b b;
#X obj 554 39 print clearing diff list;
#X obj 502 290 t b b, f 49;
#X obj 873 380 print clearing diff counter..;
#X obj 834 339 t b b;
#X obj 833 411 s \$0-resetDiffCounter;
#X obj 536 695 t b b f, f 102;
#X obj 891 1543 t b b;
#X obj 921 1573 print bigDiff;
#X msg 909 1661 1;
#X obj 891 1689 f 1;
#X obj 555 1724 r \$0-resetDiffCounter;
#X msg 555 1752 0;
#X obj 447 1951 list store;
#X obj 589 -463 t b b;
#X obj 620 -432 print clearing diff list;
#X text 644 1918 neue Differenzliste.;
#X obj 514 1921 r \$0-clearDiffList;
#X msg 537 1890 append \$1;
#X obj 537 1815 t f f;
#X obj 519 -494 t b b b b b;
#X obj 467 2357 list store;
#X obj 605 2007 print new difflist;
#X obj 467 2096 f;
#X obj 485 2071 r \$0-listSize;
#X obj 467 2203 f 0;
#X obj 502 2204 + 1;
#X msg 467 2304 get \$1 1;
#X msg 485 2175 0;
#X msg 371 -1075 1;
#X msg 424 -1071 3;
#X msg 585 -1068 8;
#X msg 630 -1066 120;
#X msg 698 -1062 140;
#X obj 490 2274 s \$0-currentDiffIndexUnderTest;
#X msg 521 -963 2;
#X obj 524 -927 s \$0-ManipulateThreshold;
#X obj 499 2439 r \$0-ManipulateThreshold;
#X obj 467 2467 moses;
#X obj 1381 2830 print manipulation threshold exceeded;
#X obj 1236 3713 print index of minimum value;
#X obj 1190 3846 list store;
#X text 1274 3846 current sensor-value list;
#X obj 1258 3815 r \$0-clearList;
#X obj 441 -171 t l l l;
#X obj 465 -106 s \$0-newSensorValueList;
#X obj 1243 3776 r \$0-newSensorValueList;
#X msg 1190 3735 get \$1 1;
#X text 1269 3742 get sensor value at index which causes least big
diffs;
#X obj 698 2578 f 0;
#X obj 720 2541 r \$0-currentDiffIndexUnderTest;
#X text 734 2576 index of sens val that has to be replaced because
it causes too many big diffs;
#X obj 756 3203 list store;
#X text 844 3201 current sensor-value list;
#X obj 836 3173 r \$0-clearList;
#X obj 824 3145 r \$0-newSensorValueList;
#X text 523 2469 check if diff list has values >= manipulation threshold
;
#X obj 739 2737 r \$0-listSize;
#X obj 710 2767 f 0;
#X obj 710 2792 until;
#X obj 710 2841 f 0;
#X obj 754 2841 + 1;
#X msg 756 3166 get \$1 1;
#X text 759 3125 get sens vals nacheinander;
#X text 41 3228 checke \, ob laufindex == index that has to be manipulated
;
#X text 794 2868 current looop index;
#X msg 728 2817 0;
#X obj 710 2941 expr $f2 == $f1;
#X text 831 2931 check if loop index is at sensValIndex \, that has
to be replaced;
#X obj 710 3046 route 1;
#X text 781 3051 1 = get minimum sens val and put it into sensValList
;
#X obj 708 3300 f 0;
#X obj 698 2603 t f f f f;
#X obj 710 3071 bng 15 250 50 0 empty empty empty 17 7 0 10 -262144
-1 -1;
#X text 779 3074 0 = just get values out of sensValList and put it
back in;
#X obj 756 3096 f 0;
#X obj 756 3076 bng 15 250 50 0 empty empty empty 17 7 0 10 -262144
-1 -1;
#X obj 710 2868 t f f f f;
#X obj 710 2660 t b b b f;
#X obj 1265 4951 list store;
#X obj 589 5 s \$0-clearManipulatedSensValList;
#X obj 1332 4920 r \$0-clearManipulatedSensValList;
#X msg 760 3277 append \$1;
#X msg 706 3395 append \$1;
#X obj 526 2024 s \$0-clearDiffList_forThresholdProcessing;
#X obj 486 2046 s \$0-setDiffList_forThresholdProcessing;
#X obj 547 2310 r \$0-clearDiffList_forThresholdProcessing;
#X obj 556 2334 r \$0-setDiffList_forThresholdProcessing;
#X obj 770 2897 print loop index for manipulating;
#X obj 487 -571 t b b;
#X obj 487 -537 s \$0-putOutManipulatedList;
#X obj 710 2986 t f f;
#X obj 757 3017 print expr;
#X obj 708 3325 t f f;
#X obj 738 3370 print route1: appending;
#X obj 758 3229 t f f;
#X obj 798 3256 print route0: appending;
#X obj 467 2228 t f f f;
#X obj 528 2252 print current diff index under test;
#X obj 467 2382 t f f;
#X obj 498 2410 print getting diff value;
#X obj 441 -69 t b b l b b b;
#X obj 540 -42 t b b;
#X obj 593 -19 print clearing manipulated sens val list;
#X obj 517 4367 r \$0-newSensorValueList;
#X obj 450 4427 list store;
#X obj 517 4397 t l b;
#X obj 449 4068 bng 15 250 50 0 empty empty empty 17 7 0 10 -262144
-1 -1;
#X obj 450 4241 until;
#X obj 450 4216 f;
#X obj 468 4191 r \$0-listSize;
#X obj 450 4290 f 0;
#X obj 485 4293 + 1;
#X msg 468 4265 0;
#X msg 450 4321 get \$1 1;
#X obj 449 4128 t b b b;
#X obj 494 4163 print list okay. put out as is in serial form;
#X obj 854 2021 s \$0-clearDiffListAnalyzingCounter;
#X obj 1418 2623 f 1;
#X obj 1418 2648 t f f;
#X obj 1452 2626 + 1;
#X obj 1436 2570 r \$0-clearDiffListAnalyzingCounter;
#X msg 1436 2595 1;
#X obj 1432 2714 f 0;
#X obj 470 3620 f 1;
#X obj 470 3645 t f f;
#X obj 504 3623 + 1;
#X obj 504 3556 r \$0-clearDiffListAnalyzingCounter;
#X msg 504 3581 1;
#X obj 470 3716 f 0;
#X obj 470 3540 bng 15 250 50 0 empty empty empty 17 7 0 10 -262144
-1 -1;
#X obj 447 1976 t b b l b b l b, f 23;
#X obj 482 3872 s \$0-triggerDiffListAnalysis;
#X obj 470 3689 r \$0-triggerDiffListAnalysis;
#X obj 502 3773 print smallerthanthresholdcounter;
#X obj 1464 2769 print greaterthanthresholdcounter;
#X obj 1432 2687 r \$0-triggerDiffListAnalysis;
#X msg 1482 2595 0;
#X msg 537 3582 0;
#X obj 450 3844 t b b;
#X obj 470 3741 t f f;
#X obj 470 3797 s \$0-smallerThanThresholdCounter;
#X obj 450 3981 expr $f2 == $f3;
#X obj 501 3922 r \$0-smallerThanThresholdCounter;
#X obj 552 3948 r \$0-listSize;
#X obj 451 4033 route 1, f 57;
#X text 470 4066 yes: put out original sensor val list;
#X obj 879 4108 print difflist exceeds threshold more than once;
#X obj 847 4078 t b b;
#X obj 846 4199 expr $f2 == $f3;
#X text 574 3979 all diff values SMALLER than threshold?;
#X text 893 4074 no:;
#X obj 1432 2739 t f f;
#X obj 1432 2793 s \$0-greaterThanThresholdCounter;
#X obj 897 4146 r \$0-greaterThanThresholdCounter;
#X obj 948 4170 r \$0-listSize;
#X text 969 4201 all diff values GREATER than threshold?;
#X obj 846 4224 route 1, f 60;
#X obj 471 4515 s \$0-lastGueltigerSensVal;
#X obj 1236 3933 print saving sensor val at minimum index;
#X obj 1190 3871 t f f f;
#X obj 1213 3962 s \$0-lastGueltigerSensVal;
#X obj 827 4862 f 1;
#X obj 845 4835 r \$0-lastGueltigerSensVal;
#X obj 846 4249 bng 15 250 50 0 empty empty empty 17 7 0 10 -262144
-1 -1;
#X obj 827 4806 until;
#X obj 827 4781 f;
#X obj 845 4756 r \$0-listSize;
#X obj 473 4555 print output all diff ok;
#X obj 848 4271 t b b;
#X obj 880 4320 print all diffs greater than threshold;
#X obj 827 4887 t f f f f;
#X obj 867 4953 s \$0-lastGueltigerSensVal;
#X text 835 4711 yes: uebergehe die aktuelle liste und gebe einfach
den letzten gueltigen sensVal als Liste aus;
#X text 1283 4225 no: 1 oder mehrere diff vals sind ungueltig;
#X obj 1266 4380 expr $f2 == 1;
#X obj 1263 4268 bng 15 250 50 0 empty empty empty 17 7 0 10 -262144
-1 -1;
#X obj 1264 4298 t b b;
#X obj 1296 4327 print 1 oder mehr diff vals sind ungueltig;
#X obj 1354 4353 r \$0-greaterThanThresholdCounter;
#X text 1384 4388 ist nur EIN diff val groesser als threshold?;
#X obj 1313 4499 print nur ein diff val ist groesser als threshold
;
#X obj 499 2494 t b f, f 99;
#X obj 1265 4418 route 1, f 61;
#X obj 713 3477 s \$0-addToManipulatedList;
#X obj 1284 4897 r \$0-addToManipulatedList;
#X obj 905 3476 s \$0-addToManipulatedList;
#X obj 1266 4734 until;
#X obj 1266 4709 f;
#X obj 1284 4684 r \$0-listSize;
#X obj 1266 4818 f 0;
#X obj 1301 4822 + 1;
#X msg 1284 4793 0;
#X msg 1266 4864 get \$1 1;
#X obj 1265 4976 t f f f f;
#X obj 1302 5044 s \$0-lastGueltigerSensVal;
#X obj 1265 5109 print output 1 diff not okay;
#X obj 1293 4629 list store;
#X obj 1360 4598 r \$0-clearManipulatedSensValList;
#X obj 1312 4575 r \$0-addToManipulatedList;
#X obj 1293 4657 print manipulated list;
#X text 1281 4542 Just for debug;
#X obj 1720 4497 print *TODO* more than one but not all diff vals are
not ok;
#X obj 1264 4466 t b b b b;
#X obj 1265 4443 bng 15 250 50 0 empty empty empty 17 7 0 10 -262144
-1 -1;
#X obj 1710 4463 bng 15 250 50 0 empty empty empty 17 7 0 10 -262144
-1 -1;
#X obj 847 4058 bng 15 250 50 0 empty empty empty 17 7 0 10 -262144
-1 -1;
#X text 1329 4435 yes: gebe manipulated list aus \, gebildet mit obigem
funktionierenden mechanismus;
#X obj 758 2635 print index of sens val that has to be replaced;
#X obj 450 5097 outlet manipulatedSensValListSerialized;
#X obj 450 4452 t f f f f;
#X obj 494 4488 print saving as last gueltigen sensor val links;
#X obj 890 4924 print saving as last gueltigen sensor val mitte;
#X obj 1322 5016 print saving as last gueltigen sensor val rchts;
#X obj 849 4985 print ***output all diff not ok;
#X msg 483 -811 4;
#X text 842 -1067 28 38 46 54;
#X msg 504 -878 18;
#X msg 788 -1042 28;
#X msg 829 -1039 38;
#X msg 870 -1039 46;
#X msg 909 -1037 54;
#X obj 1190 3760 t a a;
#X obj 1204 3808 print *;
#X obj 1376 3208 r \$0-clearDiffList_forThresholdProcessing;
#X obj 1313 3184 r \$0-setDiffList_forThresholdProcessing;
#X obj 1252 3237 findMinIndexInList;
#X obj 1378 3350 print mini;
#X obj 1190 2517 t b f b, f 33;
#X text 723 -920 schwellwert \, bei dem eine Sensorzahl manipuliert
wird. Wenn ein Sensorwert so und so viele große Diffs ausloest \,
dann wird dieser Sensorwert aus dem Sensorstream mit einer anderen
Zahl ersetzt \, um den Wertestream zu glaetten.;
#X obj 921 4455 r \$0-newSensorValueList;
#X obj 854 4515 list store;
#X obj 921 4485 t l b;
#X obj 1088 4535 list store;
#X msg 1160 4454 list 1 2 3 4;
#X obj 1160 4479 t l b;
#X obj 1088 4579 print;
#X msg 1084 4473 get 3 1;
#X msg 853 4452 get \$1 1;
#X obj 854 4419 until;
#X obj 854 4394 f;
#X obj 872 4369 r \$0-listSize;
#X text 921 4262 yes: uebergehe die liste und gebe einfach \; den letzten
sensVal mehrmals hintereinander aus;
#X obj 853 4572 t f f f f;
#X obj 893 4638 s \$0-lastGueltigerSensVal;
#X obj 916 4609 print saving as last gueltigen sensor val mitte;
#X obj 875 4670 print ***output all diff not ok;
#X obj 1689 4775 f 1;
#X obj 1707 4748 r \$0-lastGueltigerSensVal;
#X obj 1689 4719 until;
#X obj 1689 4694 f;
#X obj 1707 4669 r \$0-listSize;
#X obj 1689 4800 t f f f f;
#X obj 1729 4866 s \$0-lastGueltigerSensVal;
#X text 1697 4624 yes: uebergehe die aktuelle liste und gebe einfach
den letzten gueltigen sensVal als Liste aus;
#X obj 1752 4837 print saving as last gueltigen sensor val ganz rechts
;
#X obj 1711 4898 print ***more than one but not all not ok;
#X connect 0 0 95 0;
#X connect 1 0 37 1;
#X connect 4 0 95 0;
#X connect 5 0 8 0;
#X connect 5 1 193 0;
#X connect 6 0 18 0;
#X connect 7 0 14 0;
#X connect 8 0 7 0;
#X connect 10 0 7 1;
#X connect 13 0 148 0;
#X connect 14 0 13 0;
#X connect 17 0 13 0;
#X connect 19 0 13 1;
#X connect 21 0 20 0;
#X connect 22 0 38 0;
#X connect 24 0 5 1;
#X connect 25 0 110 0;
#X connect 28 0 129 0;
#X connect 29 0 30 1;
#X connect 30 0 31 0;
#X connect 31 0 106 0;
#X connect 32 0 40 1;
#X connect 33 0 45 0;
#X connect 33 1 35 0;
#X connect 34 0 33 1;
#X connect 35 0 45 0;
#X connect 35 1 56 0;
#X connect 36 0 25 0;
#X connect 37 0 1 0;
#X connect 37 0 5 0;
#X connect 38 0 37 1;
#X connect 39 0 40 1;
#X connect 40 0 32 0;
#X connect 40 0 33 0;
#X connect 43 0 95 0;
#X connect 44 0 25 0;
#X connect 45 0 44 0;
#X connect 50 0 65 0;
#X connect 52 0 53 1;
#X connect 53 0 50 0;
#X connect 55 0 39 0;
#X connect 57 0 86 0;
#X connect 59 0 65 1;
#X connect 60 0 68 0;
#X connect 60 1 62 0;
#X connect 61 0 60 1;
#X connect 62 0 68 0;
#X connect 62 1 72 0;
#X connect 63 0 57 0;
#X connect 64 0 65 1;
#X connect 65 0 59 0;
#X connect 65 0 60 0;
#X connect 67 0 57 0;
#X connect 68 0 67 0;
#X connect 71 0 64 0;
#X connect 74 0 25 1;
#X connect 76 0 25 1;
#X connect 77 0 57 1;
#X connect 78 0 57 1;
#X connect 85 0 88 1;
#X connect 86 0 88 0;
#X connect 88 0 94 0;
#X connect 89 0 91 0;
#X connect 90 0 89 1;
#X connect 91 0 111 0;
#X connect 94 0 89 0;
#X connect 95 0 37 0;
#X connect 95 1 9 0;
#X connect 95 2 319 0;
#X connect 95 3 321 0;
#X connect 95 4 139 0;
#X connect 98 0 113 0;
#X connect 99 0 114 0;
#X connect 101 0 103 1;
#X connect 101 1 102 0;
#X connect 102 0 114 1;
#X connect 103 0 123 0;
#X connect 104 0 27 0;
#X connect 106 0 40 0;
#X connect 106 1 108 0;
#X connect 108 0 109 0;
#X connect 110 0 103 0;
#X connect 110 1 53 0;
#X connect 110 2 85 0;
#X connect 111 0 99 0;
#X connect 113 0 114 1;
#X connect 114 0 101 0;
#X connect 115 0 116 0;
#X connect 116 0 103 1;
#X connect 117 0 235 0;
#X connect 118 0 96 0;
#X connect 121 0 117 1;
#X connect 122 0 117 0;
#X connect 123 0 122 0;
#X connect 124 0 8 0;
#X connect 124 1 21 0;
#X connect 124 2 6 0;
#X connect 124 3 16 0;
#X connect 124 4 118 0;
#X connect 125 0 203 0;
#X connect 127 0 28 0;
#X connect 128 0 127 1;
#X connect 129 0 130 0;
#X connect 129 0 201 0;
#X connect 130 0 129 1;
#X connect 131 0 125 0;
#X connect 132 0 129 1;
#X connect 133 0 95 0;
#X connect 134 0 95 0;
#X connect 135 0 95 0;
#X connect 136 0 95 0;
#X connect 137 0 95 0;
#X connect 139 0 140 0;
#X connect 141 0 142 1;
#X connect 142 0 234 0;
#X connect 142 1 286 0;
#X connect 145 0 264 0;
#X connect 147 0 145 1;
#X connect 148 0 205 0;
#X connect 148 1 149 0;
#X connect 150 0 145 1;
#X connect 151 0 326 0;
#X connect 153 0 176 0;
#X connect 154 0 153 1;
#X connect 156 0 199 0;
#X connect 158 0 156 1;
#X connect 159 0 156 1;
#X connect 161 0 162 1;
#X connect 162 0 163 0;
#X connect 163 0 164 0;
#X connect 164 0 181 0;
#X connect 165 0 164 1;
#X connect 166 0 156 0;
#X connect 170 0 164 1;
#X connect 171 0 195 0;
#X connect 173 0 177 0;
#X connect 173 1 180 0;
#X connect 175 0 197 0;
#X connect 176 0 182 0;
#X connect 177 0 175 0;
#X connect 179 0 166 0;
#X connect 180 0 179 0;
#X connect 181 0 171 0;
#X connect 181 1 165 0;
#X connect 181 2 179 1;
#X connect 182 0 162 0;
#X connect 182 1 170 0;
#X connect 182 3 171 1;
#X connect 183 0 298 0;
#X connect 185 0 183 1;
#X connect 186 0 290 0;
#X connect 187 0 288 0;
#X connect 190 0 125 1;
#X connect 191 0 125 1;
#X connect 193 1 124 0;
#X connect 195 0 173 0;
#X connect 197 0 187 0;
#X connect 199 0 186 0;
#X connect 201 0 131 0;
#X connect 201 1 138 0;
#X connect 203 0 142 0;
#X connect 205 0 117 0;
#X connect 205 1 30 0;
#X connect 205 2 75 0;
#X connect 205 3 73 0;
#X connect 205 4 104 0;
#X connect 205 5 206 0;
#X connect 206 0 184 0;
#X connect 208 0 210 0;
#X connect 209 0 314 0;
#X connect 210 0 209 1;
#X connect 210 1 209 1;
#X connect 211 0 219 0;
#X connect 212 0 215 0;
#X connect 213 0 212 0;
#X connect 214 0 213 1;
#X connect 215 0 216 0;
#X connect 215 0 218 0;
#X connect 216 0 215 1;
#X connect 217 0 215 1;
#X connect 218 0 209 0;
#X connect 219 0 213 0;
#X connect 219 1 217 0;
#X connect 222 0 223 0;
#X connect 223 0 227 1;
#X connect 223 1 224 0;
#X connect 224 0 222 1;
#X connect 225 0 226 0;
#X connect 225 0 241 0;
#X connect 226 0 222 1;
#X connect 227 0 256 0;
#X connect 228 0 229 0;
#X connect 229 0 233 1;
#X connect 229 1 230 0;
#X connect 230 0 228 1;
#X connect 231 0 232 0;
#X connect 231 0 242 0;
#X connect 232 0 228 1;
#X connect 233 0 244 0;
#X connect 234 0 228 0;
#X connect 235 0 243 0;
#X connect 235 1 127 0;
#X connect 235 2 189 0;
#X connect 235 3 188 0;
#X connect 235 4 132 0;
#X connect 235 6 221 0;
#X connect 237 0 233 0;
#X connect 240 0 227 0;
#X connect 241 0 227 1;
#X connect 242 0 233 1;
#X connect 243 0 246 0;
#X connect 243 1 236 0;
#X connect 244 0 245 0;
#X connect 246 0 249 0;
#X connect 247 0 246 1;
#X connect 248 0 246 2;
#X connect 249 0 211 0;
#X connect 249 1 310 0;
#X connect 252 0 253 0;
#X connect 253 0 261 0;
#X connect 256 0 257 0;
#X connect 258 0 253 1;
#X connect 259 0 253 2;
#X connect 261 0 268 0;
#X connect 261 1 280 0;
#X connect 264 0 175 1;
#X connect 266 0 275 0;
#X connect 267 0 266 1;
#X connect 268 0 273 0;
#X connect 269 0 266 0;
#X connect 270 0 269 0;
#X connect 271 0 270 1;
#X connect 273 0 270 0;
#X connect 275 0 313 0;
#X connect 275 2 276 0;
#X connect 279 0 287 0;
#X connect 280 0 281 0;
#X connect 281 0 279 0;
#X connect 283 0 279 1;
#X connect 286 0 153 0;
#X connect 286 1 332 0;
#X connect 287 0 308 0;
#X connect 287 1 309 0;
#X connect 289 0 183 0;
#X connect 291 0 294 0;
#X connect 292 0 291 0;
#X connect 293 0 292 1;
#X connect 294 0 295 0;
#X connect 294 0 297 0;
#X connect 295 0 294 1;
#X connect 296 0 294 1;
#X connect 297 0 183 0;
#X connect 298 0 313 0;
#X connect 298 2 299 0;
#X connect 302 0 301 1;
#X connect 303 0 301 0;
#X connect 307 0 292 0;
#X connect 307 1 296 0;
#X connect 307 2 301 0;
#X connect 308 0 307 0;
#X connect 309 0 354 0;
#X connect 310 0 252 0;
#X connect 314 0 313 0;
#X connect 314 2 262 0;
#X connect 319 0 23 0;
#X connect 321 0 87 0;
#X connect 322 0 95 0;
#X connect 323 0 95 0;
#X connect 324 0 95 0;
#X connect 325 0 95 0;
#X connect 326 0 145 0;
#X connect 328 0 330 2;
#X connect 329 0 330 1;
#X connect 330 0 151 0;
#X connect 332 0 330 0;
#X connect 332 2 222 0;
#X connect 334 0 336 0;
#X connect 335 0 347 0;
#X connect 336 0 335 1;
#X connect 336 1 335 1;
#X connect 338 0 339 0;
#X connect 339 0 337 1;
#X connect 339 1 337 1;
#X connect 341 0 337 0;
#X connect 342 0 335 0;
#X connect 343 0 342 0;
#X connect 344 0 343 0;
#X connect 345 0 344 1;
#X connect 347 2 348 0;
#X connect 351 0 356 0;
#X connect 352 0 351 1;
#X connect 353 0 351 0;
#X connect 354 0 353 0;
#X connect 355 0 354 1;
#X connect 356 0 313 0;
#X connect 356 2 357 0;
