#N canvas 425 207 1280 751 12;
#X obj 32 -112 inlet data_stream;
#X text 323 22 diese abstraction filtert große wertespruenge eines
daten-streams heraus. die groeße des sprunges ist im init-argument
(\$1) der abstraction anzugeben!!;
#X obj 78 114 f 1;
#X text 129 116 vergleichswert;
#X obj 32 309 expr abs($f2-$f1);
#X text 165 312 distanz = abs(vergleichswert - datavalue);
#X text 529 493 rechts: distanz ist groeßer als erlaubter wertebereich.
;
#X obj 32 859 outlet;
#X obj 78 138 s \$0-vergleichswert;
#X obj 370 699 r \$0-vergleichswert;
#X obj 344 731 f 1;
#X obj 612 184 loadbang;
#X obj 612 238 s \$0-init_vergleichswert;
#X msg 612 208 1;
#X obj 96 61 r \$0-init_vergleichswert;
#X obj 362 677 r \$0-init_vergleichswert;
#X obj 344 528 bng 15 250 50 0 empty empty empty 17 7 0 10 -262144
-1 -1;
#X text 571 509 >> nicht erlaubt. gib einfach den alten gueltigen vergleichswert
als smoothed value raus.;
#X obj 32 42 t f f b;
#X obj 55 181 s \$0-current_data_value;
#X obj 32 697 f 0;
#X obj 50 669 r \$0-current_data_value;
#X obj 32 527 bng 15 250 50 0 empty empty empty 17 7 0 10 -262144 -1
-1;
#X obj 32 721 t f f;
#X obj 64 757 s \$0-update-vergleichswert;
#X obj 104 88 r \$0-update-vergleichswert;
#X text 532 563 links: distanz liegt im erlaubten wertebereich.;
#X text 578 587 >> erlaubt. aktueller data value wird neuer vergleichswert.
>> aktueller data value wird rausgegeben als smoothed value;
#X obj 148 273 r \$0-vergleichswert;
#X obj 32 -37 t f f;
#X obj 70 -2 print datasmoothing input;
#X obj 32 547 t b b;
#X obj 344 548 t b b;
#X obj 64 591 print data smoothing gueltige distanz;
#X obj 385 634 print data smoothing ungueltige distanz;
#X obj 32 493 moses 100, f 45;
#X connect 2 0 8 0;
#X connect 4 0 35 0;
#X connect 9 0 10 1;
#X connect 10 0 7 0;
#X connect 11 0 13 0;
#X connect 13 0 12 0;
#X connect 14 0 2 1;
#X connect 15 0 10 1;
#X connect 16 0 32 0;
#X connect 18 0 4 0;
#X connect 18 1 19 0;
#X connect 18 2 2 0;
#X connect 20 0 23 0;
#X connect 21 0 20 1;
#X connect 22 0 31 0;
#X connect 23 0 7 0;
#X connect 23 1 24 0;
#X connect 25 0 2 1;
#X connect 28 0 4 1;
#X connect 29 0 18 0;
#X connect 29 1 30 0;
#X connect 31 0 20 0;
#X connect 31 1 33 0;
#X connect 32 0 10 0;
#X connect 32 1 34 0;
#X connect 35 0 22 0;
#X connect 35 1 16 0;
