#N canvas 537 140 450 407 12;
#X obj 83 69 inlet~ audio;
#X obj 257 80 loadbang;
#X msg 257 104 1;
#X obj 157 117 bng 15 250 50 0 empty empty empty 17 7 0 10 -262144
-1 -1;
#X text 107 118 detect;
#X obj 157 138 tgl 15 0 empty empty empty 17 7 0 10 -262144 -1 -1 0
1;
#X text 106 134 status;
#X obj 82 189 env~;
#X obj 82 213 > 0;
#X obj 50 265 float;
#X floatatom 82 237 5 0 0 0 - - -;
#X obj 96 326 outlet status;
#X obj 347 67 inlet detectbang;
#X obj 254 174 metro 4000;
#X connect 0 0 7 0;
#X connect 1 0 2 0;
#X connect 2 0 13 0;
#X connect 3 0 9 0;
#X connect 7 0 8 0;
#X connect 8 0 10 0;
#X connect 9 0 11 0;
#X connect 9 0 5 0;
#X connect 10 0 9 1;
#X connect 12 0 2 0;
#X connect 13 0 3 0;
#X coords 0 -1 1 1 85 60 1 100 100;
