#N canvas 602 54 539 613 12;
#X obj 327 97 detectaudio;
#X obj 229 98 detectaudio;
#X floatatom 327 162 5 0 0 0 - - -;
#X floatatom 229 163 5 0 0 0 - - -;
#X obj 202 35 inlet~ left;
#X obj 335 39 inlet~ right;
#X obj 327 185 t b f;
#X obj 229 191 t b f;
#X floatatom 260 260 5 0 0 0 - - -;
#X obj 306 65 bng 15 250 50 0 empty empty empty 17 7 0 10 -262144 -1
-1;
#X text 277 62 det;
#X obj 101 101 tgl 10 0 empty empty empty 17 7 0 10 -258699 -1 -1 0
1;
#X obj 177 485 outlet;
#X msg 260 388 0;
#X msg 307 459 color 0;
#X obj 283 484 delay 400;
#X msg 283 508 color 13;
#X obj 283 589 s \$0-setcolor;
#X obj 64 61 r \$0-setcolor;
#X obj 260 236 expr ($f2==0) && ($f3==0);
#X obj 260 310 route 1;
#X text 288 385 beide kanaele sind leise;
#X obj 425 423 t b b;
#X msg 426 514 color 17;
#X msg 457 456 color 0;
#X obj 345 333 bng 15 250 50 0 empty empty empty 17 7 0 10 -262144
-1 -1;
#X obj 426 490 delay 200;
#X obj 260 428 t b b;
#X connect 0 0 2 0;
#X connect 1 0 3 0;
#X connect 2 0 6 0;
#X connect 3 0 7 0;
#X connect 4 0 1 0;
#X connect 5 0 0 0;
#X connect 6 0 19 0;
#X connect 6 1 19 2;
#X connect 7 0 19 0;
#X connect 7 1 19 1;
#X connect 8 0 20 0;
#X connect 9 0 1 1;
#X connect 9 0 0 1;
#X connect 13 0 12 0;
#X connect 13 0 27 0;
#X connect 14 0 17 0;
#X connect 15 0 16 0;
#X connect 16 0 17 0;
#X connect 18 0 11 0;
#X connect 19 0 8 0;
#X connect 20 0 13 0;
#X connect 20 1 22 0;
#X connect 20 1 25 0;
#X connect 22 0 26 0;
#X connect 22 1 24 0;
#X connect 23 0 17 0;
#X connect 24 0 17 0;
#X connect 26 0 23 0;
#X connect 27 0 15 0;
#X connect 27 1 14 0;
#X coords 0 -1 1 1 12 12 2 100 100;
