#N canvas 0 23 1280 751 12;
#X obj 353 362 additive-voice;
#X obj 682 610 delwrite~ add_left 500;
#X obj 667 641 delwrite~ add_right 750;
#X obj 185 736 delread~ add_left 500;
#X obj 229 768 delread~ add_right 750;
#X obj 185 919 dac~;
#X obj 286 925 delwrite~ add_left_fb 500;
#X obj 271 956 delwrite~ add_right_fb 750;
#X obj 50 666 delread~ add_left_fb 500;
#X obj 108 698 delread~ add_right_fb 750;
#X obj 448 183 bng 15 250 50 0 empty empty empty 17 7 0 10 -262144
-1 -1;
#X floatatom 353 333 5 0 0 0 - - -;
#X obj 353 186 bng 15 250 50 0 empty empty empty 17 7 0 10 -262144
-1 -1;
#X obj 185 823 *~ 0.5;
#X obj 215 864 *~ 0.5;
#X obj 552 523 *~;
#X obj 839 533 vline~;
#X obj 902 474 delay 1000;
#X msg 901 504 0 2000;
#X obj 552 364 additive-voice;
#X obj 647 345 bng 15 250 50 0 empty empty empty 17 7 0 10 -262144
-1 -1;
#X floatatom 552 335 5 0 0 0 - - -;
#X obj 747 364 additive-voice;
#X obj 842 345 bng 15 250 50 0 empty empty empty 17 7 0 10 -262144
-1 -1;
#X floatatom 747 335 5 0 0 0 - - -;
#X obj 886 367 additive-voice;
#X obj 981 347 bng 15 250 50 0 empty empty empty 17 7 0 10 -262144
-1 -1;
#X floatatom 886 338 5 0 0 0 - - -;
#X obj 353 7 trig16;
#X obj 88 394 rand-perc;
#X obj 162 439 *~;
#X obj 188 409 vline~;
#X floatatom 128 293 5 0 0 0 - - -;
#X msg 188 380 1 0 \, 0 50;
#X floatatom 148 338 5 0 0 0 - - -;
#X obj 128 133 sin;
#X obj 301 1 + 1;
#X obj 128 183 * 50;
#X obj 128 209 + 5;
#X obj 128 106 / 100;
#X obj 128 157 abs;
#X msg 109 261 105;
#X obj 369 -52 s clock;
#X obj 187 196 r clock;
#X obj 260 30 s counter;
#X obj 128 79 r counter;
#X obj 56 133 sin;
#X obj 56 106 / 100;
#X obj 56 157 abs;
#X obj 56 79 r counter;
#X obj 56 183 * 100;
#X obj 275 490 stereo-delay;
#X obj 1008 366 additive-voice;
#X obj 1103 346 bng 15 250 50 0 empty empty empty 17 7 0 10 -262144
-1 -1;
#X obj 1008 337 - 12;
#X text 52 639 additive chords delay component;
#X text 455 -48 additive synthesis chords;
#X text 24 252 icy click;
#X msg 260 -68 0;
#X obj 552 570 *~ 0.2;
#X obj 275 442 unpack f f f;
#X msg 275 415 750 500 0.5;
#X msg 776 258 44 47 51 54;
#X msg 884 258 41 45 48 52;
#X obj 776 289 unpack f f f f;
#X obj 830 136 f;
#X obj 864 136 + 1;
#X obj 830 165 % 2;
#X obj 830 192 sel 0;
#X obj 830 94 sel 0;
#X obj 830 20 r counter;
#X text 888 59 chord switcher;
#X obj 830 47 % 256;
#X obj 727 773 *~ 0.5;
#X obj 899 773 *~ 0.5;
#X msg 914 620 3;
#X msg 958 620 2;
#X obj 914 652 s left_delay;
#X msg 1011 620 3;
#X msg 1055 620 2;
#X obj 254 198 s first_trig;
#X obj 974 580 sel 0;
#X obj 974 553 % 2;
#X obj 974 524 f;
#X obj 1007 524 + 1;
#X obj 1011 652 s right_delay;
#X obj 974 497 r first_trig;
#X obj 727 717 r left_delay;
#X obj 727 746 delread~ stereo_left \$1;
#X obj 899 717 r right_delay;
#X obj 899 746 delread~ stereo_right \$1;
#X obj 429 588 r left_delay;
#X obj 367 635 r right_delay;
#X obj 493 667 delwrite~ stereo_left \$1;
#X obj 438 693 delwrite~ stereo_right \$1;
#X obj 472 426 s chordbase;
#X floatatom 243 60 5 0 0 0 - - -;
#X obj 80 465 > 65;
#X obj 162 563 *~;
#X obj 275 569 *~;
#X obj 356 567 *~;
#X obj 80 434 r counter;
#X text 774 689 mild haas/precedence effect;
#X obj 83 952 throw~ sig1;
#X obj 170 953 throw~ sig2;
#X obj 625 865 catch~ sig1;
#X obj 730 865 catch~ sig2;
#X obj 626 921 *~;
#X obj 732 923 *~;
#X obj 647 892 r \$0-vol;
#X obj 751 898 r \$0-vol;
#X obj 18 14 s \$0-vol;
#X obj 21 -41 hsl 128 15 0 0.9 0 0 empty empty empty -2 -8 0 10 -262144
-1 -1 12700 1;
#X floatatom 18 -21 5 0 0 0 - - -;
#X obj 830 116 bng 15 250 50 0 empty empty empty 17 7 0 10 -262144
-1 -1;
#X floatatom 830 71 5 0 0 0 - - -;
#X obj 353 -92 inlet metro_clock;
#X obj 260 1 f 0;
#X obj 225 612 throw~ perc1;
#X obj 329 612 throw~ perc2;
#X obj 1043 14 inlet playbang;
#X obj 1043 38 s \$0-playbang;
#X obj 1033 135 tgl 15 0 empty empty empty 17 7 0 10 -262144 -1 -1
0 1;
#X obj 1067 103 r \$0-playbang;
#X obj 1067 175 s \$0-wantsToPlayFlag;
#X msg 1067 145 1;
#X obj 613 76 f 0;
#X obj 631 47 r \$0-wantsToPlayFlag;
#X obj 18 -92 loadbang;
#X msg 18 -68 0.9;
#X obj 626 983 outlet~ left;
#X obj 747 984 outlet~ right;
#X obj 859 863 catch~ perc1;
#X obj 963 863 catch~ perc2;
#X obj 866 931 *~;
#X obj 972 933 *~;
#X obj 1177 798 r \$0-vol;
#X floatatom 1177 892 5 0 0 0 - - -;
#X obj 1096 705 loadbang;
#X obj 1097 752 tgl 15 0 empty empty empty 17 7 0 10 -262144 -1 -1
1 1;
#X msg 1096 729 1;
#X obj 1129 903 f 0;
#X obj 1129 967 line;
#X floatatom 1129 991 5 0 0 0 - - -;
#X obj 1097 776 metro 4000;
#X obj 1139 861 bng 15 250 50 0 empty empty empty 17 7 0 10 -262144
-1 -1;
#X obj 1097 800 random 10;
#X obj 1097 824 moses 7;
#X msg 1094 920 0 2000;
#X obj 1097 848 bng 15 250 50 0 empty empty empty 17 7 0 10 -262144
-1 -1;
#X msg 1129 943 0 \, \$1 4000;
#X obj 507 767 throw~ main1;
#X obj 608 768 throw~ main2;
#X obj 457 804 catch~ main1;
#X obj 554 808 catch~ main2;
#X obj 471 863 *~;
#X obj 492 834 r \$0-vol;
#X obj 549 870 *~;
#X obj 570 841 r \$0-vol;
#X obj 477 896 lop~ 300;
#X obj 546 898 lop~ 300;
#X msg 839 475 1 1000;
#X obj 797 222 bng 15 250 50 0 empty empty empty 17 7 0 10 -262144
-1 -1;
#X obj 866 224 bng 15 250 50 0 empty empty empty 17 7 0 10 -262144
-1 -1;
#X connect 0 0 15 0;
#X connect 3 0 13 0;
#X connect 4 0 13 0;
#X connect 8 0 13 0;
#X connect 9 0 13 0;
#X connect 10 0 53 0;
#X connect 10 0 0 1;
#X connect 10 0 20 0;
#X connect 10 0 23 0;
#X connect 10 0 26 0;
#X connect 11 0 0 0;
#X connect 11 0 54 0;
#X connect 11 0 95 0;
#X connect 12 0 11 0;
#X connect 12 0 17 0;
#X connect 12 0 161 0;
#X connect 12 0 21 0;
#X connect 12 0 24 0;
#X connect 12 0 27 0;
#X connect 13 0 14 0;
#X connect 13 0 103 0;
#X connect 13 0 104 0;
#X connect 14 0 6 0;
#X connect 14 0 7 0;
#X connect 15 0 59 0;
#X connect 16 0 15 1;
#X connect 17 0 18 0;
#X connect 18 0 16 0;
#X connect 19 0 15 0;
#X connect 20 0 19 1;
#X connect 21 0 19 0;
#X connect 22 0 15 0;
#X connect 23 0 22 1;
#X connect 24 0 22 0;
#X connect 25 0 15 0;
#X connect 26 0 25 1;
#X connect 27 0 25 0;
#X connect 28 0 80 0;
#X connect 28 0 12 0;
#X connect 28 5 10 0;
#X connect 29 0 30 0;
#X connect 30 0 51 0;
#X connect 30 0 98 0;
#X connect 31 0 30 1;
#X connect 32 0 29 2;
#X connect 33 0 31 0;
#X connect 34 0 29 3;
#X connect 35 0 40 0;
#X connect 36 0 117 1;
#X connect 37 0 38 0;
#X connect 38 0 34 0;
#X connect 39 0 35 0;
#X connect 40 0 37 0;
#X connect 41 0 29 1;
#X connect 43 0 33 0;
#X connect 43 0 32 0;
#X connect 43 0 41 0;
#X connect 43 0 61 0;
#X connect 43 0 29 0;
#X connect 45 0 39 0;
#X connect 46 0 48 0;
#X connect 47 0 46 0;
#X connect 48 0 50 0;
#X connect 49 0 47 0;
#X connect 50 0 32 0;
#X connect 51 0 99 0;
#X connect 51 1 100 0;
#X connect 52 0 15 0;
#X connect 53 0 52 1;
#X connect 54 0 52 0;
#X connect 58 0 117 0;
#X connect 59 0 1 0;
#X connect 59 0 2 0;
#X connect 59 0 151 0;
#X connect 59 0 152 0;
#X connect 59 0 93 0;
#X connect 59 0 94 0;
#X connect 60 0 51 1;
#X connect 60 1 51 2;
#X connect 60 2 51 3;
#X connect 60 2 51 4;
#X connect 61 0 60 0;
#X connect 62 0 64 0;
#X connect 63 0 64 0;
#X connect 64 0 11 0;
#X connect 64 1 21 0;
#X connect 64 2 24 0;
#X connect 64 3 27 0;
#X connect 65 0 66 0;
#X connect 65 0 67 0;
#X connect 66 0 65 1;
#X connect 67 0 68 0;
#X connect 68 0 162 0;
#X connect 68 1 163 0;
#X connect 69 0 114 0;
#X connect 70 0 72 0;
#X connect 72 0 115 0;
#X connect 73 0 130 0;
#X connect 74 0 131 0;
#X connect 75 0 77 0;
#X connect 76 0 77 0;
#X connect 78 0 85 0;
#X connect 79 0 85 0;
#X connect 81 0 75 0;
#X connect 81 0 79 0;
#X connect 81 1 76 0;
#X connect 81 1 78 0;
#X connect 82 0 81 0;
#X connect 83 0 84 0;
#X connect 83 0 82 0;
#X connect 84 0 83 1;
#X connect 86 0 83 0;
#X connect 87 0 88 0;
#X connect 88 0 73 0;
#X connect 89 0 90 0;
#X connect 90 0 74 0;
#X connect 91 0 93 0;
#X connect 92 0 94 0;
#X connect 97 0 98 1;
#X connect 97 0 99 1;
#X connect 97 0 100 1;
#X connect 98 0 118 0;
#X connect 98 0 119 0;
#X connect 99 0 118 0;
#X connect 100 0 119 0;
#X connect 101 0 97 0;
#X connect 105 0 107 0;
#X connect 106 0 108 0;
#X connect 107 0 130 0;
#X connect 108 0 131 0;
#X connect 109 0 107 1;
#X connect 110 0 108 1;
#X connect 112 0 113 0;
#X connect 113 0 111 0;
#X connect 114 0 65 0;
#X connect 115 0 69 0;
#X connect 116 0 42 0;
#X connect 116 0 28 0;
#X connect 116 0 117 0;
#X connect 117 0 36 0;
#X connect 117 0 44 0;
#X connect 117 0 96 0;
#X connect 120 0 121 0;
#X connect 123 0 125 0;
#X connect 125 0 124 0;
#X connect 127 0 126 1;
#X connect 128 0 129 0;
#X connect 129 0 112 0;
#X connect 132 0 134 0;
#X connect 133 0 135 0;
#X connect 134 0 130 0;
#X connect 135 0 131 0;
#X connect 136 0 137 0;
#X connect 137 0 141 1;
#X connect 138 0 140 0;
#X connect 139 0 144 0;
#X connect 140 0 139 0;
#X connect 141 0 150 0;
#X connect 142 0 143 0;
#X connect 143 0 135 1;
#X connect 143 0 134 1;
#X connect 144 0 146 0;
#X connect 145 0 141 0;
#X connect 146 0 147 0;
#X connect 147 0 149 0;
#X connect 147 1 145 0;
#X connect 148 0 142 0;
#X connect 149 0 148 0;
#X connect 150 0 142 0;
#X connect 153 0 155 0;
#X connect 154 0 157 0;
#X connect 155 0 159 0;
#X connect 156 0 155 1;
#X connect 157 0 160 0;
#X connect 158 0 157 1;
#X connect 159 0 130 0;
#X connect 160 0 131 0;
#X connect 161 0 16 0;
#X connect 162 0 62 0;
#X connect 163 0 63 0;
