#N canvas 578 136 651 434 10;
#X obj 110 120 hsl 60 15 0 1 0 0 empty empty empty -2 -8 0 10 -262144
-1 -1 2700 1;
#X floatatom 142 139 5 0 0 0 - - -;
#X obj 62 142 - 1;
#X obj 61 164 * -1;
#X floatatom 107 139 5 0 0 0 - - -;
#X obj 147 35 inlet~;
#X obj 306 340 outlet~ dry;
#X obj 401 338 outlet~ wet;
#X obj 305 303 *~;
#X obj 405 303 *~;
#X text 107 155 dry;
#X text 143 155 wet;
#X obj 56 47 loadbang;
#X msg 56 68 0.5;
#X obj 228 38 inlet drywet;
#X connect 0 0 1 0;
#X connect 1 0 2 0;
#X connect 1 0 9 1;
#X connect 2 0 3 0;
#X connect 3 0 4 0;
#X connect 4 0 8 1;
#X connect 5 0 9 0;
#X connect 5 0 8 0;
#X connect 8 0 6 0;
#X connect 9 0 7 0;
#X connect 12 0 13 0;
#X connect 13 0 0 0;
#X connect 14 0 0 0;
#X coords 0 -1 1 1 85 70 1 100 100;
