#N canvas 206 92 1045 535 10;
#X obj 106 129 vsl 10 50 0 1 0 0 iurwyiurtyiuuyiyeedxxv mmnhjhjyuyutrtweiuiu
empty 0 -9 0 10 -133152 -1 -262144 4900 0;
#X obj 116 129 vsl 10 50 0 1 0 0 iurwyiurtyiuuyiyeedxxv mmnhjhjyuyutrtweiuiu
empty 0 -9 0 10 -137314 -1 -262144 4410 0;
#X obj 126 129 vsl 10 50 0 1 0 0 iurwyiurtyiuuyiyeedxxv mmnhjhjyuyutrtweiuiu
empty 0 -9 0 10 -149797 -1 -262144 3920 0;
#X obj 136 129 vsl 10 50 0 1 0 0 iurwyiurtyiuuyiyeedxxv mmnhjhjyuyutrtweiuiu
empty 0 -9 0 10 -153958 -1 -262144 4900 0;
#X obj 146 129 vsl 10 50 0 1 0 0 iurwyiurtyiuuyiyeedxxv mmnhjhjyuyutrtweiuiu
empty 0 -9 0 10 -170602 -1 -262144 4900 0;
#X obj 156 129 vsl 10 50 0 1 0 0 iurwyiurtyiuuyiyeedxxv mmnhjhjyuyutrtweiuiu
empty 0 -9 0 10 -174763 -1 -262144 4900 0;
#X obj 166 129 vsl 10 50 0 1 0 0 iurwyiurtyiuuyiyeedxxv mmnhjhjyuyutrtweiuiu
empty 0 -9 0 10 -183085 -1 -262144 4900 0;
#X obj 176 129 vsl 10 50 0 1 0 0 iurwyiurtyiuuyiyeedxxv mmnhjhjyuyutrtweiuiu
empty 0 -9 0 10 -195568 -1 -262144 9310 0;
#X obj 186 129 vsl 10 50 0 1 0 0 iurwyiurtyiuuyiyeedxxv mmnhjhjyuyutrtweiuiu
empty 0 -9 0 10 -203890 -1 -262144 7840 0;
#X obj 196 129 vsl 10 50 0 1 0 0 iurwyiurtyiuuyiyeedxxv mmnhjhjyuyutrtweiuiu
empty 0 -9 0 10 -216373 -1 -262144 6860 0;
#X obj 206 129 vsl 10 50 0 1 0 0 iurwyiurtyiuuyiyeedxxv mmnhjhjyuyutrtweiuiu
empty 0 -9 0 10 -237178 -1 -262144 9900 0;
#X obj 216 129 vsl 10 50 0 1 0 0 iurwyiurtyiuuyiyeedxxv mmnhjhjyuyutrtweiuiu
empty 0 -9 0 10 -257983 -1 -262144 9900 0;
#X obj 236 129 vsl 10 50 0 1 0 0 iurwyiurtyiuuyiyeedxxv mmnhjhjyuyutrtweiuiu
empty 0 -9 0 10 -260097 -1 -1 4900 1;
#X msg 146 22 0.5;
#X obj 226 129 vsl 10 50 0 1 0 0 iurwyiurtyiuuyiyeedxxv mmnhjhjyuyutrtweiuiu
empty 0 -9 0 10 -262144 -1 -262144 3920 0;
#N canvas 0 23 936 597 equalizer13bands---------------------- 0;
#X obj 48 82 inlet~;
#X obj 89 489 outlet~;
#X obj 82 170 para_bp2~ 20 0.2 0 10;
#X obj 81 191 para_bp2~ 150 0.4 0 10;
#X obj 81 212 para_bp2~ 300 0.5 0 10;
#X obj 80 233 para_bp2~ 600 1 0 10;
#X obj 81 255 para_bp2~ 1000 2 0 10;
#X obj 80 275 para_bp2~ 1500 2 0 10;
#X obj 80 296 para_bp2~ 2500 1.5 0 10;
#X obj 79 317 para_bp2~ 4000 1.5 0 10;
#X obj 732 299 inlet;
#X obj 91 458 *~ 1;
#X obj 161 19 inlet;
#X obj 200 19 inlet;
#X obj 236 19 inlet;
#X obj 275 19 inlet;
#X obj 312 18 inlet;
#X obj 351 18 inlet;
#X obj 387 18 inlet;
#X obj 426 18 inlet;
#X obj 464 18 inlet;
#X obj 503 18 inlet;
#X obj 539 18 inlet;
#X obj 161 42 expr if ($f1<0.5 \, ($f1-0.5)*80 \, ($f1-0.5)*20);
#X obj 177 64 expr if ($f1<0.5 \, ($f1-0.5)*80 \, ($f1-0.5)*20);
#X obj 196 85 expr if ($f1<0.5 \, ($f1-0.5)*80 \, ($f1-0.5)*20);
#X obj 212 107 expr if ($f1<0.5 \, ($f1-0.5)*80 \, ($f1-0.5)*20);
#X obj 230 128 expr if ($f1<0.5 \, ($f1-0.5)*80 \, ($f1-0.5)*20);
#X obj 246 150 expr if ($f1<0.5 \, ($f1-0.5)*80 \, ($f1-0.5)*20);
#X obj 265 171 expr if ($f1<0.5 \, ($f1-0.5)*80 \, ($f1-0.5)*20);
#X obj 281 193 expr if ($f1<0.5 \, ($f1-0.5)*80 \, ($f1-0.5)*20);
#X obj 291 214 expr if ($f1<0.5 \, ($f1-0.5)*80 \, ($f1-0.5)*20);
#X obj 310 235 expr if ($f1<0.5 \, ($f1-0.5)*80 \, ($f1-0.5)*20);
#X obj 326 257 expr if ($f1<0.5 \, ($f1-0.5)*80 \, ($f1-0.5)*20);
#X obj 734 330 * 2;
#X obj 735 355 expr pow($f1 \, 2);
#X obj 78 358 para_bp2~ 7000 1 0 10;
#X obj 79 338 para_bp2~ 5500 1.5 0 10;
#X obj 77 378 para_bp2~ 10000 0.5 0 10;
#X obj 83 146 hip~ 20;
#X obj 77 399 para_bp2~ 15000 0.5 0 10;
#X obj 338 280 expr if ($f1<0.5 \, ($f1-0.5)*80 \, ($f1-0.5)*20);
#X obj 580 18 inlet;
#X obj 344 305 expr if ($f1<0.5 \, ($f1-0.5)*80 \, ($f1-0.5)*20);
#X obj 617 18 inlet;
#X obj 78 419 para_bp2~ 20000 0.2 0 10;
#X connect 0 0 39 0;
#X connect 2 0 3 0;
#X connect 3 0 4 0;
#X connect 4 0 5 0;
#X connect 5 0 6 0;
#X connect 6 0 7 0;
#X connect 7 0 8 0;
#X connect 8 0 9 0;
#X connect 9 0 37 0;
#X connect 10 0 34 0;
#X connect 11 0 1 0;
#X connect 12 0 23 0;
#X connect 13 0 24 0;
#X connect 14 0 25 0;
#X connect 15 0 26 0;
#X connect 16 0 27 0;
#X connect 17 0 28 0;
#X connect 18 0 29 0;
#X connect 19 0 30 0;
#X connect 20 0 31 0;
#X connect 21 0 32 0;
#X connect 22 0 33 0;
#X connect 23 0 2 3;
#X connect 24 0 3 3;
#X connect 25 0 4 3;
#X connect 26 0 5 3;
#X connect 27 0 6 3;
#X connect 28 0 7 3;
#X connect 29 0 8 3;
#X connect 30 0 9 3;
#X connect 31 0 37 3;
#X connect 32 0 36 3;
#X connect 33 0 38 3;
#X connect 34 0 35 0;
#X connect 35 0 11 1;
#X connect 36 0 38 0;
#X connect 37 0 36 0;
#X connect 38 0 40 0;
#X connect 39 0 2 0;
#X connect 40 0 45 0;
#X connect 41 0 40 3;
#X connect 42 0 41 0;
#X connect 43 0 45 3;
#X connect 44 0 43 0;
#X connect 45 0 11 0;
#X restore 43 239 pd equalizer13bands----------------------;
#X obj 33 27 inlet~;
#X obj 41 265 outlet~;
#X obj 245 106 bng 15 250 50 0 empty empty empty 17 7 0 10 -262144
-1 -1;
#X obj 274 90 loadbang;
#X text 102 109 a b c d;
#X text 145 109 e f g h;
#X text 186 109 i j k;
#X text 216 108 l m n;
#X obj 253 28 inlet a;
#X obj 314 29 inlet b;
#X obj 369 30 inlet c;
#X obj 432 27 inlet d;
#X obj 493 31 inlet e;
#X obj 545 33 inlet f;
#X obj 610 36 inlet g;
#X obj 668 31 inlet h;
#X obj 727 39 inlet i;
#X obj 781 38 inlet j;
#X obj 845 35 inlet k;
#X obj 907 37 inlet l;
#X obj 966 36 inlet m;
#X connect 0 0 15 1;
#X connect 1 0 15 2;
#X connect 2 0 15 3;
#X connect 3 0 15 4;
#X connect 4 0 15 5;
#X connect 5 0 15 6;
#X connect 6 0 15 7;
#X connect 7 0 15 8;
#X connect 8 0 15 9;
#X connect 9 0 15 10;
#X connect 10 0 15 11;
#X connect 11 0 15 12;
#X connect 12 0 15 14;
#X connect 13 0 0 0;
#X connect 13 0 1 0;
#X connect 13 0 2 0;
#X connect 13 0 3 0;
#X connect 13 0 4 0;
#X connect 13 0 5 0;
#X connect 13 0 6 0;
#X connect 13 0 7 0;
#X connect 13 0 8 0;
#X connect 13 0 9 0;
#X connect 13 0 10 0;
#X connect 13 0 11 0;
#X connect 13 0 12 0;
#X connect 13 0 14 0;
#X connect 14 0 15 13;
#X connect 15 0 17 0;
#X connect 16 0 15 0;
#X connect 18 0 13 0;
#X connect 19 0 18 0;
#X connect 24 0 0 0;
#X connect 25 0 1 0;
#X connect 26 0 2 0;
#X connect 27 0 3 0;
#X connect 28 0 4 0;
#X connect 29 0 5 0;
#X connect 30 0 6 0;
#X connect 31 0 7 0;
#X connect 32 0 8 0;
#X connect 33 0 9 0;
#X connect 34 0 10 0;
#X connect 35 0 11 0;
#X connect 36 0 14 0;
#X coords 0 -1 1 1 160 90 1 100 100;
