#N canvas 0 50 674 1028 10;
#X obj 454 112 inlet listClearBang;
#X obj 307 105 inlet listToCheck;
#X obj 87 70 inlet triggerBang;
#X obj 107 611 list store;
#X msg 127 233 get 0 1;
#X obj 127 261 list store;
#X obj 454 137 s \$0-clearList;
#X obj 339 163 s \$0-setList;
#X obj 185 588 r \$0-clearList;
#X obj 174 562 r \$0-setList;
#X obj 205 237 r \$0-clearList;
#X obj 194 211 r \$0-setList;
#X obj 75 1001 f 0;
#X text 239 291 variable init;
#X obj 307 130 t l l;
#X obj 309 209 s \$0-listLen;
#X obj 125 337 r \$0-listLen;
#X obj 107 382 f 0;
#X obj 107 407 until;
#X obj 151 124 s \$0-resetCounter;
#X obj 125 405 r \$0-resetCounter;
#X obj 165 466 + 1;
#X obj 107 728 expr $f1 < $f2;
#X msg 107 555 get \$1 1;
#X obj 127 293 s \$0-minVal;
#X obj 202 700 r \$0-minVal;
#X msg 125 430 1;
#X obj 107 465 f 1;
#X text 258 313 pretend first element to be min val;
#X text 290 622 if 2nd \, 3rd \, 4th val are smaller \, they are minimum
;
#X obj 107 753 route 1;
#X obj 107 929 s \$0-minVal;
#X obj 107 636 t f f;
#X obj 107 886 f 0;
#X obj 170 877 print list(i);
#X obj 107 778 bng 15 250 50 0 empty empty empty 17 7 0 10 -262144
-1 -1;
#X obj 75 1048 outlet minIndex;
#X obj 308 187 list length;
#X obj 93 972 r \$0-minIndex;
#X obj 131 849 t f f f;
#X obj 87 95 t b b b b b;
#X msg 148 155 0;
#X obj 148 186 s \$0-minIndex;
#X obj 141 665 s \$0-list[i];
#X obj 131 824 r \$0-list[i];
#X obj 107 500 t f f f;
#X obj 148 524 s \$0-i;
#X obj 286 876 f 0;
#X obj 299 852 r \$0-i;
#X obj 286 932 s \$0-minIndex;
#X obj 107 798 t b b;
#X connect 0 0 6 0;
#X connect 1 0 14 0;
#X connect 2 0 40 0;
#X connect 3 0 32 0;
#X connect 4 0 5 0;
#X connect 5 0 24 0;
#X connect 8 0 3 1;
#X connect 9 0 3 1;
#X connect 10 0 5 1;
#X connect 11 0 5 1;
#X connect 12 0 36 0;
#X connect 14 0 37 0;
#X connect 14 1 7 0;
#X connect 16 0 17 1;
#X connect 17 0 18 0;
#X connect 18 0 27 0;
#X connect 20 0 26 0;
#X connect 21 0 27 1;
#X connect 22 0 30 0;
#X connect 23 0 3 0;
#X connect 25 0 22 1;
#X connect 26 0 27 1;
#X connect 27 0 45 0;
#X connect 30 0 35 0;
#X connect 32 0 22 0;
#X connect 32 1 43 0;
#X connect 33 0 31 0;
#X connect 35 0 50 0;
#X connect 37 0 15 0;
#X connect 38 0 12 1;
#X connect 39 0 33 1;
#X connect 40 0 12 0;
#X connect 40 1 17 0;
#X connect 40 2 4 0;
#X connect 40 3 41 0;
#X connect 40 4 19 0;
#X connect 41 0 42 0;
#X connect 44 0 39 0;
#X connect 45 0 23 0;
#X connect 45 1 21 0;
#X connect 45 2 46 0;
#X connect 47 0 49 0;
#X connect 48 0 47 1;
#X connect 50 0 33 0;
#X connect 50 1 47 0;
