#N canvas 200 50 774 724 12;
#X obj 100 200 pad 20 20 0 0 0;
#X obj 325 67 s \$0-init;
#X text 101 38 0..255;
#X msg 100 156 color \$1 \$1 \$1;
#X obj 100 245 route list;
#X obj 100 474 s \$1-mouse_trigger;
#X obj 100 357 sel 0, f 6;
#X msg 100 297 1 \, 0 2000;
#X obj 100 328 line 1 200;
#X msg 139 387 255;
#X msg 100 387 0;
#X obj 177 99 r \$0-init;
#X msg 177 126 0;
#X text 219 124 initialize to black in load;
#X obj 325 38 r \$3-workaround_loadbang;
#X obj 100 62 r \$1-\$2-dimval;
#X connect 0 0 4 0;
#X connect 3 0 0 0;
#X connect 4 0 7 0;
#X connect 6 0 10 0;
#X connect 6 1 9 0;
#X connect 7 0 8 0;
#X connect 8 0 6 0;
#X connect 9 0 5 0;
#X connect 10 0 5 0;
#X connect 11 0 12 0;
#X connect 12 0 3 0;
#X connect 14 0 1 0;
#X connect 15 0 3 0;
#X coords 0 -1 1 1 20 20 2 100 200;
