#N canvas 0 25 1280 591 12;
#X obj 50 40 inlet~ JMR_audioLeft;
#X obj 264 39 inlet~ JMR_audioRight;
#X obj 42 103 catch~ audioLeftButtonSet_\$1;
#X obj 264 103 catch~ audioRightButtonSet_\$1;
#X obj 495 43 inlet JMR_dry;
#X obj 495 67 s \$0-dry;
#X msg 128 303 0 \$1;
#X msg 559 290 2 \$1;
#X obj 128 275 r \$0-dry;
#X obj 559 263 r \$0-dry;
#X obj 1124 443 f 0;
#X obj 1142 419 r \$0-dry;
#X obj 1124 66 bng 15 250 50 0 empty empty empty 17 7 0 10 -262144
-1 -1;
#X obj 1124 467 s reverb_dry_rcv;
#X obj 615 43 inlet JMR_wet;
#X obj 615 67 s \$0-wet;
#X obj 202 275 r \$0-wet;
#X msg 202 303 1 \$1;
#X obj 628 263 r \$0-wet;
#X msg 628 291 3 \$1;
#X obj 1156 359 f 0;
#X text 1175 510 to main sliders;
#X obj 1174 330 r \$0-wet;
#X obj 1156 384 s reverb_wet_rcv;
#X obj 725 39 inlet JMR_time;
#X obj 725 68 s \$0-time;
#X obj 269 275 r \$0-time;
#X obj 694 263 r \$0-time;
#X msg 269 303 2 \$1;
#X msg 694 292 1 \$1;
#X obj 1213 256 r \$0-time;
#X obj 1195 281 f 0;
#X obj 1195 306 s reverb_time_rcv;
#X obj 845 46 inlet JMR_brightness;
#X obj 845 70 s \$0-brightness;
#X obj 770 263 r \$0-brightness;
#X msg 770 290 0 \$1;
#X obj 1224 177 r \$0-brightness;
#X obj 1206 200 f 0;
#X obj 1206 225 s reverb_brightness_rcv;
#X obj 1005 42 inlet JMR_gain;
#X obj 1005 70 s \$0-gain;
#X obj 1124 42 inlet JMR_visualupdate;
#X obj 347 275 r \$0-gain;
#X msg 347 305 3 \$1;
#X obj 1239 98 r \$0-gain;
#X obj 1221 120 f 0;
#X obj 1221 145 s reverb_gain_rcv;
#X obj 42 509 throw~ JMR_audioLeftButtonSet_\$1;
#X obj 384 515 throw~ JMR_audioRightButtonSet_\$1;
#X obj 473 350 st-pureverb;
#X obj 881 490 loadbang;
#X obj 881 514 f \$1;
#X obj 854 561 ==;
#X msg 801 513 1;
#X obj 42 351 st-FFTreverb;
#X connect 2 0 50 0;
#X connect 2 0 55 0;
#X connect 3 0 50 1;
#X connect 3 0 55 1;
#X connect 4 0 5 0;
#X connect 6 0 55 2;
#X connect 7 0 50 2;
#X connect 8 0 6 0;
#X connect 9 0 7 0;
#X connect 10 0 13 0;
#X connect 11 0 10 1;
#X connect 12 0 10 0;
#X connect 12 0 20 0;
#X connect 12 0 31 0;
#X connect 12 0 38 0;
#X connect 12 0 46 0;
#X connect 14 0 15 0;
#X connect 16 0 17 0;
#X connect 17 0 55 2;
#X connect 18 0 19 0;
#X connect 19 0 50 2;
#X connect 20 0 23 0;
#X connect 22 0 20 1;
#X connect 24 0 25 0;
#X connect 26 0 28 0;
#X connect 27 0 29 0;
#X connect 28 0 55 2;
#X connect 29 0 50 2;
#X connect 30 0 31 1;
#X connect 31 0 32 0;
#X connect 33 0 34 0;
#X connect 35 0 36 0;
#X connect 36 0 50 2;
#X connect 37 0 38 1;
#X connect 38 0 39 0;
#X connect 40 0 41 0;
#X connect 42 0 12 0;
#X connect 43 0 44 0;
#X connect 44 0 55 2;
#X connect 45 0 46 1;
#X connect 46 0 47 0;
#X connect 50 0 48 0;
#X connect 50 1 49 0;
#X connect 51 0 52 0;
#X connect 52 0 53 1;
#X connect 54 0 53 0;
#X connect 55 0 48 0;
#X connect 55 1 49 0;
