#N canvas 0 31 1280 591 12;
#X obj 39 55 inlet~ JMR_audioLeft;
#X obj 264 39 inlet~ JMR_audioRight;
#X obj 495 43 inlet JMR_dry;
#X obj 403 152 s \$0-dry;
#X msg 128 303 0 \$1;
#X msg 559 290 2 \$1;
#X obj 128 275 r \$0-dry;
#X obj 559 263 r \$0-dry;
#X obj 1124 443 f 0;
#X obj 1142 419 r \$0-dry;
#X obj 1124 66 bng 15 250 50 0 empty empty empty 17 7 0 10 -262144
-1 -1;
#X obj 1124 467 s reverb_dry_rcv;
#X obj 615 43 inlet JMR_wet;
#X obj 663 156 s \$0-wet;
#X obj 202 275 r \$0-wet;
#X msg 202 303 1 \$1;
#X obj 628 263 r \$0-wet;
#X msg 628 291 3 \$1;
#X obj 1156 359 f 0;
#X text 1175 510 to main sliders;
#X obj 1174 330 r \$0-wet;
#X obj 1156 384 s reverb_wet_rcv;
#X obj 725 39 inlet JMR_time;
#X obj 405 197 s \$0-time;
#X obj 269 275 r \$0-time;
#X obj 694 263 r \$0-time;
#X msg 269 303 2 \$1;
#X msg 694 292 1 \$1;
#X obj 1213 256 r \$0-time;
#X obj 1195 281 f 0;
#X obj 1195 306 s reverb_time_rcv;
#X obj 845 46 inlet JMR_brightness;
#X obj 845 70 s \$0-brightness;
#X obj 770 263 r \$0-brightness;
#X msg 770 290 0 \$1;
#X obj 1224 177 r \$0-brightness;
#X obj 1206 200 f 0;
#X obj 1206 225 s reverb_brightness_rcv;
#X obj 1005 42 inlet JMR_gain;
#X obj 664 200 s \$0-gain;
#X obj 1124 42 inlet JMR_visualupdate;
#X obj 347 275 r \$0-gain;
#X msg 347 305 3 \$1;
#X obj 1239 98 r \$0-gain;
#X obj 1221 120 f 0;
#X obj 1221 145 s reverb_gain_rcv;
#X obj 522 359 st-pureverb;
#X obj 881 490 loadbang;
#X obj 881 514 f \$1;
#X obj 854 561 ==;
#X msg 801 513 1;
#X obj 49 354 st-FFTreverb;
#X obj 139 548 outlet~ left;
#X obj 384 553 outlet~ right;
#X obj 483 134 hsl 80 15 0 1 0 0 empty empty empty -2 -8 0 10 -262144
-1 -1 1580 1;
#X floatatom 480 154 5 0 0 0 - - -;
#X obj 579 137 hsl 80 15 0 1 0 0 empty empty empty -2 -8 0 10 -262144
-1 -1 4740 1;
#X floatatom 576 157 5 0 0 0 - - -;
#X obj 484 179 hsl 80 15 0 1 0 0 empty empty empty -2 -8 0 10 -262144
-1 -1 1580 1;
#X floatatom 481 199 5 0 0 0 - - -;
#X obj 580 182 hsl 80 15 0 1 0 0 empty empty empty -2 -8 0 10 -262144
-1 -1 3160 1;
#X floatatom 577 202 5 0 0 0 - - -;
#X text 519 152 dry;
#X text 620 156 wet;
#X text 526 200 time;
#X text 621 202 gain;
#X obj 805 133 loadbang;
#X obj 805 157 bng 15 250 50 0 empty empty empty 17 7 0 10 -262144
-1 -1;
#X msg 804 189 0.3;
#X msg 844 192 0.6;
#X msg 886 191 0.6;
#X msg 940 191 0.49;
#X obj 994 226 s \$0-brightness;
#X msg 992 192 0.4;
#X connect 0 0 51 0;
#X connect 0 0 46 0;
#X connect 1 0 51 1;
#X connect 1 0 46 1;
#X connect 2 0 54 0;
#X connect 4 0 51 2;
#X connect 5 0 46 2;
#X connect 6 0 4 0;
#X connect 7 0 5 0;
#X connect 8 0 11 0;
#X connect 9 0 8 1;
#X connect 10 0 8 0;
#X connect 10 0 18 0;
#X connect 10 0 29 0;
#X connect 10 0 36 0;
#X connect 10 0 44 0;
#X connect 12 0 56 0;
#X connect 14 0 15 0;
#X connect 15 0 51 2;
#X connect 16 0 17 0;
#X connect 17 0 46 2;
#X connect 18 0 21 0;
#X connect 20 0 18 1;
#X connect 22 0 58 0;
#X connect 24 0 26 0;
#X connect 25 0 27 0;
#X connect 26 0 51 2;
#X connect 27 0 46 2;
#X connect 28 0 29 1;
#X connect 29 0 30 0;
#X connect 31 0 32 0;
#X connect 33 0 34 0;
#X connect 34 0 46 2;
#X connect 35 0 36 1;
#X connect 36 0 37 0;
#X connect 38 0 60 0;
#X connect 40 0 10 0;
#X connect 41 0 42 0;
#X connect 42 0 51 2;
#X connect 43 0 44 1;
#X connect 44 0 45 0;
#X connect 46 0 52 0;
#X connect 46 1 53 0;
#X connect 47 0 48 0;
#X connect 48 0 49 1;
#X connect 50 0 49 0;
#X connect 51 0 52 0;
#X connect 51 1 53 0;
#X connect 54 0 55 0;
#X connect 55 0 3 0;
#X connect 56 0 57 0;
#X connect 57 0 13 0;
#X connect 58 0 59 0;
#X connect 59 0 23 0;
#X connect 60 0 61 0;
#X connect 61 0 39 0;
#X connect 66 0 67 0;
#X connect 67 0 68 0;
#X connect 67 0 69 0;
#X connect 67 0 70 0;
#X connect 67 0 71 0;
#X connect 67 0 73 0;
#X connect 68 0 54 0;
#X connect 69 0 56 0;
#X connect 70 0 58 0;
#X connect 71 0 60 0;
#X connect 73 0 72 0;
#X coords 0 -1 1 1 200 120 1 470 110;
