#N canvas 584 177 1280 751 12;
#N canvas 0 23 938 656 rain 0;
#X obj 106 77 tgl 15 0 empty empty empty 17 7 0 10 -262144 -1 -1 1
1;
#X text 125 74 press here to start;
#X obj 108 22 loadbang;
#X msg 108 46 1;
#X obj 112 133 bng 15 250 50 0 empty empty empty 17 7 0 10 -262144
-1 -1;
#X obj 99 277 line;
#X obj 108 360 syn-rain;
#X obj 108 415 dac~;
#X msg 108 331 0 \$1;
#X obj 159 311 loadbang;
#X msg 159 335 0 0;
#X floatatom 99 301 5 0 0 0 - - -;
#X obj 112 154 tgl 15 0 empty empty empty 17 7 0 10 -262144 -1 -1 0
1;
#X obj 112 174 sel 0;
#X obj 112 225 bng 15 250 50 0 empty empty empty 17 7 0 10 -262144
-1 -1;
#X obj 171 223 bng 15 250 50 0 empty empty empty 17 7 0 10 -262144
-1 -1;
#X obj 112 109 metro 30000;
#X msg 99 251 0.3 10000;
#X msg 171 250 0.6 20000;
#X obj 221 432 throw~ rain;
#X connect 0 0 16 0;
#X connect 2 0 3 0;
#X connect 3 0 0 0;
#X connect 4 0 12 0;
#X connect 5 0 11 0;
#X connect 6 0 7 0;
#X connect 6 0 7 1;
#X connect 6 0 19 0;
#X connect 8 0 6 0;
#X connect 9 0 10 0;
#X connect 10 0 6 0;
#X connect 11 0 8 0;
#X connect 12 0 13 0;
#X connect 13 0 14 0;
#X connect 13 1 15 0;
#X connect 14 0 17 0;
#X connect 15 0 18 0;
#X connect 16 0 4 0;
#X connect 17 0 5 0;
#X connect 18 0 5 0;
#X restore 826 2 pd rain;
#N canvas 768 261 963 662 alleine_random 0;
#X obj 59 87 metro 30000;
#X obj 267 -48 loadbang;
#X msg 267 -24 1;
#X obj 267 6 tgl 15 0 empty empty empty 17 7 0 10 -262144 -1 -1 1 1
;
#X obj 105 655 s MAIN_RND_0;
#X obj 56 148 random 5;
#X obj 39 211 sel 0 1 2 3 4;
#X obj 105 401 bng 15 250 50 0 empty empty empty 17 7 0 10 -262144
-1 -1;
#X obj 127 402 bng 15 250 50 0 empty empty empty 17 7 0 10 -262144
-1 -1;
#X obj 127 682 s MAIN_RND_1;
#X obj 152 401 bng 15 250 50 0 empty empty empty 17 7 0 10 -262144
-1 -1;
#X obj 151 719 s MAIN_RND_2;
#X obj 175 401 bng 15 250 50 0 empty empty empty 17 7 0 10 -262144
-1 -1;
#X obj 198 402 bng 15 250 50 0 empty empty empty 17 7 0 10 -262144
-1 -1;
#X obj 175 753 s MAIN_RND_3;
#X obj 197 790 s MAIN_RND_4;
#X floatatom 56 172 5 0 0 0 - - -;
#X obj 226 402 bng 15 250 50 0 empty empty empty 17 7 0 10 -262144
-1 -1;
#X obj 271 229 bng 15 250 50 0 empty empty empty 17 7 0 10 -262144
-1 -1;
#X floatatom 222 174 5 0 0 0 - - -;
#X obj 214 221 bng 15 250 50 0 empty empty empty 17 7 0 10 -262144
-1 -1;
#X obj 222 150 random 100;
#X text 239 400 rare;
#X obj 226 943 s MAIN_RND_RARE;
#X text 294 230 selten;
#X obj 222 194 moses 80;
#X obj 377 96 metro 40000;
#X obj 56 122 bng 15 250 50 0 empty empty empty 17 7 0 10 -262144 -1
-1;
#X obj 377 120 bng 15 250 50 0 empty empty empty 17 7 0 10 -262144
-1 -1;
#X floatatom 377 169 5 0 0 0 - - -;
#X obj 377 232 bng 15 250 50 0 empty empty empty 17 7 0 10 -262144
-1 -1;
#X obj 396 233 bng 15 250 50 0 empty empty empty 17 7 0 10 -262144
-1 -1;
#N canvas 0 23 450 300 sweep_1 0;
#X obj 82 115 sel 1;
#X msg 82 167 \$1 20000;
#X obj 82 245 outlet sweebnum;
#X obj 82 44 inlet 1or0;
#X obj 82 194 line 0.4;
#X msg 82 139 0.4;
#X msg 131 138 0.8;
#X obj 191 117 sel 1;
#X msg 191 169 \$1 20000;
#X obj 204 243 outlet sweebnum_gegenlaeufig;
#X obj 191 196 line 0.8;
#X msg 191 141 0.8;
#X msg 240 140 0.4;
#X connect 0 0 5 0;
#X connect 0 1 6 0;
#X connect 1 0 4 0;
#X connect 3 0 0 0;
#X connect 3 0 7 0;
#X connect 4 0 2 0;
#X connect 5 0 1 0;
#X connect 6 0 1 0;
#X connect 7 0 11 0;
#X connect 7 1 12 0;
#X connect 8 0 10 0;
#X connect 10 0 9 0;
#X connect 11 0 8 0;
#X connect 12 0 8 0;
#X restore 560 356 pd sweep_1;
#X obj 370 667 s MAIN_SWEEP_0_a;
#X obj 378 690 s MAIN_SWEEP_0_b;
#X obj 393 401 cnv 15 130 100 empty empty empty 20 12 0 14 -233017
-66577 0;
#X floatatom 410 454 5 0 0 0 - - -;
#X obj 413 430 hsl 40 15 0 1 0 0 empty empty empty -2 -8 0 10 -261234
-1 -1 2340 1;
#N canvas 0 23 450 300 sweep_0 0;
#X obj 82 115 sel 1;
#X msg 82 167 \$1 20000;
#X obj 82 194 line 0.2;
#X msg 82 139 0.2;
#X msg 131 138 0.6;
#X obj 82 245 outlet sweebnum;
#X obj 82 44 inlet 1or0;
#X obj 204 249 outlet sweebnum_gegenlaeufig;
#X obj 206 113 sel 1;
#X msg 206 140 0.6;
#X msg 255 136 0.2;
#X msg 207 171 \$1 20000;
#X obj 207 198 line 0.6;
#X connect 0 0 3 0;
#X connect 0 1 4 0;
#X connect 1 0 2 0;
#X connect 2 0 5 0;
#X connect 3 0 1 0;
#X connect 4 0 1 0;
#X connect 6 0 0 0;
#X connect 6 0 8 0;
#X connect 8 0 9 0;
#X connect 8 1 10 0;
#X connect 9 0 11 0;
#X connect 10 0 11 0;
#X connect 11 0 12 0;
#X connect 12 0 7 0;
#X restore 428 357 pd sweep_0;
#X floatatom 462 455 5 0 0 0 - - -;
#X obj 465 431 hsl 40 15 0 1 0 0 empty empty empty -2 -8 0 10 -261234
-1 -1 780 1;
#X obj 409 406 tgl 15 0 empty empty empty 17 7 0 10 -262144 -1 -1 0
1;
#X text 407 474 sweep0: 0.2-0.6;
#X obj 500 670 s MAIN_SWEEP_1_a;
#X obj 511 694 s MAIN_SWEEP_1_b;
#X obj 535 402 cnv 15 130 100 empty empty empty 20 12 0 14 -204786
-66577 0;
#X floatatom 544 454 5 0 0 0 - - -;
#X obj 547 432 hsl 40 15 0 1 0 0 empty empty empty -2 -8 0 10 -261234
-1 -1 1560 1;
#X floatatom 598 457 5 0 0 0 - - -;
#X obj 601 433 hsl 40 15 0 1 0 0 empty empty empty -2 -8 0 10 -261234
-1 -1 3120 1;
#X text 542 474 sweep1: 0.4-0.8;
#X obj 544 409 tgl 15 0 empty empty empty 17 7 0 10 -262144 -1 -1 1
1;
#X obj 377 141 random 2;
#X obj 377 198 sel 0 1;
#X obj 512 97 metro 60000;
#X obj 512 121 bng 15 250 50 0 empty empty empty 17 7 0 10 -262144
-1 -1;
#X obj 512 148 random 100;
#X floatatom 512 172 5 0 0 0 - - -;
#X obj 512 195 moses 80;
#X obj 512 219 bng 15 250 50 0 empty empty empty 17 7 0 10 -262144
-1 -1;
#X obj 564 220 bng 15 250 50 0 empty empty empty 17 7 0 10 -262144
-1 -1;
#X text 590 218 selten2;
#X obj 281 401 bng 15 250 50 0 empty empty empty 17 7 0 10 -262144
-1 -1;
#X text 296 397 rare2;
#X obj 286 983 s MAIN_RND_RARE2;
#X obj 396 504 cnv 15 130 100 empty empty empty 20 12 0 14 -4032 -66577
0;
#X floatatom 405 556 5 0 0 0 - - -;
#X obj 408 534 hsl 40 15 0 1 0 0 empty empty empty -2 -8 0 10 -261234
-1 -1 3900 1;
#X floatatom 459 559 5 0 0 0 - - -;
#X obj 462 535 hsl 40 15 0 1 0 0 empty empty empty -2 -8 0 10 -261234
-1 -1 0 1;
#X obj 405 511 tgl 15 0 empty empty empty 17 7 0 10 -262144 -1 -1 0
1;
#N canvas 0 23 450 300 sweep_2 0;
#X obj 82 115 sel 1;
#X obj 82 245 outlet sweebnum;
#X obj 82 44 inlet 1or0;
#X obj 191 117 sel 1;
#X obj 204 243 outlet sweebnum_gegenlaeufig;
#X msg 82 139 0;
#X msg 131 138 1;
#X msg 191 141 1;
#X msg 240 140 0;
#X obj 82 194 line 0;
#X obj 191 196 line 1;
#X msg 191 169 \$1 5000;
#X msg 82 167 \$1 5000;
#X connect 0 0 5 0;
#X connect 0 1 6 0;
#X connect 2 0 0 0;
#X connect 2 0 3 0;
#X connect 3 0 7 0;
#X connect 3 1 8 0;
#X connect 5 0 12 0;
#X connect 6 0 12 0;
#X connect 7 0 11 0;
#X connect 8 0 11 0;
#X connect 9 0 1 0;
#X connect 10 0 4 0;
#X connect 11 0 10 0;
#X connect 12 0 9 0;
#X restore 311 508 pd sweep_2;
#X obj 640 669 s MAIN_SWEEP_2_a;
#X obj 651 693 s MAIN_SWEEP_2_b;
#X obj 707 117 bng 15 250 50 0 empty empty empty 17 7 0 10 -262144
-1 -1;
#X obj 114 459 bng 15 250 50 0 empty empty empty 17 7 0 10 -262144
-1 -1;
#X obj 125 272 sel 0 1 2 3 4;
#X obj 239 820 s MAIN_RND_5;
#X obj 134 459 bng 15 250 50 0 empty empty empty 17 7 0 10 -262144
-1 -1;
#X obj 162 459 bng 15 250 50 0 empty empty empty 17 7 0 10 -262144
-1 -1;
#X obj 182 459 bng 15 250 50 0 empty empty empty 17 7 0 10 -262144
-1 -1;
#X obj 202 459 bng 15 250 50 0 empty empty empty 17 7 0 10 -262144
-1 -1;
#X obj 269 850 s MAIN_RND_6;
#X obj 309 890 s MAIN_RND_7;
#X obj 369 920 s MAIN_RND_8;
#X obj 389 950 s MAIN_RND_9;
#X text 106 424 0;
#X text 123 423 1;
#X text 153 425 2;
#X text 175 424 3;
#X text 202 425 4;
#X text 112 479 5;
#X text 135 477 6;
#X text 160 482 7;
#X text 181 482 8;
#X text 206 483 9;
#X obj 157 161 random 5;
#X floatatom 157 185 5 0 0 0 - - -;
#X obj 164 81 metro 21000;
#X obj 164 105 bng 15 250 50 0 empty empty empty 17 7 0 10 -262144
-1 -1;
#X obj 546 504 cnv 15 130 100 empty empty empty 20 12 0 14 -260097
-66577 0;
#X floatatom 555 556 5 0 0 0 - - -;
#X obj 558 534 hsl 40 15 0 1 0 0 empty empty empty -2 -8 0 10 -261234
-1 -1 780 1;
#X floatatom 609 559 5 0 0 0 - - -;
#X obj 612 535 hsl 40 15 0 1 0 0 empty empty empty -2 -8 0 10 -261234
-1 -1 3861 1;
#X obj 555 511 tgl 15 0 empty empty empty 17 7 0 10 -262144 -1 -1 1
1;
#N canvas 0 23 450 300 sweep_3 0;
#X obj 82 115 sel 1;
#X obj 82 245 outlet sweebnum;
#X obj 82 44 inlet 1or0;
#X obj 191 117 sel 1;
#X obj 204 243 outlet sweebnum_gegenlaeufig;
#X msg 131 138 0.99;
#X msg 191 141 0.99;
#X obj 191 196 line 0.99;
#X msg 191 169 \$1 3000;
#X msg 82 167 \$1 3000;
#X obj 82 194 line 0.2;
#X msg 82 139 0.2;
#X msg 240 140 0.2;
#X connect 0 0 11 0;
#X connect 0 1 5 0;
#X connect 2 0 0 0;
#X connect 2 0 3 0;
#X connect 3 0 6 0;
#X connect 3 1 12 0;
#X connect 5 0 9 0;
#X connect 6 0 8 0;
#X connect 7 0 4 0;
#X connect 8 0 7 0;
#X connect 9 0 10 0;
#X connect 10 0 1 0;
#X connect 11 0 9 0;
#X connect 12 0 8 0;
#X restore 740 507 pd sweep_3;
#X obj 800 669 s MAIN_SWEEP_3_a;
#X obj 811 693 s MAIN_SWEEP_3_b;
#X obj 739 453 r trigger_sweep3;
#X obj 739 477 bng 15 250 50 0 empty empty empty 17 7 0 10 -262144
-1 -1;
#X text 553 576 sweep3: 0.2-0.99;
#X obj 272 80 metro 52000;
#X obj 272 104 bng 15 250 50 0 empty empty empty 17 7 0 10 -262144
-1 -1;
#X obj 254 268 random 5;
#X obj 228 297 sel 0 1 2 3 4;
#X obj 118 524 bng 15 250 50 0 empty empty empty 17 7 0 10 -262144
-1 -1;
#X obj 139 522 bng 15 250 50 0 empty empty empty 17 7 0 10 -262144
-1 -1;
#X obj 166 524 bng 15 250 50 0 empty empty empty 17 7 0 10 -262144
-1 -1;
#X obj 186 524 bng 15 250 50 0 empty empty empty 17 7 0 10 -262144
-1 -1;
#X obj 206 524 bng 15 250 50 0 empty empty empty 17 7 0 10 -262144
-1 -1;
#X text 116 544 10;
#X text 139 542 11;
#X text 164 547 12;
#X text 185 547 13;
#X text 210 548 14;
#X obj 396 766 s MAIN_RND_10;
#X obj 426 796 s MAIN_RND_11;
#X obj 466 836 s MAIN_RND_12;
#X obj 526 866 s MAIN_RND_13;
#X obj 546 896 s MAIN_RND_14;
#X text 403 576 sweep2: 0-1;
#X obj 707 93 metro 10000;
#X obj 851 97 metro 44000;
#X obj 851 121 bng 15 250 50 0 empty empty empty 17 7 0 10 -262144
-1 -1;
#X obj 688 405 bng 30 250 50 0 turnoffbang_0 empty empty 17 7 0 10
-204800 -1 -1;
#X text 682 384 turn off;
#X text 725 411 0;
#X connect 0 0 27 0;
#X connect 1 0 2 0;
#X connect 2 0 3 0;
#X connect 3 0 0 0;
#X connect 3 0 26 0;
#X connect 3 0 54 0;
#X connect 3 0 98 0;
#X connect 3 0 112 0;
#X connect 3 0 132 0;
#X connect 3 0 133 0;
#X connect 5 0 16 0;
#X connect 6 0 7 0;
#X connect 6 1 8 0;
#X connect 6 2 10 0;
#X connect 6 3 12 0;
#X connect 6 4 13 0;
#X connect 7 0 4 0;
#X connect 8 0 9 0;
#X connect 10 0 11 0;
#X connect 12 0 14 0;
#X connect 13 0 15 0;
#X connect 16 0 6 0;
#X connect 17 0 23 0;
#X connect 18 0 17 0;
#X connect 19 0 25 0;
#X connect 21 0 19 0;
#X connect 25 0 20 0;
#X connect 25 1 18 0;
#X connect 26 0 28 0;
#X connect 27 0 5 0;
#X connect 27 0 21 0;
#X connect 28 0 52 0;
#X connect 29 0 53 0;
#X connect 30 0 41 0;
#X connect 31 0 51 0;
#X connect 32 0 47 0;
#X connect 32 1 49 0;
#X connect 36 0 33 0;
#X connect 37 0 36 0;
#X connect 38 0 37 0;
#X connect 38 1 40 0;
#X connect 39 0 34 0;
#X connect 40 0 39 0;
#X connect 41 0 38 0;
#X connect 46 0 43 0;
#X connect 47 0 46 0;
#X connect 48 0 44 0;
#X connect 49 0 48 0;
#X connect 51 0 32 0;
#X connect 52 0 29 0;
#X connect 53 0 30 0;
#X connect 53 1 31 0;
#X connect 54 0 55 0;
#X connect 55 0 56 0;
#X connect 56 0 57 0;
#X connect 57 0 58 0;
#X connect 58 0 59 0;
#X connect 58 1 60 0;
#X connect 60 0 62 0;
#X connect 62 0 64 0;
#X connect 66 0 72 0;
#X connect 67 0 66 0;
#X connect 68 0 73 0;
#X connect 69 0 68 0;
#X connect 70 0 71 0;
#X connect 71 0 67 0;
#X connect 71 1 69 0;
#X connect 74 0 70 0;
#X connect 75 0 77 0;
#X connect 76 0 75 0;
#X connect 76 1 78 0;
#X connect 76 2 79 0;
#X connect 76 3 80 0;
#X connect 76 4 81 0;
#X connect 78 0 82 0;
#X connect 79 0 83 0;
#X connect 80 0 84 0;
#X connect 81 0 85 0;
#X connect 96 0 97 0;
#X connect 97 0 76 0;
#X connect 98 0 99 0;
#X connect 99 0 96 0;
#X connect 101 0 107 0;
#X connect 102 0 101 0;
#X connect 103 0 108 0;
#X connect 104 0 103 0;
#X connect 105 0 106 0;
#X connect 106 0 102 0;
#X connect 106 1 104 0;
#X connect 109 0 110 0;
#X connect 110 0 105 0;
#X connect 112 0 113 0;
#X connect 113 0 114 0;
#X connect 114 0 115 0;
#X connect 115 0 116 0;
#X connect 115 1 117 0;
#X connect 115 2 118 0;
#X connect 115 3 119 0;
#X connect 115 4 120 0;
#X connect 116 0 126 0;
#X connect 117 0 127 0;
#X connect 118 0 128 0;
#X connect 119 0 129 0;
#X connect 120 0 130 0;
#X connect 132 0 74 0;
#X connect 133 0 134 0;
#X connect 134 0 135 0;
#X coords 0 -1 1 1 700 230 1 100 380;
#X restore 17 -125 pd alleine_random;
#N canvas 0 23 873 674 dreamiteration 0;
#X obj 101 87 bng 15 250 50 0 empty empty empty 17 7 0 10 -262144 -1
-1;
#X obj 45 314 osc~;
#X msg 100 165 60;
#X obj 45 256 mtof;
#X obj 45 284 * 1;
#X obj 68 428 *~;
#X obj 147 484 vline~;
#X obj 210 428 delay 1000;
#X msg 209 458 0 2000;
#X msg 147 429 1 1000;
#X obj 68 499 dac~;
#X obj 45 343 *~ 0.3;
#X obj 68 475 *~ 0.2;
#X obj 263 336 osc~;
#X obj 263 278 mtof;
#X obj 263 365 *~ 0.3;
#X obj 384 338 osc~;
#X obj 384 273 mtof;
#X obj 384 366 *~ 0.3;
#X obj 556 338 osc~;
#X obj 556 280 mtof;
#X obj 556 367 *~ 0.3;
#X obj 678 342 osc~;
#X obj 678 284 mtof;
#X obj 678 371 *~ 0.3;
#X obj 77 283 random 360;
#X obj 301 299 random 360;
#X obj 421 301 random 360;
#X obj 599 312 random 360;
#X obj 718 285 random 360;
#X obj 88 232 random 5;
#X floatatom 88 256 5 0 0 0 - - -;
#X obj 263 306 *;
#X obj 279 201 random 5;
#X floatatom 279 225 5 0 0 0 - - -;
#X obj 393 174 random 5;
#X floatatom 393 198 5 0 0 0 - - -;
#X obj 384 308 *;
#X obj 558 178 random 5;
#X floatatom 558 202 5 0 0 0 - - -;
#X obj 556 308 *;
#X obj 674 187 random 5;
#X floatatom 674 211 5 0 0 0 - - -;
#X obj 678 312 *;
#X obj 101 123 t b b b;
#X connect 0 0 44 0;
#X connect 1 0 11 0;
#X connect 2 0 14 0;
#X connect 2 0 17 0;
#X connect 2 0 20 0;
#X connect 2 0 23 0;
#X connect 2 0 3 0;
#X connect 3 0 4 0;
#X connect 4 0 1 0;
#X connect 5 0 12 0;
#X connect 6 0 5 1;
#X connect 7 0 8 0;
#X connect 8 0 6 0;
#X connect 9 0 6 0;
#X connect 11 0 5 0;
#X connect 12 0 10 0;
#X connect 12 0 10 1;
#X connect 13 0 15 0;
#X connect 14 0 32 0;
#X connect 15 0 5 0;
#X connect 16 0 18 0;
#X connect 17 0 37 0;
#X connect 18 0 5 0;
#X connect 19 0 21 0;
#X connect 20 0 40 0;
#X connect 21 0 5 0;
#X connect 22 0 24 0;
#X connect 23 0 43 0;
#X connect 24 0 5 0;
#X connect 25 0 1 1;
#X connect 26 0 13 1;
#X connect 27 0 16 1;
#X connect 28 0 19 1;
#X connect 29 0 22 1;
#X connect 30 0 31 0;
#X connect 31 0 4 1;
#X connect 32 0 13 0;
#X connect 33 0 34 0;
#X connect 34 0 32 1;
#X connect 35 0 36 0;
#X connect 36 0 37 1;
#X connect 37 0 16 0;
#X connect 38 0 39 0;
#X connect 39 0 40 1;
#X connect 40 0 19 0;
#X connect 41 0 42 0;
#X connect 42 0 43 1;
#X connect 43 0 22 0;
#X connect 44 0 2 0;
#X connect 44 0 9 0;
#X connect 44 0 7 0;
#X connect 44 1 30 0;
#X connect 44 1 33 0;
#X connect 44 1 35 0;
#X connect 44 1 38 0;
#X connect 44 1 41 0;
#X connect 44 2 25 0;
#X connect 44 2 26 0;
#X connect 44 2 28 0;
#X connect 44 2 29 0;
#X connect 44 2 27 0;
#X restore 759 43 pd dreamiteration nacbau;
#N canvas 0 23 932 554 metrono 0;
#X obj 311 109 tgl 15 0 empty empty empty 17 7 0 10 -262144 -1 -1 1
1;
#X text 157 110 press here to start;
#X obj 118 170 bng 15 250 50 0 empty empty empty 17 7 0 10 -262144
-1 -1;
#X obj 383 2 loadbang;
#X msg 383 26 1;
#X obj 105 486 s \$0-temp16tel;
#X obj 117 71 metro 250;
#X obj 181 47 metro 500;
#X obj 183 173 bng 15 250 50 0 empty empty empty 17 7 0 10 -262144
-1 -1;
#X obj 148 462 s \$0-tempachtel;
#X obj 238 174 bng 15 250 50 0 empty empty empty 17 7 0 10 -262144
-1 -1;
#X obj 237 16 metro 1000;
#X obj 228 442 s \$0-tempviertel;
#X obj 543 302 metro;
#X text 631 132 achtelmsec;
#X floatatom 624 214 5 0 0 0 - - -;
#X obj 592 246 -;
#X floatatom 592 276 5 0 0 0 - - -;
#X msg 594 130 500;
#X obj 279 175 bng 15 250 50 0 empty empty empty 17 7 0 10 -262144
-1 -1;
#X obj 592 159 t f f;
#X obj 541 87 t f b;
#X floatatom 541 111 5 0 0 0 - - -;
#X obj 291 412 s \$0-tempzwischen;
#X obj 624 185 / 5;
#X obj 672 368 s tempzwischen_msec;
#X obj 524 377 metro;
#X floatatom 594 362 5 0 0 0 - - -;
#X obj 331 173 bng 15 250 50 0 empty empty empty 17 7 0 10 -262144
-1 -1;
#X obj 310 379 s \$0-tempzwischenmal2;
#X obj 594 338 / 2;
#X obj 623 405 s tempzwischenmal2_msec;
#X connect 0 0 6 0;
#X connect 0 0 7 0;
#X connect 0 0 11 0;
#X connect 0 0 21 0;
#X connect 2 0 5 0;
#X connect 3 0 4 0;
#X connect 4 0 0 0;
#X connect 6 0 2 0;
#X connect 7 0 8 0;
#X connect 8 0 9 0;
#X connect 10 0 12 0;
#X connect 11 0 10 0;
#X connect 13 0 19 0;
#X connect 15 0 16 1;
#X connect 16 0 17 0;
#X connect 17 0 13 1;
#X connect 17 0 25 0;
#X connect 17 0 30 0;
#X connect 18 0 20 0;
#X connect 19 0 23 0;
#X connect 20 0 16 0;
#X connect 20 1 24 0;
#X connect 21 0 22 0;
#X connect 21 1 18 0;
#X connect 22 0 13 0;
#X connect 22 0 26 0;
#X connect 24 0 15 0;
#X connect 26 0 28 0;
#X connect 27 0 26 1;
#X connect 27 0 31 0;
#X connect 28 0 29 0;
#X connect 30 0 27 0;
#X coords 0 -1 1 1 250 100 1 100 100;
#X restore 748 -122 pd metrono;
#N canvas 24 129 1280 751 sensors 1;
#X obj 184 405 r \$0-temp16tel;
#X obj 111 126 bng 15 250 50 0 empty empty empty 17 7 0 10 -262144
-1 -1;
#X obj 184 466 spigot 0;
#X msg 237 434 1;
#X obj 184 434 bng 15 250 50 0 empty empty empty 17 7 0 10 -262144
-1 -1;
#X obj 184 490 t b b;
#X msg 216 519 0;
#X obj 180 125 bng 15 250 50 0 empty empty empty 17 7 0 10 -262144
-1 -1;
#X obj 307 480 spigot 0;
#X msg 360 444 1;
#X obj 306 505 t b b;
#X msg 339 533 0;
#X obj 264 127 bng 15 250 50 0 empty empty empty 17 7 0 10 -262144
-1 -1;
#X obj 346 125 bng 15 250 50 0 empty empty empty 17 7 0 10 -262144
-1 -1;
#X obj 428 126 bng 15 250 50 0 empty empty empty 17 7 0 10 -262144
-1 -1;
#X obj 499 128 bng 15 250 50 0 empty empty empty 17 7 0 10 -262144
-1 -1;
#X text 127 123 lamp1;
#X text 199 125 lamp2;
#X obj 307 404 r \$0-temp16tel;
#X obj 307 433 bng 15 250 50 0 empty empty empty 17 7 0 10 -262144
-1 -1;
#X text 283 124 lamp3;
#X text 448 127 lamp5;
#X text 365 125 lamp4;
#X text 522 128 lamp6;
#X obj 427 485 spigot 0;
#X msg 480 449 1;
#X obj 426 510 t b b;
#X msg 459 536 0;
#X obj 427 409 r \$0-temp16tel;
#X obj 427 438 bng 15 250 50 0 empty empty empty 17 7 0 10 -262144
-1 -1;
#X obj 544 483 spigot 0;
#X msg 597 447 1;
#X obj 543 508 t b b;
#X msg 576 536 0;
#X obj 544 407 r \$0-temp16tel;
#X obj 544 436 bng 15 250 50 0 empty empty empty 17 7 0 10 -262144
-1 -1;
#X obj 657 484 spigot 0;
#X msg 710 448 1;
#X obj 656 509 t b b;
#X msg 689 537 0;
#X obj 657 408 r \$0-temp16tel;
#X obj 657 437 bng 15 250 50 0 empty empty empty 17 7 0 10 -262144
-1 -1;
#X obj 770 488 spigot 0;
#X msg 823 452 1;
#X obj 769 513 t b b;
#X msg 802 539 0;
#X obj 770 412 r \$0-temp16tel;
#X obj 770 441 bng 15 250 50 0 empty empty empty 17 7 0 10 -262144
-1 -1;
#X obj 790 601 random 100;
#X obj 499 152 bng 15 250 50 0 empty empty empty 17 7 0 10 -258113
-1 -1;
#X obj 657 580 random 100;
#X obj 112 313 s rare_Lamp1;
#X obj 186 301 s rare_Lamp2;
#X obj 273 336 s rare_Lamp3;
#X obj 351 314 s rare_Lamp4;
#X obj 434 292 s rare_Lamp5;
#X obj 499 273 s rare_Lamp6;
#X obj 543 579 random 100;
#X obj 425 589 random 100;
#X obj 304 554 random 100;
#X obj 304 578 moses 95;
#X obj 177 576 random 100;
#X obj 177 600 moses 95;
#X obj 428 156 bng 15 250 50 0 empty empty empty 17 7 0 10 -258113
-1 -1;
#X obj 347 148 bng 15 250 50 0 empty empty empty 17 7 0 10 -258113
-1 -1;
#X obj 267 155 bng 15 250 50 0 empty empty empty 17 7 0 10 -258113
-1 -1;
#X obj 182 153 bng 15 250 50 0 empty empty empty 17 7 0 10 -258113
-1 -1;
#X obj 112 159 bng 15 250 50 0 empty empty empty 17 7 0 10 -258113
-1 -1;
#X text 523 151 rare;
#X text 447 149 rare;
#X text 368 148 rare;
#X text 290 151 rare;
#X text 201 150 rare;
#X text 131 156 rare;
#X obj 176 691 s lamp1_0;
#X obj 300 695 s lamp2_0;
#X obj 424 697 s lamp3_0;
#X obj 538 703 s lamp4_0;
#X obj 657 703 s lamp5_0;
#X obj 770 700 s lamp6_0;
#X obj 110 35 inlet l1;
#X obj 194 36 inlet l2;
#X obj 272 34 inlet l3;
#X obj 355 34 inlet l4;
#X obj 435 35 inlet l5;
#X obj 513 32 inlet l6;
#X obj 425 613 moses 90;
#X obj 543 603 moses 90;
#X obj 657 604 moses 90;
#X obj 790 625 moses 90;
#X connect 0 0 4 0;
#X connect 1 0 3 0;
#X connect 2 0 5 0;
#X connect 3 0 2 1;
#X connect 4 0 2 0;
#X connect 5 0 61 0;
#X connect 5 1 6 0;
#X connect 6 0 2 1;
#X connect 7 0 9 0;
#X connect 8 0 10 0;
#X connect 9 0 8 1;
#X connect 10 0 59 0;
#X connect 10 1 11 0;
#X connect 11 0 8 1;
#X connect 12 0 25 0;
#X connect 13 0 31 0;
#X connect 14 0 37 0;
#X connect 15 0 43 0;
#X connect 18 0 19 0;
#X connect 19 0 8 0;
#X connect 24 0 26 0;
#X connect 25 0 24 1;
#X connect 26 0 58 0;
#X connect 26 1 27 0;
#X connect 27 0 24 1;
#X connect 28 0 29 0;
#X connect 29 0 24 0;
#X connect 30 0 32 0;
#X connect 31 0 30 1;
#X connect 32 0 57 0;
#X connect 32 1 33 0;
#X connect 33 0 30 1;
#X connect 34 0 35 0;
#X connect 35 0 30 0;
#X connect 36 0 38 0;
#X connect 37 0 36 1;
#X connect 38 0 50 0;
#X connect 38 1 39 0;
#X connect 39 0 36 1;
#X connect 40 0 41 0;
#X connect 41 0 36 0;
#X connect 42 0 44 0;
#X connect 43 0 42 1;
#X connect 44 0 48 0;
#X connect 44 1 45 0;
#X connect 45 0 42 1;
#X connect 46 0 47 0;
#X connect 47 0 42 0;
#X connect 48 0 89 0;
#X connect 49 0 56 0;
#X connect 50 0 88 0;
#X connect 57 0 87 0;
#X connect 58 0 86 0;
#X connect 59 0 60 0;
#X connect 60 0 75 0;
#X connect 60 1 66 0;
#X connect 61 0 62 0;
#X connect 62 0 74 0;
#X connect 62 1 67 0;
#X connect 63 0 55 0;
#X connect 64 0 54 0;
#X connect 65 0 53 0;
#X connect 66 0 52 0;
#X connect 67 0 51 0;
#X connect 80 0 1 0;
#X connect 81 0 7 0;
#X connect 82 0 12 0;
#X connect 83 0 13 0;
#X connect 84 0 14 0;
#X connect 85 0 15 0;
#X connect 86 0 76 0;
#X connect 86 1 65 0;
#X connect 87 0 77 0;
#X connect 87 1 64 0;
#X connect 88 0 78 0;
#X connect 88 1 63 0;
#X connect 89 0 79 0;
#X connect 89 1 49 0;
#X coords 0 -1 1 1 490 100 1 100 100;
#X restore 17 240 pd sensors;
#N canvas 441 273 1312 685 sound 1;
#N canvas 262 88 807 637 timestretch_veryslow 0;
#X obj 109 1000 dac~ 1 2;
#X obj 96 258 smp-timestretch2 test2.wav;
#X obj 362 74 loadbang;
#X msg 362 156 speed \$1;
#X msg 362 128 0.5;
#X msg 446 129 69;
#X msg 446 159 pitch \$1;
#X obj 541 147 / 100;
#X msg 541 171 window \$1;
#X msg 540 118 88.18;
#X msg 106 196 0.78;
#X obj 111 -197 inlet bang;
#X msg 657 175 gain \$1;
#X obj 109 497 mono-EQ13;
#X obj 286 496 mono-EQ13;
#X obj 336 376 loadbang;
#X msg 335 468 0.5;
#X msg 422 468 0.45;
#X obj 142 377 loadbang;
#X msg 142 457 0.5;
#X msg 229 457 0.45;
#X obj 142 428 bng 15 250 50 0 empty empty empty 17 7 0 10 -262144
-1 -1;
#X obj 335 434 bng 15 250 50 0 empty empty empty 17 7 0 10 -262144
-1 -1;
#X msg 158 198 0.87;
#X obj 111 27 random 2;
#X floatatom 111 51 5 0 0 0 - - -;
#X obj 111 75 sel 0;
#X obj 111 141 bng 15 250 50 0 empty empty empty 17 7 0 10 -262144
-1 -1;
#X obj 143 141 bng 15 250 50 0 empty empty empty 17 7 0 10 -262144
-1 -1;
#X obj 111 -96 bng 15 250 50 0 empty empty empty 17 7 0 10 -262144
-1 -1;
#X obj 609 27 inlet vol;
#X msg 378 466 0.2;
#X msg 185 455 0.3;
#X obj 564 627 hsl 128 15 0 1 0 0 empty empty empty -2 -8 0 10 -262144
-1 -1 2540 1;
#X floatatom 561 647 5 0 0 0 - - -;
#X obj 117 784 jakobreverbbbb;
#X obj 566 546 hsl 128 15 0 1 0 0 empty empty empty -2 -8 0 10 -262144
-1 -1 7620 1;
#X floatatom 563 566 5 0 0 0 - - -;
#X obj 574 731 hsl 128 15 0 1 0 0 empty empty empty -2 -8 0 10 -262144
-1 -1 2540 1;
#X floatatom 571 751 5 0 0 0 - - -;
#X obj 573 687 hsl 128 15 0 1 0 0 empty empty empty -2 -8 0 10 -262144
-1 -1 7620 1;
#X floatatom 570 707 5 0 0 0 - - -;
#X text 705 545 dry;
#X text 714 638 wet;
#X text 719 688 time;
#X text 717 732 brightness;
#X obj 115 958 *~ 1;
#X obj 168 959 *~ 1;
#X obj 700 27 inlet sweep_0;
#X obj 812 28 inlet sweep_1;
#X obj 923 26 inlet sweep_2;
#X obj 1035 24 inlet sweep_3;
#X obj 563 370 loadbang;
#X msg 563 477 0.228;
#X obj 563 424 bng 15 250 50 0 empty empty empty 17 7 0 10 -262144
-1 -1;
#X msg 680 477 0.6;
#X msg 747 478 0.2;
#X msg 637 480 0.5;
#X floatatom 700 56 5 0 0 0 - - -;
#X floatatom 812 52 5 0 0 0 - - -;
#X obj 1148 23 inlet main_vol;
#X obj 1148 87 s tsvs_mainvol;
#X obj 211 927 r tsvs_mainvol;
#X obj 1148 47 + 0.2;
#X obj 563 394 delay 1000;
#X obj 573 787 hsl 128 15 0 1 0 0 empty empty empty -2 -8 0 10 -262144
-1 -1 5080 1;
#X floatatom 570 807 5 0 0 0 - - -;
#X text 716 788 gain;
#X msg 792 479 0.4;
#X obj 142 401 delay 1000;
#X obj 336 400 delay 1000;
#X obj 135 -67 t b b;
#X msg 657 141 0.36;
#X connect 1 0 13 0;
#X connect 1 1 14 0;
#X connect 2 0 4 0;
#X connect 2 0 9 0;
#X connect 2 0 5 0;
#X connect 2 0 72 0;
#X connect 3 0 1 1;
#X connect 4 0 3 0;
#X connect 5 0 6 0;
#X connect 6 0 1 1;
#X connect 7 0 8 0;
#X connect 8 0 1 1;
#X connect 9 0 7 0;
#X connect 10 0 1 0;
#X connect 11 0 29 0;
#X connect 12 0 1 1;
#X connect 13 0 35 0;
#X connect 14 0 35 1;
#X connect 15 0 70 0;
#X connect 16 0 14 1;
#X connect 17 0 14 3;
#X connect 18 0 69 0;
#X connect 19 0 13 1;
#X connect 20 0 13 3;
#X connect 21 0 20 0;
#X connect 21 0 32 0;
#X connect 21 0 19 0;
#X connect 22 0 16 0;
#X connect 22 0 31 0;
#X connect 22 0 17 0;
#X connect 23 0 1 0;
#X connect 24 0 25 0;
#X connect 25 0 26 0;
#X connect 26 0 27 0;
#X connect 26 1 28 0;
#X connect 27 0 10 0;
#X connect 28 0 23 0;
#X connect 29 0 71 0;
#X connect 30 0 12 0;
#X connect 31 0 14 2;
#X connect 32 0 13 2;
#X connect 33 0 34 0;
#X connect 34 0 35 3;
#X connect 35 0 46 0;
#X connect 35 1 47 0;
#X connect 36 0 37 0;
#X connect 37 0 35 2;
#X connect 38 0 39 0;
#X connect 39 0 35 5;
#X connect 40 0 41 0;
#X connect 41 0 35 4;
#X connect 46 0 0 0;
#X connect 47 0 0 1;
#X connect 48 0 58 0;
#X connect 49 0 59 0;
#X connect 52 0 64 0;
#X connect 53 0 36 0;
#X connect 54 0 56 0;
#X connect 54 0 55 0;
#X connect 54 0 57 0;
#X connect 54 0 53 0;
#X connect 54 0 68 0;
#X connect 55 0 40 0;
#X connect 56 0 38 0;
#X connect 57 0 33 0;
#X connect 58 0 36 0;
#X connect 58 0 40 0;
#X connect 59 0 33 0;
#X connect 59 0 38 0;
#X connect 60 0 63 0;
#X connect 62 0 47 1;
#X connect 62 0 46 1;
#X connect 63 0 61 0;
#X connect 64 0 54 0;
#X connect 65 0 66 0;
#X connect 66 0 35 6;
#X connect 68 0 65 0;
#X connect 69 0 21 0;
#X connect 70 0 22 0;
#X connect 71 0 24 0;
#X connect 72 0 12 0;
#X coords 0 -1 1 1 85 60 1 100 100;
#X restore 57 442 pd timestretch_veryslow;
#N canvas 0 23 1280 750 microcvolt 0;
#X obj 30 558 dac~ 1 2;
#X obj 32 329 smp-timestretch2 iceflowing.wav;
#X msg 32 201 0.95;
#X obj 289 615 dac~ 1 2;
#X obj 289 469 smp-timestretch2 iceflowing.wav;
#X msg 281 337 0.98;
#X obj 375 317 loadbang;
#X msg 375 399 speed \$1;
#X msg 459 402 pitch \$1;
#X obj 554 390 / 100;
#X obj 348 316 bng 15 250 50 0 empty empty empty 17 7 0 10 -262144
-1 -1;
#X msg 375 371 181;
#X msg 554 416 gain \$1;
#X msg 459 372 42;
#X obj 112 -98 inlet bang;
#X obj 107 138 bng 15 250 50 0 empty empty empty 17 7 0 10 -262144
-1 -1;
#X obj 132 137 bng 15 250 50 0 empty empty empty 17 7 0 10 -262144
-1 -1;
#X floatatom 110 54 5 0 0 0 - - -;
#X obj 614 606 dac~ 1 2;
#X obj 614 460 smp-timestretch2 iceflowing.wav;
#X msg 606 328 0.98;
#X obj 696 280 loadbang;
#X msg 700 390 speed \$1;
#X msg 780 376 pitch \$1;
#X obj 875 364 / 100;
#X obj 673 307 bng 15 250 50 0 empty empty empty 17 7 0 10 -262144
-1 -1;
#X msg 700 362 181;
#X msg 875 390 gain \$1;
#X msg 780 346 42;
#X msg 967 252 0.93;
#X obj 110 26 random 3;
#X obj 110 75 sel 0 1 2;
#X obj 153 140 bng 15 250 50 0 empty empty empty 17 7 0 10 -262144
-1 -1;
#X obj 967 611 dac~ 1 2;
#X obj 968 461 smp-timestretch2 iceflowing.wav;
#X obj 1084 316 loadbang;
#X obj 1118 380 / 100;
#X msg 1118 406 gain \$1;
#X obj 1068 348 bng 15 250 50 0 empty empty empty 17 7 0 10 -262144
-1 -1;
#X msg 1117 351 37;
#X msg 874 335 70;
#X msg 553 361 70;
#X obj 107 179 s change_siney_note;
#X obj 114 -37 t b b;
#X obj 112 -73 bng 15 250 50 0 empty empty empty 17 7 0 10 -262144
-1 -1;
#X connect 1 0 0 0;
#X connect 1 1 0 1;
#X connect 2 0 1 0;
#X connect 4 0 3 0;
#X connect 4 1 3 1;
#X connect 5 0 4 0;
#X connect 6 0 11 0;
#X connect 6 0 41 0;
#X connect 6 0 13 0;
#X connect 7 0 4 1;
#X connect 8 0 4 1;
#X connect 9 0 12 0;
#X connect 10 0 11 0;
#X connect 10 0 13 0;
#X connect 10 0 41 0;
#X connect 11 0 7 0;
#X connect 12 0 4 1;
#X connect 13 0 8 0;
#X connect 14 0 44 0;
#X connect 15 0 2 0;
#X connect 15 0 42 0;
#X connect 16 0 5 0;
#X connect 16 0 20 0;
#X connect 17 0 31 0;
#X connect 19 0 18 0;
#X connect 19 1 18 1;
#X connect 20 0 19 0;
#X connect 21 0 26 0;
#X connect 21 0 40 0;
#X connect 21 0 28 0;
#X connect 22 0 19 1;
#X connect 23 0 19 1;
#X connect 24 0 27 0;
#X connect 25 0 26 0;
#X connect 25 0 28 0;
#X connect 25 0 40 0;
#X connect 26 0 22 0;
#X connect 27 0 19 1;
#X connect 28 0 23 0;
#X connect 29 0 34 0;
#X connect 30 0 17 0;
#X connect 31 0 15 0;
#X connect 31 1 16 0;
#X connect 31 2 32 0;
#X connect 32 0 29 0;
#X connect 34 0 33 0;
#X connect 34 1 33 1;
#X connect 35 0 39 0;
#X connect 36 0 37 0;
#X connect 37 0 34 1;
#X connect 38 0 39 0;
#X connect 39 0 36 0;
#X connect 40 0 24 0;
#X connect 41 0 9 0;
#X connect 43 0 30 0;
#X connect 44 0 43 0;
#X coords 0 -1 1 1 85 60 1 100 100;
#X restore 619 419 pd microcvolt;
#N canvas 335 23 945 749 timestretch_shorthigh 0;
#X obj 506 169 loadbang;
#X msg 506 251 speed \$1;
#X msg 590 224 69;
#X msg 590 254 pitch \$1;
#X obj 685 242 / 100;
#X msg 685 268 window \$1;
#X msg 684 213 88.18;
#X obj 114 333 smp-timestretch2 test2.wav;
#X msg 506 223 500;
#X obj 479 168 bng 15 250 50 0 empty empty empty 17 7 0 10 -262144
-1 -1;
#X obj 112 -41 inlet bang;
#X obj 114 467 st-delayfb;
#X obj 114 622 dac~ 1 2;
#X msg 114 266 0.94;
#X msg 166 266 0.8;
#X msg 214 269 0.97;
#X msg 263 267 0.85;
#X msg 315 267 0.99;
#X msg 362 268 0.82;
#X obj 114 58 random 6;
#X floatatom 114 86 5 0 0 0 - - -;
#X obj 114 109 route 0 1 2 3 4 5;
#X obj 113 -4 bng 15 250 50 0 empty empty empty 17 7 0 10 -262144 -1
-1;
#X obj 367 378 loadbang;
#X obj 367 402 bng 15 250 50 0 empty empty empty 17 7 0 10 -262144
-1 -1;
#X text 407 425 fb;
#X text 360 428 time;
#X msg 357 447 0 0.91;
#X msg 424 449 1 0.914;
#X obj 115 142 bng 15 250 50 0 empty empty empty 17 7 0 10 -262144
-1 -1;
#X obj 135 142 bng 15 250 50 0 empty empty empty 17 7 0 10 -262144
-1 -1;
#X obj 155 142 bng 15 250 50 0 empty empty empty 17 7 0 10 -262144
-1 -1;
#X obj 175 142 bng 15 250 50 0 empty empty empty 17 7 0 10 -262144
-1 -1;
#X obj 195 142 bng 15 250 50 0 empty empty empty 17 7 0 10 -262144
-1 -1;
#X obj 216 142 bng 15 250 50 0 empty empty empty 17 7 0 10 -262144
-1 -1;
#X obj 363 297 s change_siney_note;
#X obj 113 16 t b b;
#X connect 0 0 8 0;
#X connect 0 0 6 0;
#X connect 0 0 2 0;
#X connect 1 0 7 1;
#X connect 2 0 3 0;
#X connect 3 0 7 1;
#X connect 4 0 5 0;
#X connect 5 0 7 1;
#X connect 6 0 4 0;
#X connect 7 0 11 0;
#X connect 7 1 11 1;
#X connect 8 0 1 0;
#X connect 9 0 8 0;
#X connect 9 0 2 0;
#X connect 9 0 6 0;
#X connect 10 0 22 0;
#X connect 11 0 12 0;
#X connect 11 1 12 1;
#X connect 13 0 7 0;
#X connect 14 0 7 0;
#X connect 15 0 7 0;
#X connect 16 0 7 0;
#X connect 17 0 7 0;
#X connect 18 0 35 0;
#X connect 18 0 7 0;
#X connect 19 0 20 0;
#X connect 20 0 21 0;
#X connect 21 0 29 0;
#X connect 21 1 30 0;
#X connect 21 2 31 0;
#X connect 21 3 32 0;
#X connect 21 4 33 0;
#X connect 21 5 34 0;
#X connect 22 0 36 0;
#X connect 23 0 24 0;
#X connect 24 0 27 0;
#X connect 24 0 28 0;
#X connect 27 0 11 2;
#X connect 28 0 11 2;
#X connect 29 0 13 0;
#X connect 30 0 14 0;
#X connect 31 0 15 0;
#X connect 32 0 16 0;
#X connect 33 0 17 0;
#X connect 34 0 18 0;
#X connect 36 0 19 0;
#X coords 0 -1 1 1 200 60 1 100 100;
#X restore 406 419 pd timestretch_shorthigh;
#X floatatom 212 370 5 0 0 0 - - -;
#X obj 212 346 r MAIN_SWEEP_0_a;
#X obj 261 371 r MAIN_SWEEP_0_b;
#X floatatom 261 395 5 0 0 0 - - -;
#N canvas 0 96 1920 984 siney 0;
#X obj 63 -63 inlet bang;
#X obj 263 358 eee-adsr~;
#X obj 416 842 dac~;
#X obj 265 576 *~;
#X obj 56 390 syn-sinesumOsc /key;
#X msg 57 360 60;
#X obj 252 70 bng 15 250 50 0 empty empty empty 17 7 0 10 -262144 -1
-1;
#X obj 252 38 r \$0-tempzwischen;
#X obj 263 195 t b b, f 29;
#X obj 295 229 r tempzwischen_msec;
#X msg 304 325 1;
#X obj 263 279 delay;
#X floatatom 295 253 5 0 0 0 - - -;
#X obj 263 303 bng 15 250 50 0 empty empty empty 17 7 0 10 -262144
-1 -1;
#X msg 263 323 0;
#X obj 57 332 loadbang;
#X obj 675 935 *~ 0.4;
#X obj 675 807 syn-sinesumOsc /key;
#X obj 762 583 eee-adsr~;
#X obj 671 961 *~;
#X obj 413 41 inlet volume;
#X obj 416 791 *~ 1;
#X obj 555 100 r change_siney_note;
#X obj 543 253 line;
#X floatatom 543 277 5 0 0 0 - - -;
#X obj 569 120 bng 15 250 50 0 empty empty empty 17 7 0 10 -262144
-1 -1;
#X msg 605 206 0.2 2000;
#X obj 700 195 bng 15 250 50 0 empty empty empty 17 7 0 10 -262144
-1 -1;
#X obj 700 154 r \$0-tempzwischenmal2;
#X obj 762 420 t b b, f 29;
#X msg 803 550 1;
#X obj 762 504 delay;
#X floatatom 794 478 5 0 0 0 - - -;
#X obj 762 528 bng 15 250 50 0 empty empty empty 17 7 0 10 -262144
-1 -1;
#X msg 762 548 0;
#X obj 794 454 r tempzwischenmal2_msec;
#X obj 700 260 f 0;
#X obj 736 260 + 1;
#X obj 700 297 t f f;
#X obj 700 338 sel 0;
#X obj 700 362 bng 15 250 50 0 empty empty empty 17 7 0 10 -262144
-1 -1;
#X obj 743 361 bng 15 250 50 0 empty empty empty 17 7 0 10 -262144
-1 -1;
#X msg 736 236 0;
#X msg 675 453 30;
#X msg 634 435 33;
#X obj 700 215 spigot 0;
#X msg 754 187 1;
#X obj 538 140 t b b b;
#X msg 795 188 0;
#X msg 541 208 1 3000;
#X obj 537 184 delay 800;
#X obj 539 33 inlet randomness_bang;
#X obj 61 -7 tgl 15 0 empty empty empty 17 7 0 10 -262144 -1 -1 0 1
;
#X obj 252 140 spigot 0;
#X obj 47 645 syn-sinesumOsc /key;
#X floatatom 60 597 5 0 0 0 - - -;
#X obj 56 508 *~ 0.36;
#X obj 47 796 *~ 0.17;
#X obj 128 534 loadbang;
#X obj 152 581 delay 400;
#X obj 128 558 bng 15 250 50 0 empty empty empty 17 7 0 10 -262144
-1 -1;
#X obj 731 673 loadbang;
#X obj 731 697 bng 15 250 50 0 empty empty empty 17 7 0 10 -262144
-1 -1;
#X msg 163 614 1 0;
#X obj 731 717 delay 300;
#X msg 731 747 1 0.5;
#X obj 166 172 line;
#X floatatom 166 196 5 0 0 0 - - -;
#X obj 164 238 s vol_to_siney;
#X obj 338 556 r vol_to_siney;
#X obj 543 309 s vol_to_siney;
#X msg 166 142 0 6000;
#X obj 122 263 sel 0;
#X msg 127 310 0;
#X obj 124 289 bng 15 250 50 0 empty empty empty 17 7 0 10 -262144
-1 -1;
#X obj 63 151 bng 15 250 50 0 empty empty empty 17 7 0 10 -262144 -1
-1;
#X obj 109 84 bng 15 250 50 0 empty empty empty 17 7 0 10 -262144 -1
-1;
#X floatatom 338 580 5 0 0 0 - - -;
#X obj 253 169 bng 15 250 50 0 empty empty empty 17 7 0 10 -262144
-1 -1;
#X obj 63 59 route 1;
#X obj 84 152 bng 15 250 50 0 empty empty empty 17 7 0 10 -262144 -1
-1;
#X msg 83 176 1;
#X msg 61 208 1 3000;
#X floatatom 413 65 5 0 0 0 - - -;
#X obj 516 648 hsl 40 15 0 1 0 0 empty empty empty -2 -8 0 10 -262144
-1 -1 1170 1;
#X floatatom 513 668 5 0 0 0 - - -;
#X text 553 669 vol;
#X obj 413 128 s siney_main_vol;
#X obj 265 607 *~ 1;
#X obj 491 573 r siney_main_vol;
#X floatatom 514 624 5 0 0 0 - - -;
#X obj 75 17 s onofstatus;
#X obj 530 540 r onofstatus;
#X text 552 614 on/off;
#X text 551 630 status;
#X obj 615 1029 dac~;
#X obj 671 985 *~;
#X obj 712 967 r siney_main_vol;
#X floatatom 712 991 5 0 0 0 - - -;
#X obj 413 88 - 0.1;
#X obj 46 548 dac~;
#X obj 734 34 inlet turnoff_bang;
#X obj 361 659 bng 15 250 50 0 empty empty empty 17 7 0 10 -262144
-1 -1;
#X obj 746 67 s siney_turnoff_bang;
#X obj 64 122 t b b;
#X obj 180 -42 r siney_turnoff_bang;
#X msg 180 -15 0;
#X obj 183 56 bng 15 250 50 0 empty empty empty 17 7 0 10 -262144 -1
-1;
#X msg 178 109 0 30000;
#X connect 0 0 52 0;
#X connect 1 0 3 1;
#X connect 3 0 88 0;
#X connect 4 0 56 0;
#X connect 5 0 4 0;
#X connect 6 0 53 0;
#X connect 7 0 6 0;
#X connect 8 0 11 0;
#X connect 8 1 10 0;
#X connect 9 0 12 0;
#X connect 10 0 1 0;
#X connect 11 0 13 0;
#X connect 12 0 11 1;
#X connect 13 0 14 0;
#X connect 14 0 1 0;
#X connect 15 0 5 0;
#X connect 16 0 19 0;
#X connect 17 0 16 0;
#X connect 18 0 19 1;
#X connect 19 0 96 0;
#X connect 20 0 83 0;
#X connect 21 0 2 0;
#X connect 21 0 2 1;
#X connect 22 0 47 0;
#X connect 23 0 24 0;
#X connect 24 0 70 0;
#X connect 25 0 47 0;
#X connect 26 0 23 0;
#X connect 27 0 45 0;
#X connect 28 0 27 0;
#X connect 29 0 31 0;
#X connect 29 1 30 0;
#X connect 30 0 18 0;
#X connect 31 0 33 0;
#X connect 32 0 31 1;
#X connect 33 0 34 0;
#X connect 34 0 18 0;
#X connect 35 0 32 0;
#X connect 36 0 38 0;
#X connect 37 0 36 1;
#X connect 38 0 39 0;
#X connect 38 1 37 0;
#X connect 39 0 40 0;
#X connect 39 1 41 0;
#X connect 40 0 29 0;
#X connect 40 0 44 0;
#X connect 41 0 42 0;
#X connect 41 0 29 0;
#X connect 41 0 43 0;
#X connect 41 0 48 0;
#X connect 42 0 36 1;
#X connect 43 0 17 0;
#X connect 44 0 17 0;
#X connect 45 0 36 0;
#X connect 46 0 45 1;
#X connect 47 0 50 0;
#X connect 47 1 26 0;
#X connect 47 2 46 0;
#X connect 48 0 45 1;
#X connect 49 0 23 0;
#X connect 50 0 49 0;
#X connect 51 0 47 0;
#X connect 52 0 79 0;
#X connect 52 0 91 0;
#X connect 53 0 78 0;
#X connect 54 0 57 0;
#X connect 55 0 54 0;
#X connect 56 0 3 0;
#X connect 57 0 3 0;
#X connect 58 0 60 0;
#X connect 59 0 63 0;
#X connect 60 0 59 0;
#X connect 61 0 62 0;
#X connect 62 0 64 0;
#X connect 63 0 54 1;
#X connect 64 0 65 0;
#X connect 65 0 17 1;
#X connect 66 0 67 0;
#X connect 67 0 68 0;
#X connect 67 0 72 0;
#X connect 69 0 77 0;
#X connect 71 0 66 0;
#X connect 72 0 74 0;
#X connect 73 0 53 1;
#X connect 74 0 73 0;
#X connect 75 0 82 0;
#X connect 76 0 71 0;
#X connect 77 0 88 1;
#X connect 78 0 8 0;
#X connect 79 0 104 0;
#X connect 79 1 76 0;
#X connect 80 0 81 0;
#X connect 81 0 53 1;
#X connect 82 0 66 0;
#X connect 83 0 99 0;
#X connect 84 0 85 0;
#X connect 85 0 21 1;
#X connect 88 0 21 0;
#X connect 89 0 84 0;
#X connect 92 0 90 0;
#X connect 96 0 95 0;
#X connect 96 0 95 1;
#X connect 97 0 98 0;
#X connect 98 0 96 1;
#X connect 99 0 87 0;
#X connect 101 0 103 0;
#X connect 104 0 75 0;
#X connect 104 1 80 0;
#X connect 105 0 106 0;
#X connect 106 0 52 0;
#X connect 106 0 107 0;
#X connect 107 0 108 0;
#X connect 108 0 66 0;
#X coords 0 -1 1 1 100 100 1 500 600;
#X restore 801 399 pd siney;
#X obj 1071 111 dream_chords_main_jakob;
#X obj 1072 154 dac~ 1 2;
#X obj 1071 71 r \$0-temp16tel;
#X obj 897 322 bng 15 250 50 0 empty empty empty 17 7 0 10 -262144
-1 -1;
#X obj 920 348 bng 15 250 50 0 empty empty empty 17 7 0 10 -262144
-1 -1;
#X obj 920 319 r MAIN_RND_0;
#X obj 842 262 r MAIN_SWEEP_1_a;
#X floatatom 842 286 5 0 0 0 - - -;
#X obj 931 378 bng 15 250 50 0 empty empty empty 17 7 0 10 -262144
-1 -1;
#X obj 958 354 r MAIN_RND_3;
#N canvas 0 23 1280 751 hh_work 0;
#X obj 71 871 dac~;
#X obj 72 -45 inlet bang;
#X obj 72 5 bng 15 250 50 0 empty empty empty 17 7 0 10 -262144 -1
-1;
#X obj 107 137 bng 15 250 50 0 empty empty empty 17 7 0 10 -262144
-1 -1;
#X obj 155 137 bng 15 250 50 0 empty empty empty 17 7 0 10 -262144
-1 -1;
#X obj 77 621 mono4tapB;
#X obj 203 221 s rdn_vals0;
#X obj 121 401 r rdn_vals0;
#X obj 121 425 t b b b b;
#X obj 381 467 random 10;
#X obj 381 491 + 1;
#X obj 381 515 / 10;
#X floatatom 381 539 5 0 0 0 - - -;
#X msg 381 562 0 \$1;
#X obj 301 467 random 10;
#X obj 301 491 + 1;
#X obj 301 515 / 10;
#X floatatom 301 539 5 0 0 0 - - -;
#X msg 301 562 1 \$1;
#X obj 211 467 random 10;
#X obj 211 491 + 1;
#X obj 211 515 / 10;
#X floatatom 211 539 5 0 0 0 - - -;
#X obj 131 467 random 10;
#X obj 131 491 + 1;
#X obj 131 515 / 10;
#X floatatom 131 539 5 0 0 0 - - -;
#X msg 211 562 2 \$1;
#X msg 131 562 3 \$1;
#X obj 77 721 st-delayfb;
#X obj 437 621 mono4tapB;
#X obj 481 370 r rdn_vals0;
#X obj 481 425 t b b b b;
#X obj 741 467 random 10;
#X obj 741 491 + 1;
#X obj 741 515 / 10;
#X floatatom 741 539 5 0 0 0 - - -;
#X msg 741 562 0 \$1;
#X obj 661 467 random 10;
#X obj 661 491 + 1;
#X obj 661 515 / 10;
#X floatatom 661 539 5 0 0 0 - - -;
#X msg 661 562 1 \$1;
#X obj 571 467 random 10;
#X obj 571 491 + 1;
#X obj 571 515 / 10;
#X floatatom 571 539 5 0 0 0 - - -;
#X obj 491 467 random 10;
#X obj 491 491 + 1;
#X obj 491 515 / 10;
#X floatatom 491 539 5 0 0 0 - - -;
#X msg 571 562 2 \$1;
#X msg 491 562 3 \$1;
#X obj 596 349 loadbang;
#X obj 595 402 until;
#X msg 596 373 100;
#X obj 434 741 st-delayfb;
#X obj 71 279 catch~ rain;
#X msg 165 221 1;
#X obj 72 324 diy-spigot~;
#X obj 295 622 loadbang;
#X obj 295 646 bng 15 250 50 0 empty empty empty 17 7 0 10 -262144
-1 -1;
#X text 335 669 fb;
#X text 288 672 time;
#X msg 285 691 0 0.91;
#X msg 352 693 1 0.7;
#X msg 35 293 0;
#X obj 73 176 t b b b b;
#X obj 86 204 random 1000;
#X floatatom 86 228 5 0 0 0 - - -;
#X obj 28 262 delay;
#X obj 641 638 loadbang;
#X obj 641 662 bng 15 250 50 0 empty empty empty 17 7 0 10 -262144
-1 -1;
#X text 681 685 fb;
#X text 634 688 time;
#X msg 698 709 1 0.88;
#X msg 631 707 0 0.762;
#X msg 784 663 60;
#X obj 1099 702 noise_JAKOB;
#X obj 1150 594 eee-adsr~;
#X obj 1092 136 bng 15 250 50 0 empty empty empty 17 7 0 10 -262144
-1 -1;
#X obj 1125 308 delay 300;
#X obj 1133 152 t b b;
#X msg 1162 332 1;
#X msg 1125 332 0;
#X obj 1099 829 *~;
#X floatatom 1169 277 5 0 0 0 - - -;
#X obj 1236 476 loadbang;
#X obj 1236 500 delay 200;
#X msg 1236 524 723;
#X msg 1276 528 500;
#X obj 1216 310 t b f;
#X obj 1216 337 random;
#X floatatom 1216 361 5 0 0 0 - - -;
#X obj 1239 394 t b f;
#X obj 1239 418 random;
#X floatatom 1239 442 5 0 0 0 - - -;
#X msg 1075 670 60;
#X obj 1074 618 loadbang;
#X obj 1074 642 delay 300;
#X obj 1133 189 random 600;
#X obj 1095 998 st-delayfb;
#X obj 1133 213 t b f b;
#X obj 1194 250 s hhw_change_delay;
#X obj 1205 837 r hhw_change_delay;
#X obj 1205 861 random 10;
#X obj 1205 909 / 10;
#X floatatom 1205 933 5 0 0 0 - - -;
#X obj 1169 843 bng 15 250 50 0 empty empty empty 17 7 0 10 -262144
-1 -1;
#X msg 1205 956 0 \$1;
#X obj 1285 909 / 10;
#X floatatom 1285 933 5 0 0 0 - - -;
#X msg 1285 956 1 \$1;
#X text 1167 949 time;
#X text 1267 956 fb;
#X obj 1205 885 + 6;
#X obj 1285 885 + 6;
#X obj 1285 861 random 7;
#X text 995 900 brightness;
#X obj 1126 1288 jakobreverbbbb;
#X text 1326 1219 brightness;
#X msg 1297 1219 0.2;
#X obj 1197 1136 loadbang;
#X obj 1197 1177 delay 1000;
#X obj 1197 1160 bng 15 250 50 0 empty empty empty 17 7 0 10 -262144
-1 -1;
#X obj 1127 1474 dac~;
#X msg 1250 1223 0.2;
#X msg 1180 1238 0.6;
#X msg 1203 1216 0.3;
#X obj 1415 1008 st-delayfb;
#X obj 1525 847 r hhw_change_delay;
#X obj 1525 871 random 10;
#X obj 1525 919 / 10;
#X floatatom 1525 943 5 0 0 0 - - -;
#X obj 1489 853 bng 15 250 50 0 empty empty empty 17 7 0 10 -262144
-1 -1;
#X msg 1525 966 0 \$1;
#X obj 1605 919 / 10;
#X floatatom 1605 943 5 0 0 0 - - -;
#X msg 1605 966 1 \$1;
#X text 1487 959 time;
#X text 1587 966 fb;
#X obj 1525 895 + 6;
#X obj 1605 895 + 6;
#X obj 1605 871 random 7;
#X obj 1446 1298 jakobreverbbbb;
#X text 1646 1229 brightness;
#X msg 1617 1229 0.2;
#X obj 1517 1146 loadbang;
#X obj 1517 1187 delay 1000;
#X obj 1517 1170 bng 15 250 50 0 empty empty empty 17 7 0 10 -262144
-1 -1;
#X obj 1447 1484 dac~;
#X msg 1570 1233 0.2;
#X msg 1500 1248 0.6;
#X msg 1523 1226 0.3;
#X msg 1013 931 0.66;
#X obj 72 49 sel 0 1;
#X obj 72 25 random 2;
#X connect 1 0 2 0;
#X connect 2 0 156 0;
#X connect 3 0 67 0;
#X connect 4 0 80 0;
#X connect 5 0 29 0;
#X connect 7 0 8 0;
#X connect 8 0 23 0;
#X connect 8 1 19 0;
#X connect 8 2 14 0;
#X connect 8 3 9 0;
#X connect 9 0 10 0;
#X connect 10 0 11 0;
#X connect 11 0 12 0;
#X connect 12 0 13 0;
#X connect 13 0 5 1;
#X connect 14 0 15 0;
#X connect 15 0 16 0;
#X connect 16 0 17 0;
#X connect 17 0 18 0;
#X connect 18 0 5 1;
#X connect 19 0 20 0;
#X connect 20 0 21 0;
#X connect 21 0 22 0;
#X connect 22 0 27 0;
#X connect 23 0 24 0;
#X connect 24 0 25 0;
#X connect 25 0 26 0;
#X connect 26 0 28 0;
#X connect 27 0 5 1;
#X connect 28 0 5 1;
#X connect 29 0 0 0;
#X connect 30 0 56 1;
#X connect 31 0 32 0;
#X connect 32 0 47 0;
#X connect 32 1 43 0;
#X connect 32 2 38 0;
#X connect 32 3 33 0;
#X connect 33 0 34 0;
#X connect 34 0 35 0;
#X connect 35 0 36 0;
#X connect 36 0 37 0;
#X connect 37 0 30 1;
#X connect 38 0 39 0;
#X connect 39 0 40 0;
#X connect 40 0 41 0;
#X connect 41 0 42 0;
#X connect 42 0 30 1;
#X connect 43 0 44 0;
#X connect 44 0 45 0;
#X connect 45 0 46 0;
#X connect 46 0 51 0;
#X connect 47 0 48 0;
#X connect 48 0 49 0;
#X connect 49 0 50 0;
#X connect 50 0 52 0;
#X connect 51 0 30 1;
#X connect 52 0 30 1;
#X connect 53 0 55 0;
#X connect 54 0 32 0;
#X connect 55 0 54 0;
#X connect 56 1 0 1;
#X connect 57 0 59 0;
#X connect 58 0 59 1;
#X connect 59 0 5 0;
#X connect 59 0 30 0;
#X connect 60 0 61 0;
#X connect 61 0 64 0;
#X connect 61 0 65 0;
#X connect 64 0 29 2;
#X connect 65 0 29 2;
#X connect 66 0 59 1;
#X connect 67 0 70 0;
#X connect 67 1 68 0;
#X connect 67 2 58 0;
#X connect 67 3 6 0;
#X connect 68 0 69 0;
#X connect 69 0 70 1;
#X connect 70 0 66 0;
#X connect 71 0 72 0;
#X connect 72 0 76 0;
#X connect 72 0 75 0;
#X connect 75 0 56 2;
#X connect 76 0 56 2;
#X connect 78 0 85 0;
#X connect 79 0 85 1;
#X connect 80 0 82 0;
#X connect 81 0 84 0;
#X connect 82 0 100 0;
#X connect 82 1 83 0;
#X connect 83 0 79 0;
#X connect 84 0 79 0;
#X connect 85 0 101 0;
#X connect 85 0 129 1;
#X connect 86 0 81 1;
#X connect 86 0 91 0;
#X connect 87 0 88 0;
#X connect 88 0 89 0;
#X connect 88 0 90 0;
#X connect 89 0 79 1;
#X connect 90 0 79 4;
#X connect 91 0 92 0;
#X connect 91 1 92 1;
#X connect 92 0 93 0;
#X connect 93 0 79 1;
#X connect 93 0 94 0;
#X connect 94 0 95 0;
#X connect 94 1 95 1;
#X connect 95 0 96 0;
#X connect 96 0 79 4;
#X connect 97 0 78 0;
#X connect 98 0 99 0;
#X connect 99 0 97 0;
#X connect 100 0 102 0;
#X connect 101 0 119 0;
#X connect 101 1 119 1;
#X connect 102 0 81 0;
#X connect 102 1 86 0;
#X connect 102 2 103 0;
#X connect 104 0 105 0;
#X connect 104 0 117 0;
#X connect 105 0 115 0;
#X connect 106 0 107 0;
#X connect 107 0 109 0;
#X connect 108 0 105 0;
#X connect 108 0 117 0;
#X connect 109 0 101 2;
#X connect 110 0 111 0;
#X connect 111 0 112 0;
#X connect 112 0 101 2;
#X connect 115 0 106 0;
#X connect 116 0 110 0;
#X connect 117 0 116 0;
#X connect 119 0 125 0;
#X connect 119 1 125 1;
#X connect 121 0 119 5;
#X connect 122 0 124 0;
#X connect 123 0 127 0;
#X connect 123 0 128 0;
#X connect 123 0 126 0;
#X connect 123 0 121 0;
#X connect 124 0 123 0;
#X connect 126 0 119 4;
#X connect 127 0 119 2;
#X connect 128 0 119 3;
#X connect 129 0 144 0;
#X connect 129 1 144 1;
#X connect 130 0 131 0;
#X connect 130 0 143 0;
#X connect 131 0 141 0;
#X connect 132 0 133 0;
#X connect 133 0 135 0;
#X connect 134 0 131 0;
#X connect 134 0 143 0;
#X connect 135 0 129 2;
#X connect 136 0 137 0;
#X connect 137 0 138 0;
#X connect 138 0 129 2;
#X connect 141 0 132 0;
#X connect 142 0 136 0;
#X connect 143 0 142 0;
#X connect 144 0 150 0;
#X connect 144 1 150 1;
#X connect 146 0 144 5;
#X connect 147 0 149 0;
#X connect 148 0 152 0;
#X connect 148 0 153 0;
#X connect 148 0 151 0;
#X connect 148 0 146 0;
#X connect 149 0 148 0;
#X connect 151 0 144 4;
#X connect 152 0 144 2;
#X connect 153 0 144 3;
#X connect 155 0 3 0;
#X connect 155 1 4 0;
#X connect 156 0 155 0;
#X coords 0 -1 1 1 85 60 1 100 100;
#X restore 998 435 pd hh_work;
#X obj 897 294 r MAIN_RND_4;
#X obj 240 441 r MAIN_SWEEP_1_b;
#X floatatom 240 465 5 0 0 0 - - -;
#X obj 1065 361 bng 15 250 50 0 empty empty empty 17 7 0 10 -262144
-1 -1;
#X obj 1065 337 r MAIN_RND_5;
#N canvas 0 23 1280 751 diedrei 0;
#X obj 43 755 dac~;
#X text 291 466 16;
#X text 286 488 25;
#X text 243 466 546;
#X text 241 490 12.39;
#X text 55 542 0.3;
#X obj 23 429 smp-timestretch2 DDREI_carrier.wav;
#X msg 266 351 speed \$1;
#X msg 350 354 pitch \$1;
#X obj 445 342 / 100;
#X msg 445 366 window \$1;
#X msg 561 370 gain \$1;
#X msg 561 336 0.5;
#X msg 266 323 16;
#X msg 350 324 25;
#X obj 23 649 st-eq3;
#X msg 673 340 0.3;
#X msg 673 364 duration \$1;
#X obj 267 221 loadbang;
#X obj 267 283 delay 1000;
#X obj 267 246 bng 15 250 50 0 empty empty empty 17 7 0 10 -262144
-1 -1;
#X msg 444 313 21.1;
#X obj 51 5 inlet trigger;
#X obj 269 551 loadbang;
#X obj 269 582 delay 2000;
#X text 275 625 low;
#X msg 264 672 0 \$1;
#X msg 264 648 0.18;
#X text 325 625 mid;
#X msg 314 648 0.3;
#X msg 314 672 1 \$1;
#X obj 273 606 bng 15 250 50 0 empty empty empty 17 7 0 10 -262144
-1 -1;
#X msg 360 648 0.6;
#X msg 360 672 2 \$1;
#X msg 53 383 0.52;
#X text 361 625 high;
#X obj 115 121 bng 15 250 50 0 empty empty empty 17 7 0 10 -262144
-1 -1;
#X obj 818 760 dac~;
#X text 1066 471 16;
#X text 1061 493 25;
#X text 1018 471 546;
#X text 1016 495 12.39;
#X text 830 547 0.3;
#X obj 798 434 smp-timestretch2 DDREI_carrier.wav;
#X msg 1041 356 speed \$1;
#X msg 1125 359 pitch \$1;
#X obj 1220 347 / 100;
#X msg 1220 371 window \$1;
#X msg 1336 375 gain \$1;
#X msg 1336 341 0.5;
#X msg 1041 328 16;
#X msg 1125 329 25;
#X obj 798 654 st-eq3;
#X msg 1448 345 0.3;
#X msg 1448 369 duration \$1;
#X obj 1042 226 loadbang;
#X obj 1042 288 delay 1000;
#X obj 1042 251 bng 15 250 50 0 empty empty empty 17 7 0 10 -262144
-1 -1;
#X msg 1219 318 21.1;
#X obj 1044 556 loadbang;
#X obj 1044 587 delay 2000;
#X text 1050 630 low;
#X msg 1039 677 0 \$1;
#X msg 1039 653 0.18;
#X text 1100 630 mid;
#X msg 1089 653 0.3;
#X msg 1089 677 1 \$1;
#X obj 1048 611 bng 15 250 50 0 empty empty empty 17 7 0 10 -262144
-1 -1;
#X msg 1135 653 0.6;
#X msg 1135 677 2 \$1;
#X msg 828 388 0.52;
#X text 1136 630 high;
#X connect 6 0 15 0;
#X connect 6 1 15 1;
#X connect 7 0 6 1;
#X connect 8 0 6 1;
#X connect 9 0 10 0;
#X connect 10 0 6 1;
#X connect 11 0 6 1;
#X connect 12 0 11 0;
#X connect 13 0 7 0;
#X connect 14 0 8 0;
#X connect 15 0 0 0;
#X connect 15 1 0 1;
#X connect 16 0 17 0;
#X connect 17 0 6 1;
#X connect 18 0 20 0;
#X connect 19 0 13 0;
#X connect 19 0 14 0;
#X connect 19 0 21 0;
#X connect 19 0 12 0;
#X connect 19 0 16 0;
#X connect 20 0 19 0;
#X connect 21 0 9 0;
#X connect 22 0 36 0;
#X connect 23 0 24 0;
#X connect 24 0 31 0;
#X connect 26 0 15 2;
#X connect 27 0 26 0;
#X connect 29 0 30 0;
#X connect 30 0 15 2;
#X connect 31 0 27 0;
#X connect 31 0 29 0;
#X connect 31 0 32 0;
#X connect 32 0 33 0;
#X connect 33 0 15 2;
#X connect 34 0 6 0;
#X connect 36 0 34 0;
#X connect 43 0 52 0;
#X connect 43 1 52 1;
#X connect 44 0 43 1;
#X connect 45 0 43 1;
#X connect 46 0 47 0;
#X connect 47 0 43 1;
#X connect 48 0 43 1;
#X connect 49 0 48 0;
#X connect 50 0 44 0;
#X connect 51 0 45 0;
#X connect 52 0 37 0;
#X connect 52 1 37 1;
#X connect 53 0 54 0;
#X connect 54 0 43 1;
#X connect 55 0 57 0;
#X connect 56 0 50 0;
#X connect 56 0 51 0;
#X connect 56 0 58 0;
#X connect 56 0 49 0;
#X connect 56 0 53 0;
#X connect 57 0 56 0;
#X connect 58 0 46 0;
#X connect 59 0 60 0;
#X connect 60 0 67 0;
#X connect 62 0 52 2;
#X connect 63 0 62 0;
#X connect 65 0 66 0;
#X connect 66 0 52 2;
#X connect 67 0 63 0;
#X connect 67 0 65 0;
#X connect 67 0 68 0;
#X connect 68 0 69 0;
#X connect 69 0 52 2;
#X connect 70 0 43 0;
#X coords 0 -1 1 1 85 60 1 100 100;
#X restore 1145 437 pd diedrei;
#X obj 441 174 bng 15 250 50 0 empty empty empty 17 7 0 10 -262144
-1 -1;
#X obj 1065 401 bng 15 250 50 0 empty empty empty 17 7 0 10 -262144
-1 -1;
#X obj 1065 377 r MAIN_RND_6;
#X obj 441 150 r MAIN_RND_7;
#N canvas 128 163 1280 751 bahn_stimme 0;
#X obj 117 386 bahn 6;
#X obj 255 387 bahn 7;
#X obj 378 394 bahn 8;
#X obj 508 389 bahn 9;
#X obj 624 399 bahn 10;
#X obj 116 470 bahn 11;
#X obj 257 472 bahn 12;
#X obj 380 479 bahn 13;
#X obj 510 474 bahn 14;
#X obj 626 484 bahn 15;
#X obj 117 555 bahn 16;
#X obj 258 557 bahn 17;
#X obj 381 564 bahn 18;
#X obj 511 559 bahn 19;
#X obj 627 569 bahn 20;
#X obj 117 646 bahn 21;
#X obj 258 648 bahn 22;
#X obj 381 655 bahn 23;
#X obj 511 650 bahn 24;
#X obj 627 660 bahn 25;
#X obj 111 738 bahn 26;
#X obj 252 740 bahn 27;
#X obj 375 747 bahn 28;
#X obj 505 742 bahn 29;
#X obj 621 752 bahn 30;
#X obj 112 817 bahn 31;
#X obj 253 819 bahn 32;
#X obj 376 826 bahn 33;
#X obj 506 821 bahn 34;
#X obj 622 831 bahn 35;
#X obj 119 890 bahn 36;
#X obj 260 892 bahn 37;
#X obj 383 899 bahn 38;
#X obj 513 894 bahn 39;
#X obj 629 904 bahn 40;
#X obj 129 970 bahn 41;
#X obj 270 972 bahn 42;
#X obj 393 979 bahn 43;
#X obj 523 974 bahn 44;
#X obj 639 984 bahn 45;
#X obj 129 1060 bahn 46;
#X obj 270 1062 bahn 47;
#X obj 393 1069 bahn 48;
#X obj 523 1064 bahn 49;
#X obj 639 1074 bahn 50;
#X obj 119 1140 bahn 51;
#X obj 260 1142 bahn 52;
#X obj 383 1149 bahn 53;
#X obj 513 1144 bahn 54;
#X obj 629 1154 bahn 55;
#X obj 129 1220 bahn 56;
#X obj 270 1222 bahn 57;
#X obj 393 1229 bahn 58;
#X obj 523 1224 bahn 58;
#X obj 639 1234 bahn 59;
#X obj 119 1310 bahn 60;
#X obj 260 1312 bahn 61;
#X obj 383 1319 bahn 62;
#X obj 629 1324 bahn 64;
#X obj 513 1314 bahn 63;
#X obj 118 1405 bahn 65;
#X obj 126 333 s;
#X obj 117 -390 inlet bang;
#X obj 163 229 random 65;
#X obj 163 253 + 1;
#X obj 114 -313 bng 15 250 50 0 empty empty empty 17 7 0 10 -262144
-1 -1;
#X obj 116 206 t b b;
#X obj 161 278 makefilename bang%i_receive;
#X symbolatom 161 302 20 0 0 0 - - -;
#X text 252 240 sned bang to one of the bahn-abstractions;
#X obj 666 -180 catch~ bahnlinks;
#X obj 807 -179 catch~ bahnrechts;
#X obj 466 19 *~;
#X obj 920 -15 *~;
#X obj 455 -222 inlet volmain;
#X obj 233 -181 hsl 60 15 0 1 0 0 empty empty empty -2 -8 0 10 -262144
-1 -1 3540 1;
#X floatatom 230 -160 5 0 0 0 - - -;
#X obj 230 -232 loadbang;
#X obj 117 -118 bng 15 250 50 0 empty empty empty 17 7 0 10 -262144
-1 -1;
#X obj 605 270 mono4tapB;
#X obj 593 20 t b b b b;
#X obj 853 62 random 10;
#X obj 853 86 + 1;
#X obj 853 110 / 10;
#X floatatom 853 134 5 0 0 0 - - -;
#X msg 853 217 0 \$1;
#X obj 773 62 random 10;
#X obj 773 86 + 1;
#X obj 773 110 / 10;
#X floatatom 773 134 5 0 0 0 - - -;
#X msg 773 217 1 \$1;
#X obj 683 62 random 10;
#X obj 683 86 + 1;
#X obj 683 110 / 10;
#X floatatom 683 134 5 0 0 0 - - -;
#X obj 603 62 random 10;
#X obj 603 86 + 1;
#X obj 603 110 / 10;
#X floatatom 603 134 5 0 0 0 - - -;
#X msg 683 217 2 \$1;
#X msg 603 217 3 \$1;
#X obj 850 407 dac~;
#X obj 466 57 drywet;
#X obj 920 23 drywet;
#X obj 978 309 mono4tapB;
#X obj 1024 53 t b b b b;
#X obj 1284 95 random 10;
#X obj 1284 119 + 1;
#X obj 1284 143 / 10;
#X floatatom 1284 167 5 0 0 0 - - -;
#X msg 1284 270 0 \$1;
#X obj 1204 95 random 10;
#X obj 1204 119 + 1;
#X obj 1204 143 / 10;
#X floatatom 1204 167 5 0 0 0 - - -;
#X msg 1204 270 1 \$1;
#X obj 1114 95 random 10;
#X obj 1114 119 + 1;
#X obj 1114 143 / 10;
#X floatatom 1114 167 5 0 0 0 - - -;
#X obj 1034 95 random 10;
#X obj 1034 119 + 1;
#X obj 1034 143 / 10;
#X floatatom 1034 167 5 0 0 0 - - -;
#X msg 1114 270 2 \$1;
#X msg 1034 270 3 \$1;
#X msg 603 157 \$1 1000;
#X msg 683 163 \$1 2000;
#X obj 603 181 line;
#X obj 683 187 line;
#X obj 773 187 line;
#X obj 848 188 line;
#X msg 1043 197 \$1 1000;
#X obj 1043 221 line;
#X obj 1123 227 line;
#X obj 1213 227 line;
#X obj 1288 228 line;
#X msg 773 163 \$1 3000;
#X msg 848 164 \$1 4000;
#X msg 1123 203 \$1 2000;
#X msg 1213 203 \$1 4000;
#X msg 1288 204 \$1 5000;
#X obj 418 -107 + 0.5;
#X obj 734 -220 inlet drywetrecths;
#X obj 595 -221 inlet drywetlinks;
#X text 272 -159 vol;
#X msg 542 250 4 \$1;
#X msg 938 240 4 \$1;
#X obj 117 -365 bng 15 250 50 0 empty empty empty 17 7 0 10 -262144
-1 -1;
#X obj 117 -344 t b b;
#X obj 543 -37 moses 0.5;
#X floatatom 543 -12 5 0 0 0 - - -;
#X floatatom 613 -12 5 0 0 0 - - -;
#X obj 996 -63 moses 0.5;
#X floatatom 1071 -28 5 0 0 0 - - -;
#X floatatom 996 -38 5 0 0 0 - - -;
#X msg 230 -207 0.6;
#X connect 62 0 148 0;
#X connect 63 0 64 0;
#X connect 64 0 67 0;
#X connect 65 0 80 0;
#X connect 65 0 105 0;
#X connect 66 0 61 0;
#X connect 66 1 63 0;
#X connect 67 0 68 0;
#X connect 68 0 61 1;
#X connect 70 0 72 0;
#X connect 71 0 73 0;
#X connect 72 0 102 0;
#X connect 73 0 103 0;
#X connect 74 0 75 0;
#X connect 75 0 76 0;
#X connect 76 0 72 1;
#X connect 76 0 142 0;
#X connect 77 0 156 0;
#X connect 78 0 66 0;
#X connect 79 0 101 0;
#X connect 80 0 95 0;
#X connect 80 1 91 0;
#X connect 80 2 86 0;
#X connect 80 3 81 0;
#X connect 81 0 82 0;
#X connect 82 0 83 0;
#X connect 83 0 84 0;
#X connect 84 0 138 0;
#X connect 85 0 79 1;
#X connect 86 0 87 0;
#X connect 87 0 88 0;
#X connect 88 0 89 0;
#X connect 89 0 137 0;
#X connect 90 0 79 1;
#X connect 91 0 92 0;
#X connect 92 0 93 0;
#X connect 93 0 94 0;
#X connect 94 0 127 0;
#X connect 95 0 96 0;
#X connect 96 0 97 0;
#X connect 97 0 98 0;
#X connect 98 0 126 0;
#X connect 99 0 79 1;
#X connect 100 0 79 1;
#X connect 102 0 101 0;
#X connect 102 1 79 0;
#X connect 103 0 101 1;
#X connect 103 1 104 0;
#X connect 104 0 101 1;
#X connect 105 0 120 0;
#X connect 105 1 116 0;
#X connect 105 2 111 0;
#X connect 105 3 106 0;
#X connect 106 0 107 0;
#X connect 107 0 108 0;
#X connect 108 0 109 0;
#X connect 109 0 141 0;
#X connect 110 0 104 1;
#X connect 111 0 112 0;
#X connect 112 0 113 0;
#X connect 113 0 114 0;
#X connect 114 0 140 0;
#X connect 115 0 104 1;
#X connect 116 0 117 0;
#X connect 117 0 118 0;
#X connect 118 0 119 0;
#X connect 119 0 139 0;
#X connect 120 0 121 0;
#X connect 121 0 122 0;
#X connect 122 0 123 0;
#X connect 123 0 132 0;
#X connect 124 0 104 1;
#X connect 125 0 104 1;
#X connect 126 0 128 0;
#X connect 127 0 129 0;
#X connect 128 0 100 0;
#X connect 129 0 99 0;
#X connect 130 0 90 0;
#X connect 131 0 85 0;
#X connect 132 0 133 0;
#X connect 133 0 125 0;
#X connect 134 0 124 0;
#X connect 135 0 115 0;
#X connect 136 0 110 0;
#X connect 137 0 130 0;
#X connect 138 0 131 0;
#X connect 139 0 134 0;
#X connect 140 0 135 0;
#X connect 141 0 136 0;
#X connect 142 0 73 1;
#X connect 143 0 147 0;
#X connect 143 0 153 0;
#X connect 144 0 146 0;
#X connect 144 0 150 0;
#X connect 146 0 79 1;
#X connect 147 0 104 1;
#X connect 148 0 149 0;
#X connect 149 0 65 0;
#X connect 149 1 78 0;
#X connect 150 0 151 0;
#X connect 150 1 152 0;
#X connect 151 0 102 1;
#X connect 153 0 155 0;
#X connect 153 1 154 0;
#X connect 155 0 103 1;
#X connect 156 0 75 0;
#X coords 0 -1 1 1 200 120 1 100 -200;
#X restore 457 690 pd bahn_stimme;
#X obj 451 495 r rare_Lamp1;
#X obj 451 519 bng 15 250 50 0 empty empty empty 17 7 0 10 -262144
-1 -1;
#X obj 477 552 bng 15 250 50 0 empty empty empty 17 7 0 10 -262144
-1 -1;
#X obj 477 528 r rare_Lamp2;
#X obj 496 582 bng 15 250 50 0 empty empty empty 17 7 0 10 -262144
-1 -1;
#X obj 496 558 r rare_Lamp3;
#X obj 518 607 bng 15 250 50 0 empty empty empty 17 7 0 10 -262144
-1 -1;
#X obj 518 583 r rare_Lamp4;
#X obj 538 634 bng 15 250 50 0 empty empty empty 17 7 0 10 -262144
-1 -1;
#X obj 538 610 r rare_Lamp5;
#X obj 558 656 bng 15 250 50 0 empty empty empty 17 7 0 10 -262144
-1 -1;
#X obj 558 632 r rare_Lamp6;
#X obj 681 651 r MAIN_SWEEP_2_a;
#X obj 801 659 r MAIN_SWEEP_2_b;
#X floatatom 681 675 5 0 0 0 - - -;
#X floatatom 801 683 5 0 0 0 - - -;
#N canvas 0 23 1280 751 orchesterAtmo 0;
#X obj 75 41 inlet bangg;
#X msg 305 165 speed \$1;
#X msg 389 168 pitch \$1;
#X obj 484 156 / 100;
#X msg 484 194 window \$1;
#X msg 600 184 gain \$1;
#X msg 669 180 duration \$1;
#X obj 306 35 loadbang;
#X obj 306 97 delay 1000;
#X obj 306 60 bng 15 250 50 0 empty empty empty 17 7 0 10 -262144 -1
-1;
#X msg 483 127 69.49;
#X obj 108 119 bng 15 250 50 0 empty empty empty 17 7 0 10 -262144
-1 -1;
#X obj 94 1046 dac~;
#X obj 92 311 smp-timestretch2 orchesterAtmo.wav;
#X msg 305 137 100;
#X msg 389 138 100;
#X msg 663 145 1;
#X obj 392 388 loadbang;
#X obj 392 412 delay 2000;
#X obj 392 436 bng 15 250 50 0 empty empty empty 17 7 0 10 -262144
-1 -1;
#X msg 336 471 0.1;
#X obj 90 534 eqjakobpd;
#X obj 291 529 eqjakobpd;
#X msg 375 472 0.34;
#X msg 421 472 0.34;
#X msg 461 473 0.48;
#X msg 504 473 0.43;
#X msg 548 475 0.43;
#X obj 94 803 st-stereoxpand;
#X obj 237 656 loadbang;
#X obj 237 680 delay 1000;
#X obj 238 702 bng 15 250 50 0 empty empty empty 17 7 0 10 -262144
-1 -1;
#X msg 237 724 0.7;
#X msg 237 748 0 \$1;
#X msg 283 723 0.7;
#X msg 283 747 1 \$1;
#X msg 331 747 2 \$1;
#X msg 600 150 0.2;
#X obj 158 966 *~;
#X obj 96 967 *~;
#X obj 129 897 r oa_volume;
#X floatatom 129 922 5 0 0 0 - - -;
#X obj 182 159 line 1;
#X msg 93 213 0.01;
#X msg 186 121 1 300;
#X msg 264 93 0 400;
#X obj 181 211 s oa_volume;
#X obj 198 56 t b b;
#X obj 190 92 delay 400;
#X floatatom 182 183 5 0 0 0 - - -;
#X msg 331 723 0.5;
#X obj 129 119 hsl 50 15 0 1 0 0 empty empty empty -2 -8 0 10 -262144
-1 -1 4900 1;
#X msg 122 72 1;
#X text 127 143 vol;
#X connect 0 0 11 0;
#X connect 1 0 13 1;
#X connect 2 0 13 1;
#X connect 3 0 4 0;
#X connect 4 0 13 1;
#X connect 5 0 13 1;
#X connect 6 0 13 1;
#X connect 7 0 9 0;
#X connect 8 0 14 0;
#X connect 8 0 15 0;
#X connect 8 0 10 0;
#X connect 8 0 16 0;
#X connect 8 0 37 0;
#X connect 8 0 52 0;
#X connect 9 0 8 0;
#X connect 10 0 3 0;
#X connect 11 0 47 0;
#X connect 13 0 21 0;
#X connect 13 1 22 0;
#X connect 14 0 1 0;
#X connect 15 0 2 0;
#X connect 16 0 6 0;
#X connect 17 0 18 0;
#X connect 18 0 19 0;
#X connect 19 0 20 0;
#X connect 19 0 23 0;
#X connect 19 0 24 0;
#X connect 19 0 25 0;
#X connect 19 0 26 0;
#X connect 19 0 27 0;
#X connect 20 0 21 1;
#X connect 20 0 22 1;
#X connect 21 0 28 0;
#X connect 22 0 28 1;
#X connect 23 0 22 2;
#X connect 23 0 21 2;
#X connect 24 0 22 3;
#X connect 24 0 21 3;
#X connect 25 0 22 4;
#X connect 25 0 21 4;
#X connect 26 0 22 6;
#X connect 26 0 21 7;
#X connect 27 0 22 7;
#X connect 27 0 21 8;
#X connect 28 0 39 0;
#X connect 28 1 38 0;
#X connect 29 0 30 0;
#X connect 30 0 31 0;
#X connect 31 0 32 0;
#X connect 31 0 34 0;
#X connect 31 0 50 0;
#X connect 32 0 33 0;
#X connect 33 0 28 2;
#X connect 34 0 35 0;
#X connect 35 0 28 2;
#X connect 36 0 28 2;
#X connect 37 0 5 0;
#X connect 38 0 12 1;
#X connect 39 0 12 0;
#X connect 40 0 41 0;
#X connect 41 0 38 1;
#X connect 41 0 39 1;
#X connect 42 0 49 0;
#X connect 43 0 13 0;
#X connect 44 0 42 0;
#X connect 44 0 43 0;
#X connect 45 0 42 0;
#X connect 47 0 48 0;
#X connect 47 1 45 0;
#X connect 48 0 44 0;
#X connect 49 0 46 0;
#X connect 50 0 36 0;
#X connect 51 0 46 0;
#X connect 52 0 51 0;
#X connect 52 0 42 0;
#X coords 0 -1 1 1 85 60 1 100 100;
#X restore 217 669 pd orchesterAtmo;
#X obj 895 148 bng 15 250 50 0 empty turnoffbang_0 empty 17 7 0 10
-262144 -1 -1;
#X obj 895 168 bng 15 250 50 0 empty empty empty 17 7 0 10 -262144
-1 -1;
#X text 913 147 toff_0;
#X obj 512 225 r lamp1_0;
#X obj 784 229 r lamp2_0;
#X obj 1025 227 r lamp3_0;
#X obj 1179 272 r lamp4_0;
#X obj 983 529 r lamp6_0;
#X obj 348 534 r lamp5_0;
#X obj 164 557 r MAIN_SWEEP_3_a;
#X obj 210 584 r MAIN_SWEEP_3_b;
#X floatatom 210 608 5 0 0 0 - - -;
#X floatatom 164 581 5 0 0 0 - - -;
#N canvas 464 23 894 740 apple 0;
#X obj 89 -43 inlet bang;
#X msg 348 212 speed \$1;
#X msg 432 215 pitch \$1;
#X obj 527 203 / 100;
#X msg 527 227 window \$1;
#X msg 643 231 gain \$1;
#X obj 106 480 st-eq3;
#X msg 755 225 duration \$1;
#X obj 349 82 loadbang;
#X obj 349 144 delay 1000;
#X obj 349 107 bng 15 250 50 0 empty empty empty 17 7 0 10 -262144
-1 -1;
#X obj 351 412 loadbang;
#X obj 351 443 delay 2000;
#X text 357 486 low;
#X msg 346 533 0 \$1;
#X text 407 486 mid;
#X msg 396 533 1 \$1;
#X obj 355 467 bng 15 250 50 0 empty empty empty 17 7 0 10 -262144
-1 -1;
#X msg 442 509 0.6;
#X msg 442 533 2 \$1;
#X text 443 486 high;
#X msg 526 174 31.01;
#X text 333 332 1024;
#X text 334 355 23.22;
#X text 409 362 66;
#X text 414 340 11;
#X msg 348 184 11;
#X msg 432 185 66;
#X msg 755 201 0.8;
#X msg 396 509 0.6;
#X obj 107 176 bng 15 250 50 0 empty empty empty 17 7 0 10 -262144
-1 -1;
#X obj 896 66 inlet sweep0;
#X obj 1007 67 inlet sweep1;
#X obj 105 290 pvoc2_JAKOB VolumeMount.aif;
#X obj 163 233 s trigger_sweep3;
#X msg 346 509 0.23;
#X msg 497 536 3 \$1;
#X obj 105 750 jakobreverbbbb;
#X msg 308 663 0.6;
#X msg 414 665 0.6;
#X obj 390 933 eee-adsr~;
#X obj 396 765 t b b, f 29;
#X msg 437 895 1;
#X obj 396 873 bng 15 250 50 0 empty empty empty 17 7 0 10 -262144
-1 -1;
#X msg 396 893 0;
#X obj 112 632 *~;
#X obj 243 636 *~;
#X obj 396 849 delay 4000;
#X obj 341 564 loadbang;
#X obj 341 588 delay 300;
#X obj 341 612 bng 15 250 50 0 empty empty empty 17 7 0 10 -262144
-1 -1;
#X obj 543 829 loadbang;
#X obj 543 853 delay 300;
#X obj 543 877 bng 15 250 50 0 empty empty empty 17 7 0 10 -262144
-1 -1;
#X msg 628 903 1;
#X msg 670 903 134;
#X msg 585 905 500;
#X msg 362 665 0.6;
#X msg 543 901 1400;
#X obj 517 670 line;
#X floatatom 517 694 5 0 0 0 - - -;
#X obj 619 674 line;
#X floatatom 619 698 5 0 0 0 - - -;
#X msg 450 664 0.6;
#X obj 740 676 line;
#X floatatom 740 700 5 0 0 0 - - -;
#X msg 107 202 0.24;
#X msg 517 646 0 \, 0.76 4000;
#X msg 740 652 0.2 \, 0.9 4000;
#X msg 619 650 0.7 \, 0.2 5000;
#X obj 701 466 st-eq3;
#X obj 776 308 loadbang;
#X obj 776 339 delay 2000;
#X text 782 382 low;
#X msg 771 429 0 \$1;
#X text 832 382 mid;
#X msg 821 429 1 \$1;
#X obj 780 363 bng 15 250 50 0 empty empty empty 17 7 0 10 -262144
-1 -1;
#X msg 867 429 2 \$1;
#X text 868 382 high;
#X msg 771 405 0.23;
#X msg 922 432 3 \$1;
#X text 920 385 gain;
#X msg 821 405 0.3;
#X msg 867 405 0.68;
#X msg 922 408 0.2;
#X obj 855 681 line;
#X floatatom 855 705 5 0 0 0 - - -;
#X msg 855 657 0.3 \, 0.7 4000;
#X msg 497 512 0.78;
#X obj 401 1103 hsl 128 15 0 1 0 0 empty empty empty -2 -8 0 10 -262144
-1 -1 10592 1;
#X msg 398 1147 dry \$1;
#X obj 95 1177 e_platereverb somename;
#X obj 89 1321 dac~;
#X msg 481 1186 decay \$1;
#X obj 559 1105 hsl 128 15 0 1 0 0 empty empty empty -2 -8 0 10 -262144
-1 -1 11176 1;
#X floatatom 556 1126 5 0 0 0 - - -;
#X msg 480 1212 input_diffusion1 \$1;
#X msg 480 1242 input_diffusion2 \$1;
#X msg 479 1275 decay_diffusion1 \$1;
#X msg 479 1304 decay_diffusion2 \$1;
#X floatatom 398 1125 5 0 0 0 - - -;
#X obj 398 1009 loadbang;
#X obj 398 1033 delay 200;
#X obj 398 1057 bng 15 250 50 0 empty empty empty 17 7 0 10 -262144
-1 -1;
#X msg 556 1078 0.88;
#X msg 643 197 0.5;
#X msg 398 1078 0.834;
#X obj 609 1042 line;
#X floatatom 609 1066 5 0 0 0 - - -;
#X msg 609 1018 0.9 \, 0.7 3000;
#X text 331 55 44;
#X obj 277 43 hsl 128 15 0 127 0 0 empty empty empty -2 -8 0 10 -262144
-1 -1 0 1;
#X floatatom 288 70 5 0 0 0 - - -;
#X text 356 60 22;
#X obj 107 48 bng 15 250 50 0 empty empty empty 17 7 0 10 -262144 -1
-1;
#X obj 107 74 bangcounter 2;
#X obj 106 129 route 1 2;
#X floatatom 107 98 5 0 0 0 - - -;
#X msg 156 174 26;
#X msg 222 157 66;
#X text 149 96 pitch;
#X msg 260 156 0.5;
#X msg 179 201 0.6;
#X connect 0 0 115 0;
#X connect 1 0 33 1;
#X connect 2 0 33 1;
#X connect 3 0 4 0;
#X connect 4 0 33 1;
#X connect 5 0 33 1;
#X connect 6 0 45 0;
#X connect 6 1 46 0;
#X connect 7 0 33 1;
#X connect 8 0 10 0;
#X connect 9 0 26 0;
#X connect 9 0 27 0;
#X connect 9 0 21 0;
#X connect 9 0 106 0;
#X connect 9 0 28 0;
#X connect 10 0 9 0;
#X connect 11 0 12 0;
#X connect 12 0 17 0;
#X connect 14 0 6 2;
#X connect 16 0 6 2;
#X connect 17 0 35 0;
#X connect 17 0 29 0;
#X connect 17 0 18 0;
#X connect 17 0 89 0;
#X connect 18 0 19 0;
#X connect 19 0 6 2;
#X connect 21 0 3 0;
#X connect 26 0 1 0;
#X connect 27 0 2 0;
#X connect 28 0 7 0;
#X connect 29 0 16 0;
#X connect 30 0 66 0;
#X connect 30 0 34 0;
#X connect 30 0 41 0;
#X connect 30 0 67 0;
#X connect 30 0 69 0;
#X connect 30 0 68 0;
#X connect 30 0 88 0;
#X connect 30 0 110 0;
#X connect 31 0 16 0;
#X connect 32 0 19 0;
#X connect 33 0 6 0;
#X connect 33 0 70 0;
#X connect 33 1 6 1;
#X connect 33 1 70 1;
#X connect 35 0 14 0;
#X connect 36 0 6 2;
#X connect 37 0 92 0;
#X connect 37 1 92 1;
#X connect 38 0 37 2;
#X connect 39 0 37 4;
#X connect 40 0 45 1;
#X connect 40 0 46 1;
#X connect 41 0 47 0;
#X connect 41 1 42 0;
#X connect 42 0 40 0;
#X connect 43 0 44 0;
#X connect 44 0 40 0;
#X connect 45 0 37 0;
#X connect 46 0 37 1;
#X connect 47 0 43 0;
#X connect 48 0 49 0;
#X connect 49 0 50 0;
#X connect 50 0 38 0;
#X connect 50 0 57 0;
#X connect 50 0 39 0;
#X connect 50 0 63 0;
#X connect 51 0 52 0;
#X connect 52 0 53 0;
#X connect 53 0 58 0;
#X connect 53 0 56 0;
#X connect 53 0 54 0;
#X connect 53 0 55 0;
#X connect 54 0 40 3;
#X connect 55 0 40 4;
#X connect 56 0 40 2;
#X connect 57 0 37 3;
#X connect 58 0 40 1;
#X connect 59 0 60 0;
#X connect 60 0 37 3;
#X connect 61 0 62 0;
#X connect 62 0 37 2;
#X connect 63 0 37 6;
#X connect 64 0 65 0;
#X connect 65 0 37 6;
#X connect 66 0 33 0;
#X connect 67 0 59 0;
#X connect 68 0 64 0;
#X connect 69 0 61 0;
#X connect 70 0 93 0;
#X connect 70 1 93 1;
#X connect 71 0 72 0;
#X connect 72 0 77 0;
#X connect 74 0 70 2;
#X connect 76 0 70 2;
#X connect 77 0 80 0;
#X connect 77 0 83 0;
#X connect 77 0 84 0;
#X connect 77 0 85 0;
#X connect 78 0 70 2;
#X connect 80 0 74 0;
#X connect 81 0 70 2;
#X connect 83 0 76 0;
#X connect 84 0 78 0;
#X connect 85 0 81 0;
#X connect 86 0 87 0;
#X connect 87 0 37 4;
#X connect 88 0 86 0;
#X connect 89 0 36 0;
#X connect 90 0 101 0;
#X connect 91 0 92 2;
#X connect 92 0 93 0;
#X connect 92 1 93 1;
#X connect 94 0 92 2;
#X connect 95 0 96 0;
#X connect 96 0 94 0;
#X connect 96 0 97 0;
#X connect 96 0 98 0;
#X connect 96 0 99 0;
#X connect 96 0 100 0;
#X connect 97 0 92 2;
#X connect 98 0 92 2;
#X connect 99 0 92 2;
#X connect 100 0 92 2;
#X connect 101 0 91 0;
#X connect 102 0 103 0;
#X connect 103 0 104 0;
#X connect 104 0 107 0;
#X connect 104 0 105 0;
#X connect 105 0 95 0;
#X connect 106 0 5 0;
#X connect 107 0 90 0;
#X connect 108 0 109 0;
#X connect 109 0 91 0;
#X connect 110 0 108 0;
#X connect 112 0 113 0;
#X connect 113 0 2 0;
#X connect 115 0 116 0;
#X connect 116 0 118 0;
#X connect 117 0 119 0;
#X connect 117 0 30 0;
#X connect 117 0 123 0;
#X connect 117 1 120 0;
#X connect 117 1 30 0;
#X connect 117 1 122 0;
#X connect 118 0 117 0;
#X connect 119 0 2 0;
#X connect 120 0 2 0;
#X connect 122 0 5 0;
#X connect 123 0 5 0;
#X coords 0 -1 1 1 120 90 1 100 30;
#X restore 23 623 pd apple;
#N canvas -7 128 1280 751 jakob124 0;
#X obj 96 5 inlet bang;
#X obj 109 129 bng 15 250 50 0 empty empty empty 17 7 0 10 -262144
-1 -1;
#X msg 713 131 speed \$1;
#X msg 797 132 pitch \$1;
#X obj 892 122 / 100;
#X msg 892 146 window \$1;
#X msg 1008 150 gain \$1;
#X msg 1120 144 duration \$1;
#X obj 714 1 loadbang;
#X obj 714 63 delay 1000;
#X obj 714 26 bng 15 250 50 0 empty empty empty 17 7 0 10 -262144 -1
-1;
#X obj 111 464 smp-timestretch2 jakob124.wav;
#X msg 891 93 100;
#X msg 1008 116 1;
#X obj 112 289 bng 15 250 50 0 empty empty empty 17 7 0 10 -262144
-1 -1;
#X obj 259 1117 dac~ 1 2;
#X obj 153 630 e_platereverb jakob124;
#X obj 474 540 hsl 128 15 0 1 0 0 empty empty empty -2 -8 0 10 -262144
-1 -1 7188 1;
#X msg 471 584 dry \$1;
#X msg 591 607 decay \$1;
#X obj 673 553 hsl 128 15 0 1 0 0 empty empty empty -2 -8 0 10 -262144
-1 -1 9500 1;
#X floatatom 671 575 5 0 0 0 - - -;
#X msg 590 633 input_diffusion1 \$1;
#X msg 590 663 input_diffusion2 \$1;
#X msg 589 696 decay_diffusion1 \$1;
#X msg 589 725 decay_diffusion2 \$1;
#X floatatom 471 562 5 0 0 0 - - -;
#X msg 713 103 1;
#X msg 797 104 56.1;
#X msg 671 527 0.748;
#X obj 299 660 loadbang;
#X obj 299 683 delay 300;
#X obj 299 706 bng 15 250 50 0 empty empty empty 17 7 0 10 -262144
-1 -1;
#X msg 471 512 0.566;
#X msg 215 757 0;
#X msg 244 755 0.43;
#X msg 280 754 0.4;
#X msg 1120 120 0.3;
#X msg 425 767 0;
#X msg 463 767 0;
#X msg 506 769 0;
#X msg 547 768 0;
#X msg 588 769 0;
#X msg 109 364 0.53;
#X obj 258 1066 *~;
#X obj 376 1061 *~;
#X obj 295 981 r j124_vol;
#X obj 275 1041 - 0.2;
#X obj 194 189 s j124_vol;
#X obj 267 -8 loadbang;
#X obj 267 24 delay 400;
#X floatatom 295 1005 5 0 0 0 - - -;
#X msg 368 770 0.1;
#X msg 338 773 0.24;
#X obj 163 147 hsl 50 15 0 1 0 0 empty empty empty -2 -8 0 10 -262144
-1 -1 4900 1;
#X obj 267 48 bng 15 250 50 0 empty empty empty 17 7 0 10 -262144 -1
-1;
#X msg 268 76 1;
#X msg 257 424 pitch \$1;
#X obj 321 299 hsl 128 15 0 127 0 0 empty empty empty -2 -8 0 10 -262144
-1 -1 0 1;
#X floatatom 318 319 5 0 0 0 - - -;
#X text 361 320 50;
#X text 361 341 32;
#X floatatom 149 252 5 0 0 0 - - -;
#X obj 113 198 t b b;
#X msg 149 335 56.1;
#X obj 149 228 bangcounter 2;
#X obj 149 303 route 1 2;
#X msg 196 336 32;
#X obj 161 278 s j124_pitch_count;
#X floatatom 197 119 2 0 0 0 - - -;
#X obj 130 55 r j124_pitch_count;
#X text 157 117 pitch;
#X obj 379 856 jakobeq13mitlautstaerke;
#X obj 162 858 jakobeq13mitlautstaerke;
#X msg 633 772 0.7;
#X connect 0 0 1 0;
#X connect 1 0 63 0;
#X connect 2 0 11 1;
#X connect 3 0 11 1;
#X connect 4 0 5 0;
#X connect 5 0 11 1;
#X connect 6 0 11 1;
#X connect 7 0 11 1;
#X connect 8 0 10 0;
#X connect 9 0 27 0;
#X connect 9 0 28 0;
#X connect 9 0 12 0;
#X connect 9 0 13 0;
#X connect 9 0 37 0;
#X connect 9 0 33 0;
#X connect 9 0 29 0;
#X connect 10 0 9 0;
#X connect 11 0 16 0;
#X connect 11 1 16 1;
#X connect 12 0 4 0;
#X connect 13 0 6 0;
#X connect 14 0 43 0;
#X connect 16 0 73 0;
#X connect 16 1 72 0;
#X connect 17 0 26 0;
#X connect 18 0 16 2;
#X connect 19 0 16 2;
#X connect 20 0 21 0;
#X connect 21 0 19 0;
#X connect 21 0 22 0;
#X connect 21 0 23 0;
#X connect 21 0 24 0;
#X connect 21 0 25 0;
#X connect 23 0 16 2;
#X connect 24 0 16 2;
#X connect 25 0 16 2;
#X connect 26 0 18 0;
#X connect 27 0 2 0;
#X connect 28 0 3 0;
#X connect 29 0 20 0;
#X connect 30 0 31 0;
#X connect 31 0 32 0;
#X connect 32 0 35 0;
#X connect 32 0 36 0;
#X connect 32 0 38 0;
#X connect 32 0 39 0;
#X connect 32 0 40 0;
#X connect 32 0 41 0;
#X connect 32 0 42 0;
#X connect 32 0 34 0;
#X connect 32 0 52 0;
#X connect 32 0 53 0;
#X connect 32 0 74 0;
#X connect 33 0 17 0;
#X connect 34 0 72 1;
#X connect 34 0 73 1;
#X connect 35 0 72 2;
#X connect 35 0 73 2;
#X connect 36 0 72 3;
#X connect 36 0 73 3;
#X connect 37 0 7 0;
#X connect 38 0 72 8;
#X connect 38 0 73 8;
#X connect 39 0 72 9;
#X connect 39 0 73 9;
#X connect 40 0 72 10;
#X connect 40 0 73 10;
#X connect 41 0 72 11;
#X connect 41 0 73 11;
#X connect 42 0 72 12;
#X connect 42 0 73 12;
#X connect 43 0 11 0;
#X connect 44 0 15 0;
#X connect 45 0 15 1;
#X connect 46 0 51 0;
#X connect 47 0 44 1;
#X connect 49 0 50 0;
#X connect 50 0 55 0;
#X connect 51 0 47 0;
#X connect 51 0 45 1;
#X connect 52 0 72 7;
#X connect 52 0 73 7;
#X connect 53 0 72 6;
#X connect 53 0 73 6;
#X connect 54 0 48 0;
#X connect 55 0 56 0;
#X connect 56 0 54 0;
#X connect 57 0 11 1;
#X connect 58 0 59 0;
#X connect 59 0 57 0;
#X connect 62 0 66 0;
#X connect 62 0 68 0;
#X connect 63 0 14 0;
#X connect 63 1 65 0;
#X connect 64 0 57 0;
#X connect 65 0 62 0;
#X connect 66 0 64 0;
#X connect 66 1 67 0;
#X connect 67 0 57 0;
#X connect 70 0 69 0;
#X connect 72 0 45 0;
#X connect 73 0 44 0;
#X connect 74 0 72 14;
#X connect 74 0 73 14;
#X coords 0 -1 1 1 119 80 1 100 100;
#X restore 1027 706 pd jakob124;
#X obj 1112 618 r MAIN_RND_12;
#X obj 1112 642 bng 15 250 50 0 empty empty empty 17 7 0 10 -262144
-1 -1;
#X obj 1132 672 bng 15 250 50 0 empty empty empty 17 7 0 10 -262144
-1 -1;
#X obj 1132 648 r MAIN_RND_14;
#X obj 156 101 r MAIN_RND_RARE;
#X obj 154 125 bng 15 250 50 0 empty empty empty 17 7 0 10 -262144
-1 -1;
#X obj 156 145 t b b b;
#X floatatom 163 262 5 0 0 0 - - -;
#X msg 163 203 0.5 5000;
#X obj 163 238 line 0.5;
#X obj 156 178 delay 10000;
#X msg 238 142 0.25 10000;
#X obj 107 293 random 2;
#X obj 107 317 route 0;
#X obj 107 341 bng 15 250 50 0 empty empty empty 17 7 0 10 -262144
-1 -1;
#X obj 153 343 bng 15 250 50 0 empty empty empty 17 7 0 10 -262144
-1 -1;
#X obj 512 250 bng 15 250 50 0 empty empty empty 17 7 0 10 -262144
-1 -1;
#X obj 784 258 bng 15 250 50 0 empty empty empty 17 7 0 10 -262144
-1 -1;
#X obj 1025 252 bng 15 250 50 0 empty empty empty 17 7 0 10 -262144
-1 -1;
#X obj 682 183 switch~;
#X obj 706 154 tgl 15 0 empty empty empty 17 7 0 10 -262144 -1 -1 1
1;
#X obj 707 77 loadbang;
#X obj 707 102 delay 1000;
#X msg 707 126 1;
#X obj 1179 297 bng 15 250 50 0 empty empty empty 17 7 0 10 -262144
-1 -1;
#X text 439 242 SENSORS;
#X obj 348 559 bng 15 250 50 0 empty empty empty 17 7 0 10 -262144
-1 -1;
#X obj 983 554 bng 15 250 50 0 empty empty empty 17 7 0 10 -262144
-1 -1;
#X obj 512 320 bng 15 250 50 0 empty empty empty 17 7 0 10 -262144
-1 -1;
#X obj 536 319 bng 15 250 50 0 empty empty empty 17 7 0 10 -262144
-1 -1;
#X obj 513 295 route 0 1 2;
#X obj 512 270 random 3;
#X obj 561 320 bng 15 250 50 0 empty empty empty 17 7 0 10 -262144
-1 -1;
#X obj 352 632 bng 15 250 50 0 empty empty empty 17 7 0 10 -262144
-1 -1;
#X obj 380 632 bng 15 250 50 0 empty empty empty 17 7 0 10 -262144
-1 -1;
#X obj 983 624 bng 15 250 50 0 empty empty empty 17 7 0 10 -262144
-1 -1;
#X obj 1011 623 bng 15 250 50 0 empty empty empty 17 7 0 10 -262144
-1 -1;
#X obj 983 574 random 4;
#X obj 983 599 route 0 1 2 3;
#X obj 1032 624 bng 15 250 50 0 empty empty empty 17 7 0 10 -262144
-1 -1;
#X obj 1055 625 bng 15 250 50 0 empty empty empty 17 7 0 10 -262144
-1 -1;
#X obj 352 582 random 3;
#X obj 352 607 route 0 1 2;
#X obj 411 644 bng 15 250 50 0 empty empty empty 17 7 0 10 -262144
-1 -1;
#X obj 1179 317 random 3;
#X obj 1179 342 route 0 1 2;
#X obj 1179 367 bng 15 250 50 0 empty empty empty 17 7 0 10 -262144
-1 -1;
#X obj 1205 366 bng 15 250 50 0 empty empty empty 17 7 0 10 -262144
-1 -1;
#X obj 1231 367 bng 15 250 50 0 empty empty empty 17 7 0 10 -262144
-1 -1;
#X connect 3 0 0 2;
#X connect 4 0 3 0;
#X connect 5 0 6 0;
#X connect 6 0 0 3;
#X connect 8 0 9 0;
#X connect 8 1 9 1;
#X connect 10 0 8 0;
#X connect 11 0 7 2;
#X connect 12 0 7 2;
#X connect 13 0 12 0;
#X connect 14 0 15 0;
#X connect 15 0 7 1;
#X connect 16 0 7 2;
#X connect 17 0 16 0;
#X connect 19 0 11 0;
#X connect 20 0 21 0;
#X connect 21 0 0 6;
#X connect 22 0 18 0;
#X connect 23 0 22 0;
#X connect 26 0 18 0;
#X connect 27 0 26 0;
#X connect 28 0 25 0;
#X connect 30 0 31 0;
#X connect 31 0 29 0;
#X connect 32 0 29 0;
#X connect 33 0 32 0;
#X connect 34 0 29 0;
#X connect 35 0 34 0;
#X connect 36 0 29 0;
#X connect 37 0 36 0;
#X connect 37 0 29 0;
#X connect 38 0 29 0;
#X connect 39 0 38 0;
#X connect 39 0 29 0;
#X connect 40 0 29 0;
#X connect 41 0 40 0;
#X connect 42 0 44 0;
#X connect 43 0 45 0;
#X connect 44 0 29 2;
#X connect 45 0 29 3;
#X connect 47 0 48 0;
#X connect 48 0 7 3;
#X connect 50 0 78 0;
#X connect 51 0 79 0;
#X connect 52 0 80 0;
#X connect 53 0 86 0;
#X connect 54 0 89 0;
#X connect 55 0 88 0;
#X connect 56 0 59 0;
#X connect 57 0 58 0;
#X connect 58 0 60 2;
#X connect 59 0 60 1;
#X connect 62 0 63 0;
#X connect 63 0 61 0;
#X connect 64 0 61 0;
#X connect 65 0 64 0;
#X connect 66 0 67 0;
#X connect 67 0 68 0;
#X connect 68 0 72 0;
#X connect 68 2 73 0;
#X connect 70 0 71 0;
#X connect 71 0 69 0;
#X connect 72 0 70 0;
#X connect 72 0 74 0;
#X connect 73 0 71 0;
#X connect 74 0 75 0;
#X connect 75 0 76 0;
#X connect 75 1 77 0;
#X connect 76 0 0 0;
#X connect 78 0 93 0;
#X connect 79 0 7 0;
#X connect 80 0 18 0;
#X connect 82 0 81 0;
#X connect 83 0 84 0;
#X connect 84 0 85 0;
#X connect 85 0 82 0;
#X connect 86 0 106 0;
#X connect 88 0 103 0;
#X connect 89 0 99 0;
#X connect 90 0 2 0;
#X connect 91 0 1 0;
#X connect 92 0 90 0;
#X connect 92 1 91 0;
#X connect 92 2 94 0;
#X connect 93 0 92 0;
#X connect 94 0 60 0;
#X connect 95 0 46 0;
#X connect 96 0 7 0;
#X connect 97 0 18 0;
#X connect 98 0 61 0;
#X connect 99 0 100 0;
#X connect 100 0 97 0;
#X connect 100 1 98 0;
#X connect 100 2 101 0;
#X connect 100 3 102 0;
#X connect 101 0 2 0;
#X connect 102 0 60 0;
#X connect 103 0 104 0;
#X connect 104 0 95 0;
#X connect 104 1 96 0;
#X connect 104 2 105 0;
#X connect 105 0 24 0;
#X connect 106 0 107 0;
#X connect 107 0 108 0;
#X connect 107 1 109 0;
#X connect 107 2 110 0;
#X connect 108 0 24 0;
#X connect 109 0 1 0;
#X connect 110 0 2 0;
#X restore 18 350 pd sound;
#X obj 17 170 r trigger_lamp1;
#X obj 17 195 bng 15 250 50 0 empty empty empty 17 7 0 10 -262144 -1
-1;
#X obj 130 170 r trigger_lamp2;
#X obj 243 170 r trigger_lamp3;
#X obj 358 169 r trigger_lamp4;
#X obj 484 172 r trigger_lamp5;
#X obj 603 172 r trigger_lamp6;
#X obj 130 195 bng 15 250 50 0 empty empty empty 17 7 0 10 -262144
-1 -1;
#X obj 243 195 bng 15 250 50 0 empty empty empty 17 7 0 10 -262144
-1 -1;
#X obj 358 194 bng 15 250 50 0 empty empty empty 17 7 0 10 -262144
-1 -1;
#X obj 484 197 bng 15 250 50 0 empty empty empty 17 7 0 10 -262144
-1 -1;
#X obj 603 197 bng 15 250 50 0 empty empty empty 17 7 0 10 -262144
-1 -1;
#X connect 6 0 7 0;
#X connect 7 0 4 0;
#X connect 8 0 13 0;
#X connect 9 0 14 0;
#X connect 10 0 15 0;
#X connect 11 0 16 0;
#X connect 12 0 17 0;
#X connect 13 0 4 1;
#X connect 14 0 4 2;
#X connect 15 0 4 3;
#X connect 16 0 4 4;
#X connect 17 0 4 5;
