#N canvas 5 29 1910 1023 12;
#X obj 353 362 additive-voice;
#X obj 682 610 delwrite~ add_left 500;
#X obj 667 641 delwrite~ add_right 750;
#X obj 185 736 delread~ add_left 500;
#X obj 229 768 delread~ add_right 750;
#X obj 185 919 dac~;
#X obj 286 925 delwrite~ add_left_fb 500;
#X obj 271 956 delwrite~ add_right_fb 750;
#X obj 50 666 delread~ add_left_fb 500;
#X obj 108 698 delread~ add_right_fb 750;
#X obj 448 183 bng 15 250 50 0 empty empty empty 17 7 0 10 -262144
-1 -1;
#X floatatom 353 333 5 0 0 0 - - -, f 5;
#X obj 353 248 bng 15 250 50 0 empty empty empty 17 7 0 10 -262144
-1 -1;
#X obj 185 823 *~ 0.5;
#X obj 215 864 *~ 0.5;
#X obj 552 523 *~;
#X obj 839 533 vline~;
#X obj 902 463 delay 1000;
#X msg 902 496 0 2000;
#X msg 839 487 1 1000;
#X obj 552 364 additive-voice;
#X obj 647 345 bng 15 250 50 0 empty empty empty 17 7 0 10 -262144
-1 -1;
#X floatatom 552 335 5 0 0 0 - - -, f 5;
#X obj 747 364 additive-voice;
#X obj 842 345 bng 15 250 50 0 empty empty empty 17 7 0 10 -262144
-1 -1;
#X floatatom 747 335 5 0 0 0 - - -, f 5;
#X obj 552 642 dac~;
#X obj 886 367 additive-voice;
#X obj 981 347 bng 15 250 50 0 empty empty empty 17 7 0 10 -262144
-1 -1;
#X floatatom 886 338 5 0 0 0 - - -, f 5;
#X obj 353 127 trig16;
#X obj 353 26 tgl 15 0 empty empty empty 17 7 0 10 -262144 -1 -1 1
1;
#X obj 353 53 metro 250;
#X obj 88 394 rand-perc;
#X obj 162 602 dac~;
#X obj 162 439 *~;
#X obj 188 409 vline~;
#X floatatom 128 293 5 0 0 0 - - -, f 5;
#X msg 188 380 1 0 \, 0 50;
#X floatatom 148 338 5 0 0 0 - - -, f 5;
#X obj 148 82 sin;
#X obj 260 111 f;
#X obj 301 111 + 1;
#X obj 148 132 * 50;
#X obj 148 158 + 5;
#X obj 148 55 / 100;
#X obj 148 106 abs;
#X msg 109 261 105;
#X obj 369 88 s clock;
#X obj 187 196 r clock;
#X obj 260 140 s counter;
#X obj 148 28 r counter;
#X obj 76 82 sin;
#X obj 76 55 / 100;
#X obj 76 106 abs;
#X obj 76 28 r counter;
#X obj 76 132 * 100;
#X obj 275 490 stereo-delay;
#X obj 1008 366 additive-voice;
#X obj 1103 346 bng 15 250 50 0 empty empty empty 17 7 0 10 -262144
-1 -1;
#X obj 1008 337 - 12;
#X text 52 639 additive chords delay component;
#X text 455 92 additive synthesis chords;
#X text 24 224 icy click;
#X msg 260 42 0;
#X obj 552 570 *~ 0.2;
#X obj 1153 251 noise~;
#X obj 1153 379 bp~;
#X obj 1197 330 line;
#X floatatom 1288 338 5 0 0 0 - - -, f 5;
#X obj 1153 475 lop~;
#X obj 1240 433 line;
#X obj 1153 593 *~;
#X obj 1153 677 dac~;
#X obj 1191 547 vline~;
#X obj 1367 215 bng 15 250 50 0 empty empty empty 17 7 0 10 -262144
-1 -1;
#X msg 1240 402 50000 0 \, 0 100;
#X obj 1370 329 sin;
#X obj 1370 405 + 5;
#X obj 1370 353 abs;
#X obj 1370 275 r counter;
#X obj 1370 302 / 10;
#X obj 1367 68 % 2;
#X obj 1367 95 sel 0;
#X obj 1367 32 r counter;
#X msg 1191 520 1 1 \, 0.2 0 20 \, 0 0 10;
#X obj 1370 379 * 3;
#X msg 1197 299 10000 0 \, 5000 100;
#X obj 1276 89 % 16;
#X obj 1276 118 sel 8;
#X obj 1223 89 % 16;
#X obj 1276 156 tgl 15 0 empty empty empty 17 7 0 10 -262144 -1 -1
0 1;
#X obj 1223 118 sel 9;
#X obj 1276 178 metro 50;
#X obj 1153 627 *~ 0.2;
#X obj 1498 260 cymbal;
#X obj 1498 349 dac~;
#X obj 1473 128 bng 15 250 50 0 empty empty empty 17 7 0 10 -262144
-1 -1;
#X obj 1512 189 unpack f f f f f f f f f;
#X msg 1512 158 105 300 2500 100 2525 1000 50 5678 8765;
#X obj 1473 96 sel 0;
#X obj 1473 33 r counter;
#X obj 1473 69 % 16;
#X obj 275 442 unpack f f f;
#X msg 275 415 750 500 0.5;
#X msg 776 198 44 47 51 54;
#X msg 884 198 41 45 48 52;
#X obj 828 244 unpack f f f f;
#X text 372 23 press here to start;
#X obj 1552 561 cymbal;
#X obj 1552 746 dac~;
#X obj 1566 490 unpack f f f f f f f f f;
#X obj 1546 303 r counter;
#X obj 1546 392 bng 15 250 50 0 empty empty empty 17 7 0 10 -262144
-1 -1;
#X obj 1598 637 vline~;
#X obj 1552 678 *~;
#X obj 1546 356 sel 2;
#X obj 1546 329 % 3;
#X obj 830 103 f;
#X obj 864 103 + 1;
#X obj 830 132 % 2;
#X obj 830 159 sel 0;
#X obj 830 74 sel 0;
#X obj 830 20 r counter;
#X text 888 59 chord switcher;
#X obj 830 47 % 256;
#X msg 1598 608 1 0 \, 0 50;
#X msg 1566 459 305 200 1500 30 1115 550 30 2228 9765;
#X obj 727 773 *~ 0.5;
#X obj 899 773 *~ 0.5;
#X obj 834 825 dac~;
#X msg 914 620 3;
#X msg 958 620 2;
#X obj 914 652 s left_delay;
#X msg 1011 620 3;
#X msg 1055 620 2;
#X obj 254 231 s first_trig;
#X obj 974 580 sel 0;
#X obj 974 553 % 2;
#X obj 974 524 f;
#X obj 1007 524 + 1;
#X obj 1011 652 s right_delay;
#X obj 974 497 r first_trig;
#X obj 727 717 r left_delay;
#X obj 727 746 delread~ stereo_left \$1;
#X obj 899 717 r right_delay;
#X obj 899 746 delread~ stereo_right \$1;
#X obj 429 588 r left_delay;
#X obj 367 635 r right_delay;
#X obj 493 667 delwrite~ stereo_left \$1;
#X obj 438 693 delwrite~ stereo_right \$1;
#X obj 1326 834 sq;
#X obj 1286 710 +;
#X msg 1304 675 3;
#X msg 1340 675 7;
#X msg 1376 675 10;
#X obj 1304 614 random 4;
#X obj 1304 642 sel 0 1 2 3;
#X msg 1413 675 0;
#X obj 440 393 s chordbase;
#X obj 1211 660 r chordbase;
#X obj 1463 721 % 16;
#X obj 1463 790 tgl 15 0 empty empty empty 17 7 0 10 -262144 -1 -1
0 15;
#X obj 1463 812 metro 50;
#X obj 1463 692 r counter;
#X obj 1304 589 r clock;
#X obj 1326 905 *~;
#X obj 1387 874 vline~;
#X obj 1326 968 dac~;
#X obj 1286 738 mtof;
#X obj 1410 752 sel 10;
#X obj 1463 752 sel 9;
#X msg 1463 840 0.1 0 \, 0 20;
#X msg 1354 792 50;
#X obj 1326 870 vcf~ 3;
#X obj 1245 835 sig~;
#X floatatom 1245 808 5 0 0 0 - - -, f 5;
#X obj 1176 793 sin;
#X obj 1176 817 abs;
#X obj 1176 739 r counter;
#X obj 1176 766 / 10;
#X obj 1176 843 * 5000;
#X obj 1567 912 stereo-delay;
#X obj 1567 864 unpack f f f;
#X obj 1567 971 dac~;
#X obj 1567 808 r clock;
#X obj 1286 765 * 5;
#X msg 1567 837 750 500 0.75;
#X floatatom 207 161 5 0 0 0 - - -, f 5;
#X obj 80 465 > 65;
#X obj 162 563 *~;
#X obj 275 569 *~;
#X obj 356 567 *~;
#X obj 80 434 r counter;
#X obj 1398 446 r counter;
#X obj 1398 473 > 105;
#X obj 1675 628 r counter;
#X obj 1675 659 > 175;
#X obj 1552 708 *~;
#X obj 1693 205 r counter;
#X obj 1693 236 > 195;
#X obj 1498 306 *~;
#X obj 1689 775 r counter;
#X obj 1689 806 > 255;
#X obj 1326 938 *~;
#X obj 1567 940 *~;
#X obj 1648 940 *~;
#X obj 1398 499 / 5;
#X text 774 689 mild haas/precedence effect;
#X connect 0 0 15 0;
#X connect 3 0 13 0;
#X connect 4 0 13 0;
#X connect 8 0 13 0;
#X connect 9 0 13 0;
#X connect 10 0 0 1;
#X connect 10 0 21 0;
#X connect 10 0 24 0;
#X connect 10 0 28 0;
#X connect 10 0 59 0;
#X connect 11 0 0 0;
#X connect 11 0 60 0;
#X connect 11 0 159 0;
#X connect 12 0 11 0;
#X connect 12 0 17 0;
#X connect 12 0 19 0;
#X connect 12 0 22 0;
#X connect 12 0 25 0;
#X connect 12 0 29 0;
#X connect 13 0 5 0;
#X connect 13 0 5 1;
#X connect 13 0 14 0;
#X connect 14 0 6 0;
#X connect 14 0 7 0;
#X connect 15 0 65 0;
#X connect 16 0 15 1;
#X connect 17 0 18 0;
#X connect 18 0 16 0;
#X connect 19 0 16 0;
#X connect 20 0 15 0;
#X connect 21 0 20 1;
#X connect 22 0 20 0;
#X connect 23 0 15 0;
#X connect 24 0 23 1;
#X connect 25 0 23 0;
#X connect 27 0 15 0;
#X connect 28 0 27 1;
#X connect 29 0 27 0;
#X connect 30 0 12 0;
#X connect 30 0 136 0;
#X connect 30 5 10 0;
#X connect 31 0 32 0;
#X connect 32 0 41 0;
#X connect 32 0 48 0;
#X connect 32 0 30 0;
#X connect 33 0 35 0;
#X connect 35 0 57 0;
#X connect 35 0 190 0;
#X connect 36 0 35 1;
#X connect 37 0 33 2;
#X connect 38 0 36 0;
#X connect 39 0 33 3;
#X connect 40 0 46 0;
#X connect 41 0 42 0;
#X connect 41 0 50 0;
#X connect 41 0 188 0;
#X connect 42 0 41 1;
#X connect 43 0 44 0;
#X connect 44 0 39 0;
#X connect 45 0 40 0;
#X connect 46 0 43 0;
#X connect 47 0 33 1;
#X connect 49 0 38 0;
#X connect 49 0 37 0;
#X connect 49 0 47 0;
#X connect 49 0 104 0;
#X connect 49 0 33 0;
#X connect 51 0 45 0;
#X connect 52 0 54 0;
#X connect 53 0 52 0;
#X connect 54 0 56 0;
#X connect 55 0 53 0;
#X connect 56 0 37 0;
#X connect 57 0 191 0;
#X connect 57 1 192 0;
#X connect 58 0 15 0;
#X connect 59 0 58 1;
#X connect 60 0 58 0;
#X connect 64 0 41 0;
#X connect 65 0 26 0;
#X connect 65 0 26 1;
#X connect 65 0 1 0;
#X connect 65 0 2 0;
#X connect 65 0 149 0;
#X connect 65 0 150 0;
#X connect 66 0 67 0;
#X connect 67 0 70 0;
#X connect 68 0 67 1;
#X connect 69 0 67 2;
#X connect 70 0 72 0;
#X connect 71 0 70 1;
#X connect 72 0 94 0;
#X connect 74 0 72 1;
#X connect 75 0 87 0;
#X connect 75 0 76 0;
#X connect 75 0 85 0;
#X connect 76 0 71 0;
#X connect 77 0 79 0;
#X connect 78 0 69 0;
#X connect 79 0 86 0;
#X connect 80 0 81 0;
#X connect 81 0 77 0;
#X connect 82 0 83 0;
#X connect 83 0 75 0;
#X connect 84 0 82 0;
#X connect 84 0 88 0;
#X connect 84 0 90 0;
#X connect 85 0 74 0;
#X connect 86 0 78 0;
#X connect 87 0 68 0;
#X connect 88 0 89 0;
#X connect 89 0 91 0;
#X connect 90 0 92 0;
#X connect 91 0 93 0;
#X connect 92 0 91 0;
#X connect 93 0 75 0;
#X connect 94 0 73 0;
#X connect 94 0 73 1;
#X connect 95 0 201 0;
#X connect 97 0 95 0;
#X connect 97 0 99 0;
#X connect 98 0 95 1;
#X connect 98 1 95 2;
#X connect 98 2 95 3;
#X connect 98 3 95 4;
#X connect 98 4 95 5;
#X connect 98 5 95 6;
#X connect 98 6 95 7;
#X connect 98 7 95 8;
#X connect 98 8 95 9;
#X connect 99 0 98 0;
#X connect 100 0 97 0;
#X connect 101 0 102 0;
#X connect 102 0 100 0;
#X connect 103 0 57 1;
#X connect 103 1 57 2;
#X connect 103 2 57 3;
#X connect 103 2 57 4;
#X connect 104 0 103 0;
#X connect 105 0 107 0;
#X connect 106 0 107 0;
#X connect 107 0 11 0;
#X connect 107 1 22 0;
#X connect 107 2 25 0;
#X connect 107 3 29 0;
#X connect 109 0 115 0;
#X connect 111 0 109 1;
#X connect 111 1 109 2;
#X connect 111 2 109 3;
#X connect 111 3 109 4;
#X connect 111 4 109 5;
#X connect 111 5 109 6;
#X connect 111 6 109 7;
#X connect 111 7 109 8;
#X connect 111 8 109 9;
#X connect 112 0 117 0;
#X connect 113 0 126 0;
#X connect 113 0 127 0;
#X connect 113 0 109 0;
#X connect 114 0 115 1;
#X connect 115 0 198 0;
#X connect 116 0 113 0;
#X connect 117 0 116 0;
#X connect 118 0 119 0;
#X connect 118 0 120 0;
#X connect 119 0 118 1;
#X connect 120 0 121 0;
#X connect 121 0 105 0;
#X connect 121 1 106 0;
#X connect 122 0 118 0;
#X connect 123 0 125 0;
#X connect 125 0 122 0;
#X connect 126 0 114 0;
#X connect 127 0 111 0;
#X connect 128 0 130 0;
#X connect 129 0 130 1;
#X connect 131 0 133 0;
#X connect 132 0 133 0;
#X connect 134 0 141 0;
#X connect 135 0 141 0;
#X connect 137 0 131 0;
#X connect 137 0 135 0;
#X connect 137 1 132 0;
#X connect 137 1 134 0;
#X connect 138 0 137 0;
#X connect 139 0 140 0;
#X connect 139 0 138 0;
#X connect 140 0 139 1;
#X connect 142 0 139 0;
#X connect 143 0 144 0;
#X connect 144 0 128 0;
#X connect 145 0 146 0;
#X connect 146 0 129 0;
#X connect 147 0 149 0;
#X connect 148 0 150 0;
#X connect 151 0 174 0;
#X connect 152 0 169 0;
#X connect 153 0 152 1;
#X connect 154 0 152 1;
#X connect 155 0 152 1;
#X connect 156 0 157 0;
#X connect 157 0 153 0;
#X connect 157 1 154 0;
#X connect 157 2 155 0;
#X connect 157 3 158 0;
#X connect 158 0 152 1;
#X connect 160 0 152 0;
#X connect 161 0 170 0;
#X connect 161 0 171 0;
#X connect 162 0 163 0;
#X connect 163 0 172 0;
#X connect 164 0 161 0;
#X connect 165 0 156 0;
#X connect 165 0 173 0;
#X connect 166 0 182 0;
#X connect 166 0 204 0;
#X connect 167 0 166 1;
#X connect 169 0 186 0;
#X connect 170 0 162 0;
#X connect 171 0 162 0;
#X connect 172 0 167 0;
#X connect 173 0 151 2;
#X connect 174 1 166 0;
#X connect 175 0 174 1;
#X connect 176 0 175 0;
#X connect 177 0 178 0;
#X connect 178 0 181 0;
#X connect 179 0 180 0;
#X connect 180 0 177 0;
#X connect 181 0 176 0;
#X connect 182 0 205 0;
#X connect 182 1 206 0;
#X connect 183 0 182 1;
#X connect 183 1 182 2;
#X connect 183 2 182 3;
#X connect 183 2 182 4;
#X connect 185 0 187 0;
#X connect 186 0 151 0;
#X connect 187 0 183 0;
#X connect 189 0 190 1;
#X connect 189 0 191 1;
#X connect 189 0 192 1;
#X connect 190 0 34 0;
#X connect 190 0 34 1;
#X connect 191 0 34 0;
#X connect 192 0 34 1;
#X connect 193 0 189 0;
#X connect 194 0 195 0;
#X connect 195 0 207 0;
#X connect 196 0 197 0;
#X connect 197 0 198 1;
#X connect 198 0 110 0;
#X connect 198 0 110 1;
#X connect 199 0 200 0;
#X connect 200 0 201 1;
#X connect 201 0 96 0;
#X connect 201 0 96 1;
#X connect 202 0 203 0;
#X connect 203 0 206 1;
#X connect 203 0 205 1;
#X connect 203 0 204 1;
#X connect 204 0 168 0;
#X connect 204 0 168 1;
#X connect 205 0 184 0;
#X connect 206 0 184 1;
#X connect 207 0 94 1;
