#N canvas 550 177 772 787 12;
#X obj 363 229 noise~;
#X obj 363 616 *~;
#X obj 108 133 hsl 67 15 0 1 0 0 empty empty empty -2 -8 0 10 -262144
-1 -1 0 1;
#X floatatom 105 153 5 0 0 0 - - -;
#X obj 105 227 s \$0-volume;
#X obj 386 313 r \$0-volume;
#X text 111 115 vol;
#X obj 193 134 hsl 67 15 0 1 0 0 empty empty empty -2 -8 0 10 -262144
-1 -1 0 1;
#X floatatom 190 154 5 0 0 0 - - -;
#X text 190 116 bandpass f;
#X obj 190 266 s \$0-bandpassfreq;
#X obj 105 42 loadbang;
#X msg 105 66 0.3;
#X obj 190 45 loadbang;
#X floatatom 190 201 5 0 0 0 - - -;
#X obj 432 214 r \$0-bandpassfreq;
#X floatatom 432 238 5 0 0 0 - - -;
#X obj 363 269 bp~ 1000 5;
#X msg 190 69 0.1;
#X obj 317 17 inlet sensordata;
#X floatatom 317 41 5 0 0 0 - - -;
#X obj 415 44 hsl 128 15 1 255 0 0 empty empty empty -2 -8 0 10 -262144
-1 -1 0 1;
#X floatatom 410 74 5 0 0 0 - - -;
#X obj 190 177 * 15000;
#X obj 363 693 outlet~ left;
#X obj 481 694 outlet~ right;
#X obj 381 585 vline~;
#X floatatom 386 347 5 0 0 0 - - -;
#X obj 454 430 + 1;
#X obj 386 370 t f b;
#X floatatom 454 454 5 0 0 0 - - -;
#X msg 386 545 \$1 \, 0 \$2;
#X obj 386 490 pack f f;
#X obj 454 406 random 20;
#X text 482 431 randomize decay time;
#X text 446 16 0..1;
#X connect 0 0 17 0;
#X connect 1 0 25 0;
#X connect 1 0 24 0;
#X connect 2 0 3 0;
#X connect 3 0 4 0;
#X connect 5 0 27 0;
#X connect 7 0 8 0;
#X connect 8 0 23 0;
#X connect 11 0 12 0;
#X connect 12 0 2 0;
#X connect 13 0 18 0;
#X connect 14 0 10 0;
#X connect 15 0 16 0;
#X connect 16 0 17 1;
#X connect 17 0 1 0;
#X connect 18 0 7 0;
#X connect 19 0 20 0;
#X connect 20 0 2 0;
#X connect 20 0 7 0;
#X connect 21 0 22 0;
#X connect 23 0 14 0;
#X connect 26 0 1 1;
#X connect 27 0 29 0;
#X connect 28 0 30 0;
#X connect 29 0 32 0;
#X connect 29 1 33 0;
#X connect 30 0 32 1;
#X connect 31 0 26 0;
#X connect 32 0 31 0;
#X connect 33 0 28 0;
#X coords 0 -1 1 1 170 100 1 100 100;
