#N canvas 334 226 960 690 10;
#X obj 609 116 hsl 128 15 0 1500 0 0 empty empty empty -2 -8 0 10 -262144
-1 -1 2117 1;
#X floatatom 606 139 5 0 0 0 - - -;
#X text 642 138 delay time;
#X obj 87 405 *~;
#X obj 49 566 *~ 0.4;
#X obj 34 48 inlet~ left;
#X obj 140 51 inlet~ right;
#X obj 52 170 delwrite~ \$0-delayLineLeft 5000;
#X obj 255 169 delwrite~ \$0-delayLineRight 5000;
#X obj 469 237 s \$0-delayTime;
#X obj 49 260 r \$0-delayTime;
#X obj 49 287 delread~ \$0-delayLineLeft 100;
#X obj 608 170 hsl 128 15 0 1 0 0 empty empty empty -2 -8 0 10 -262144
-1 -1 7620 1;
#X floatatom 605 190 5 0 0 0 - - -;
#X text 637 186 delay feedback;
#X obj 837 99 loadbang;
#X obj 469 267 s \$0-delayFeedbackAmnt;
#X obj 102 378 r \$0-delayFeedbackAmnt;
#X obj 265 568 *~ 0.4;
#X obj 265 272 r \$0-delayTime;
#X obj 265 299 delread~ \$0-delayLineRight 100;
#X obj 317 413 *~;
#X obj 332 386 r \$0-delayFeedbackAmnt;
#X obj 298 534 r \$0-delayVolume;
#X obj 82 527 r \$0-delayVolume;
#X obj 607 216 hsl 128 15 0 1 0 0 empty empty empty -2 -8 0 10 -262144
-1 -1 5080 1;
#X floatatom 604 236 5 0 0 0 - - -;
#X text 636 232 delay volumme;
#X obj 468 305 s \$0-delayVolume;
#X obj 897 100 loadbang;
#X obj 49 645 outlet~ left;
#X obj 265 644 outlet~ right;
#X msg 831 125 0.6;
#X msg 897 123 0.4;
#X obj 87 430 send~ \$0-delayFeedbackLeft;
#X obj 71 139 receive~ \$0-delayFeedbackLeft;
#X obj 317 438 send~ \$0-delayFeedbackRight;
#X obj 285 138 receive~ \$0-delayFeedbackRight;
#X obj 670 50 inlet delaytime;
#X obj 608 76 f \$1;
#X obj 608 48 loadbang;
#X obj 782 49 loadbang;
#X obj 844 51 inlet feedback;
#X obj 782 72 f \$2;
#X connect 0 0 1 0;
#X connect 1 0 9 0;
#X connect 3 0 34 0;
#X connect 4 0 30 0;
#X connect 5 0 7 0;
#X connect 6 0 8 0;
#X connect 10 0 11 0;
#X connect 11 0 3 0;
#X connect 11 0 4 0;
#X connect 12 0 13 0;
#X connect 13 0 16 0;
#X connect 15 0 32 0;
#X connect 17 0 3 1;
#X connect 18 0 31 0;
#X connect 19 0 20 0;
#X connect 20 0 18 0;
#X connect 20 0 21 0;
#X connect 21 0 36 0;
#X connect 22 0 21 1;
#X connect 23 0 18 1;
#X connect 24 0 4 1;
#X connect 25 0 26 0;
#X connect 26 0 28 0;
#X connect 29 0 33 0;
#X connect 32 0 12 0;
#X connect 33 0 25 0;
#X connect 35 0 7 0;
#X connect 37 0 8 0;
#X connect 38 0 0 0;
#X connect 39 0 0 0;
#X connect 40 0 39 0;
#X connect 41 0 43 0;
#X connect 42 0 12 0;
#X connect 43 0 12 0;
#X coords 0 -1 1 1 150 160 1 600 100;
