#N canvas 588 137 599 557 12;
#X obj 362 169 noise~;
#X obj 365 346 *~;
#X obj 108 133 hsl 67 15 0 1 0 0 empty empty empty -2 -8 0 10 -262144
-1 -1 0 1;
#X floatatom 105 153 5 0 0 0 - - -;
#X obj 105 227 s \$0-volume;
#X obj 383 319 r \$0-volume;
#X text 111 115 vol;
#X obj 193 134 hsl 67 15 0 1 0 0 empty empty empty -2 -8 0 10 -262144
-1 -1 660 1;
#X floatatom 190 154 5 0 0 0 - - -;
#X text 190 116 bandpass f;
#X obj 190 266 s \$0-bandpassfreq;
#X obj 105 42 loadbang;
#X obj 190 45 loadbang;
#X floatatom 190 201 5 0 0 0 - - -;
#X obj 432 214 r \$0-bandpassfreq;
#X floatatom 432 238 5 0 0 0 - - -;
#X obj 363 269 bp~ 1000 5;
#X msg 190 69 0.1;
#X obj 317 17 inlet sensordata;
#X obj 415 44 hsl 128 15 1 255 0 0 empty empty empty -2 -8 0 10 -262144
-1 -1 0 1;
#X floatatom 410 74 5 0 0 0 - - -;
#X obj 190 177 * 15000;
#X obj 365 473 outlet~ left;
#X obj 483 474 outlet~ right;
#X text 446 16 has to be 0-1;
#X obj 366 413 *~;
#X obj 482 413 *~;
#X obj 490 323 loadbang;
#X msg 489 359 0.3;
#X msg 105 66 0;
#X connect 0 0 16 0;
#X connect 1 0 25 0;
#X connect 1 0 26 0;
#X connect 2 0 3 0;
#X connect 3 0 4 0;
#X connect 5 0 1 1;
#X connect 7 0 8 0;
#X connect 8 0 21 0;
#X connect 11 0 29 0;
#X connect 12 0 17 0;
#X connect 13 0 10 0;
#X connect 14 0 15 0;
#X connect 15 0 16 1;
#X connect 16 0 1 0;
#X connect 17 0 7 0;
#X connect 18 0 7 0;
#X connect 18 0 2 0;
#X connect 19 0 20 0;
#X connect 21 0 13 0;
#X connect 25 0 22 0;
#X connect 26 0 23 0;
#X connect 27 0 28 0;
#X connect 28 0 26 1;
#X connect 28 0 25 1;
#X connect 29 0 2 0;
#X coords 0 -1 1 1 170 100 1 100 100;
