#N canvas 0 96 3840 2064 10;
#X obj 168 165 *~ 1;
#X obj 271 388 +~;
#X obj 401 390 +~;
#X obj 521 486 +~;
#X obj 665 480 -~;
#X obj 270 493 +~;
#X obj 397 491 -~;
#X obj 402 588 +~;
#X obj 674 587 -~;
#X obj 279 591 +~;
#X obj 523 587 -~;
#X obj 277 630 *~ 0.4;
#X obj 417 631 *~ 0.37;
#X obj 526 630 *~ 0.333;
#X obj 642 632 *~ 0.3;
#X obj 279 663 delwrite~ \$0-a 1000;
#X obj 268 331 delread~ \$0-a 101;
#X obj 414 663 delwrite~ \$0-b 1000;
#X obj 402 331 delread~ \$0-b 143;
#X obj 528 665 delwrite~ \$0-c 1000;
#X obj 522 331 delread~ \$0-c 165;
#X obj 641 662 delwrite~ \$0-d 1000;
#X obj 662 330 delread~ \$0-d 177;
#X obj 156 67 inlet~ audio;
#X obj 93 886 outlet~ left;
#X obj 184 886 outlet~ right;
#X connect 0 0 1 0;
#X connect 0 0 2 0;
#X connect 1 0 5 1;
#X connect 1 0 6 0;
#X connect 1 0 24 0;
#X connect 2 0 6 1;
#X connect 2 0 5 0;
#X connect 2 0 25 0;
#X connect 3 0 10 1;
#X connect 3 0 9 1;
#X connect 4 0 8 1;
#X connect 4 0 7 1;
#X connect 5 0 9 0;
#X connect 5 0 10 0;
#X connect 6 0 7 0;
#X connect 6 0 8 0;
#X connect 7 0 12 0;
#X connect 8 0 14 0;
#X connect 9 0 11 0;
#X connect 10 0 13 0;
#X connect 11 0 15 0;
#X connect 12 0 17 0;
#X connect 13 0 19 0;
#X connect 14 0 21 0;
#X connect 16 0 1 1;
#X connect 18 0 2 1;
#X connect 20 0 3 0;
#X connect 20 0 4 0;
#X connect 22 0 4 1;
#X connect 22 0 3 1;
#X connect 23 0 0 0;
