#N canvas 0 96 1920 984 10;
#X obj 393 279 osc~ 440;
#X obj 413 809 outlet~ L;
#X obj 509 810 outlet~ R;
#X obj 123 119 hsl 128 15 0 1 0 0 empty empty empty -2 -8 0 10 -262144
-1 -1 10160 1;
#X floatatom 120 139 5 0 0 0 - - -;
#X obj 120 194 s \$0-vol;
#X obj 491 490 r \$0-vol;
#X obj 491 531 *~ 0.8;
#X obj 395 528 *~ 0.8;
#X obj 427 490 r \$0-vol;
#X obj 393 79 inlet midi;
#X obj 393 205 mtof;
#X obj 613 285 osc~ 440;
#X text 161 136 volume;
#X obj 414 389 vline~;
#X obj 394 426 *~;
#X msg 414 356 1 10 \, 0 500 10;
#X text 520 353 envelope;
#X obj 610 399 vline~;
#X obj 590 436 *~;
#X msg 610 366 1 10 \, 0 500 10;
#X text 716 363 envelope;
#X obj 113 37 loadbang;
#X obj 613 247 + 2;
#X obj 517 668 rev2~, f 34;
#X obj 565 557 loadbang;
#X obj 312 699 rev2~, f 34;
#X msg 471 624 50;
#X msg 695 614 50;
#X msg 424 639 39;
#X msg 635 610 30;
#X obj 246 508 r \$0-vol;
#X obj 246 531 * 100;
#X msg 113 60 0.8;
#X connect 0 0 15 0;
#X connect 3 0 4 0;
#X connect 4 0 5 0;
#X connect 6 0 7 0;
#X connect 7 0 24 0;
#X connect 8 0 26 0;
#X connect 9 0 8 1;
#X connect 10 0 11 0;
#X connect 10 0 16 0;
#X connect 10 0 20 0;
#X connect 11 0 0 0;
#X connect 11 0 23 0;
#X connect 12 0 19 0;
#X connect 14 0 15 1;
#X connect 15 0 8 0;
#X connect 16 0 14 0;
#X connect 18 0 19 1;
#X connect 19 0 7 0;
#X connect 20 0 18 0;
#X connect 22 0 33 0;
#X connect 23 0 12 0;
#X connect 24 0 1 0;
#X connect 24 1 2 0;
#X connect 25 0 30 0;
#X connect 25 0 28 0;
#X connect 25 0 27 0;
#X connect 25 0 29 0;
#X connect 26 0 1 0;
#X connect 26 1 2 0;
#X connect 27 0 26 4;
#X connect 28 0 24 4;
#X connect 29 0 26 2;
#X connect 30 0 24 2;
#X connect 31 0 32 0;
#X connect 32 0 26 1;
#X connect 32 0 24 1;
#X connect 33 0 3 0;
#X coords 0 -1 1 1 200 60 1 100 100;
