#N canvas 157 203 656 630 10;
#X text 363 325 C3 48 D3 50 E3 52 G3 55 A3 57;
#X msg 368 72 48 50 52 55 57;
#X obj 299 -24 loadbang;
#X obj 368 138 array set \$0-pentatonicScale;
#X obj 432 217 array define \$0-pentatonicScale 5;
#X obj 90 334 array get \$0-pentatonicScale;
#X floatatom 90 357 5 0 0 0 - - -;
#X msg 66 281 0;
#X obj 90 483 outlet midiNoteToPlay;
#X obj 68 45 inlet sensorVal;
#X text 173 49 0..255;
#X obj 299 19 t b b;
#X obj 318 0 bng 15 250 50 0 empty empty empty 17 7 0 10 -262144 -1
-1;
#X obj 277 171 array size \$0-pentatonicScale;
#X obj 277 194 s \$0-numberOfNotes;
#X obj 66 121 moses 52;
#X obj 111 153 moses 103;
#X msg 111 281 1;
#X msg 162 280 2;
#X obj 162 203 moses 154;
#X obj 213 249 moses 205;
#X msg 213 284 3;
#X msg 264 284 4;
#X obj 188 98 change;
#X obj 90 449 change;
#X obj 90 399 + \$1;
#X connect 1 0 3 0;
#X connect 2 0 11 0;
#X connect 5 0 6 0;
#X connect 6 0 25 0;
#X connect 7 0 5 0;
#X connect 9 0 15 0;
#X connect 11 0 13 0;
#X connect 11 1 1 0;
#X connect 12 0 11 0;
#X connect 13 0 14 0;
#X connect 15 0 7 0;
#X connect 15 1 16 0;
#X connect 16 0 17 0;
#X connect 16 1 19 0;
#X connect 17 0 5 0;
#X connect 18 0 5 0;
#X connect 19 0 18 0;
#X connect 19 1 20 0;
#X connect 20 0 21 0;
#X connect 20 1 22 0;
#X connect 21 0 5 0;
#X connect 22 0 5 0;
#X connect 24 0 8 0;
#X connect 25 0 24 0;
