#N canvas 0 96 1920 984 10;
#X obj 312 345 route 1 2 3 4 5 6 7, f 63;
#X obj 312 243 mtof;
#N canvas 40 220 450 453 osc 0;
#X obj 36 12 inlet;
#X obj 36 140 osc~;
#X floatatom 36 91 5 0 0 0 - - -;
#X obj 35 262 *~;
#X obj 36 300 outlet~;
#N canvas 755 313 450 300 ADSR 0;
#X obj 233 150 pack f f;
#X msg 233 174 0 \$2;
#X obj 135 151 pack f f f f;
#X msg 135 176 1 \$2 \, \$4 \$3 \$2;
#X obj 135 228 vline~;
#X obj 135 121 >= 1;
#X obj 233 91 select 0;
#X obj 114 25 inlet;
#X obj 114 49 unpack f f f f f f;
#X obj 135 258 outlet~;
#X connect 0 0 1 0;
#X connect 1 0 4 0;
#X connect 2 0 3 0;
#X connect 3 0 4 0;
#X connect 4 0 9 0;
#X connect 5 0 2 0;
#X connect 6 0 0 0;
#X connect 7 0 8 0;
#X connect 8 1 5 0;
#X connect 8 1 6 0;
#X connect 8 2 2 1;
#X connect 8 3 2 2;
#X connect 8 4 2 3;
#X connect 8 5 0 1;
#X restore 158 29 pd ADSR;
#X obj 90 98 switch~;
#N canvas 715 298 450 486 switch 0;
#X obj 142 26 inlet;
#X obj 142 306 outlet;
#X obj 142 270 tgl 15 0 empty empty empty 17 7 0 10 -262144 -1 -1 0
1;
#X msg 161 247 0;
#X msg 142 224 1;
#X obj 142 91 f;
#X obj 184 90 + 1;
#X obj 142 64 b;
#X obj 142 142 sel 0 1;
#X obj 142 118 mod 2;
#X obj 161 194 delay;
#X obj 188 26 inlet;
#X connect 0 0 7 0;
#X connect 2 0 1 0;
#X connect 3 0 2 0;
#X connect 4 0 2 0;
#X connect 5 0 6 0;
#X connect 5 0 9 0;
#X connect 6 0 5 1;
#X connect 7 0 5 0;
#X connect 8 0 4 0;
#X connect 8 1 10 0;
#X connect 9 0 8 0;
#X connect 10 0 3 0;
#X connect 11 0 10 1;
#X restore 90 74 pd switch;
#X obj 36 45 unpack f f f f f f;
#N canvas 1082 165 450 300 Velocity 0;
#X obj 142 32 inlet;
#X obj 142 149 outlet;
#X obj 142 120 / 127;
#X obj 142 88 moses 1;
#X floatatom 214 147 5 0 0 0 - - -;
#X connect 0 0 3 0;
#X connect 2 0 1 0;
#X connect 2 0 4 0;
#X connect 3 1 2 0;
#X restore 57 169 pd Velocity;
#X obj 35 207 *~;
#X connect 0 0 8 0;
#X connect 0 0 5 0;
#X connect 1 0 10 0;
#X connect 2 0 1 0;
#X connect 3 0 4 0;
#X connect 5 0 3 1;
#X connect 7 0 6 0;
#X connect 8 0 2 0;
#X connect 8 1 7 0;
#X connect 8 1 9 0;
#X connect 8 5 7 1;
#X connect 9 0 10 1;
#X connect 10 0 3 0;
#X restore 312 384 pd osc;
#X obj 311 526 /~ 7;
#X text 458 232 Attack;
#X text 499 232 Decay;
#X text 538 231 Sustain;
#X text 588 230 Release;
#X obj 312 291 pack f f f f f f f;
#X obj 312 263 poly 7;
#N canvas 40 220 450 453 osc 0;
#X obj 36 12 inlet;
#X obj 36 140 osc~;
#X floatatom 36 91 5 0 0 0 - - -;
#X obj 35 262 *~;
#X obj 36 300 outlet~;
#N canvas 755 313 450 300 ADSR 0;
#X obj 233 150 pack f f;
#X msg 233 174 0 \$2;
#X obj 135 151 pack f f f f;
#X msg 135 176 1 \$2 \, \$4 \$3 \$2;
#X obj 135 228 vline~;
#X obj 135 121 >= 1;
#X obj 233 91 select 0;
#X obj 114 25 inlet;
#X obj 114 49 unpack f f f f f f;
#X obj 135 258 outlet~;
#X connect 0 0 1 0;
#X connect 1 0 4 0;
#X connect 2 0 3 0;
#X connect 3 0 4 0;
#X connect 4 0 9 0;
#X connect 5 0 2 0;
#X connect 6 0 0 0;
#X connect 7 0 8 0;
#X connect 8 1 5 0;
#X connect 8 1 6 0;
#X connect 8 2 2 1;
#X connect 8 3 2 2;
#X connect 8 4 2 3;
#X connect 8 5 0 1;
#X restore 158 29 pd ADSR;
#X obj 90 98 switch~;
#N canvas 715 298 450 486 switch 0;
#X obj 142 26 inlet;
#X obj 142 306 outlet;
#X obj 142 270 tgl 15 0 empty empty empty 17 7 0 10 -262144 -1 -1 0
1;
#X msg 161 247 0;
#X msg 142 224 1;
#X obj 142 91 f;
#X obj 184 90 + 1;
#X obj 142 64 b;
#X obj 142 142 sel 0 1;
#X obj 142 118 mod 2;
#X obj 161 194 delay;
#X obj 188 26 inlet;
#X connect 0 0 7 0;
#X connect 2 0 1 0;
#X connect 3 0 2 0;
#X connect 4 0 2 0;
#X connect 5 0 6 0;
#X connect 5 0 9 0;
#X connect 6 0 5 1;
#X connect 7 0 5 0;
#X connect 8 0 4 0;
#X connect 8 1 10 0;
#X connect 9 0 8 0;
#X connect 10 0 3 0;
#X connect 11 0 10 1;
#X restore 90 74 pd switch;
#X obj 36 45 unpack f f f f f f;
#N canvas 1082 165 450 300 Velocity 0;
#X obj 142 32 inlet;
#X obj 142 149 outlet;
#X obj 142 120 / 127;
#X obj 142 88 moses 1;
#X floatatom 214 147 5 0 0 0 - - -;
#X connect 0 0 3 0;
#X connect 2 0 1 0;
#X connect 2 0 4 0;
#X connect 3 1 2 0;
#X restore 57 169 pd Velocity;
#X obj 35 207 *~;
#X connect 0 0 8 0;
#X connect 0 0 5 0;
#X connect 1 0 10 0;
#X connect 2 0 1 0;
#X connect 3 0 4 0;
#X connect 5 0 3 1;
#X connect 7 0 6 0;
#X connect 8 0 2 0;
#X connect 8 1 7 0;
#X connect 8 1 9 0;
#X connect 8 5 7 1;
#X connect 9 0 10 1;
#X connect 10 0 3 0;
#X restore 365 384 pd osc;
#N canvas 40 220 450 453 osc 0;
#X obj 36 12 inlet;
#X obj 36 140 osc~;
#X floatatom 36 91 5 0 0 0 - - -;
#X obj 35 262 *~;
#X obj 36 300 outlet~;
#N canvas 755 313 450 300 ADSR 0;
#X obj 233 150 pack f f;
#X msg 233 174 0 \$2;
#X obj 135 151 pack f f f f;
#X msg 135 176 1 \$2 \, \$4 \$3 \$2;
#X obj 135 228 vline~;
#X obj 135 121 >= 1;
#X obj 233 91 select 0;
#X obj 114 25 inlet;
#X obj 114 49 unpack f f f f f f;
#X obj 135 258 outlet~;
#X connect 0 0 1 0;
#X connect 1 0 4 0;
#X connect 2 0 3 0;
#X connect 3 0 4 0;
#X connect 4 0 9 0;
#X connect 5 0 2 0;
#X connect 6 0 0 0;
#X connect 7 0 8 0;
#X connect 8 1 5 0;
#X connect 8 1 6 0;
#X connect 8 2 2 1;
#X connect 8 3 2 2;
#X connect 8 4 2 3;
#X connect 8 5 0 1;
#X restore 158 29 pd ADSR;
#X obj 90 98 switch~;
#N canvas 715 298 450 486 switch 0;
#X obj 142 26 inlet;
#X obj 142 306 outlet;
#X obj 142 270 tgl 15 0 empty empty empty 17 7 0 10 -262144 -1 -1 0
1;
#X msg 161 247 0;
#X msg 142 224 1;
#X obj 142 91 f;
#X obj 184 90 + 1;
#X obj 142 64 b;
#X obj 142 142 sel 0 1;
#X obj 142 118 mod 2;
#X obj 161 194 delay;
#X obj 188 26 inlet;
#X connect 0 0 7 0;
#X connect 2 0 1 0;
#X connect 3 0 2 0;
#X connect 4 0 2 0;
#X connect 5 0 6 0;
#X connect 5 0 9 0;
#X connect 6 0 5 1;
#X connect 7 0 5 0;
#X connect 8 0 4 0;
#X connect 8 1 10 0;
#X connect 9 0 8 0;
#X connect 10 0 3 0;
#X connect 11 0 10 1;
#X restore 90 74 pd switch;
#X obj 36 45 unpack f f f f f f;
#N canvas 1082 165 450 300 Velocity 0;
#X obj 142 32 inlet;
#X obj 142 149 outlet;
#X obj 142 120 / 127;
#X obj 142 88 moses 1;
#X floatatom 214 147 5 0 0 0 - - -;
#X connect 0 0 3 0;
#X connect 2 0 1 0;
#X connect 2 0 4 0;
#X connect 3 1 2 0;
#X restore 57 169 pd Velocity;
#X obj 35 207 *~;
#X connect 0 0 8 0;
#X connect 0 0 5 0;
#X connect 1 0 10 0;
#X connect 2 0 1 0;
#X connect 3 0 4 0;
#X connect 5 0 3 1;
#X connect 7 0 6 0;
#X connect 8 0 2 0;
#X connect 8 1 7 0;
#X connect 8 1 9 0;
#X connect 8 5 7 1;
#X connect 9 0 10 1;
#X connect 10 0 3 0;
#X restore 419 386 pd osc;
#N canvas 40 220 450 453 osc 0;
#X obj 36 12 inlet;
#X obj 36 140 osc~;
#X floatatom 36 91 5 0 0 0 - - -;
#X obj 35 262 *~;
#X obj 36 300 outlet~;
#N canvas 755 313 450 300 ADSR 0;
#X obj 233 150 pack f f;
#X msg 233 174 0 \$2;
#X obj 135 151 pack f f f f;
#X msg 135 176 1 \$2 \, \$4 \$3 \$2;
#X obj 135 228 vline~;
#X obj 135 121 >= 1;
#X obj 233 91 select 0;
#X obj 114 25 inlet;
#X obj 114 49 unpack f f f f f f;
#X obj 135 258 outlet~;
#X connect 0 0 1 0;
#X connect 1 0 4 0;
#X connect 2 0 3 0;
#X connect 3 0 4 0;
#X connect 4 0 9 0;
#X connect 5 0 2 0;
#X connect 6 0 0 0;
#X connect 7 0 8 0;
#X connect 8 1 5 0;
#X connect 8 1 6 0;
#X connect 8 2 2 1;
#X connect 8 3 2 2;
#X connect 8 4 2 3;
#X connect 8 5 0 1;
#X restore 158 29 pd ADSR;
#X obj 90 98 switch~;
#N canvas 715 298 450 486 switch 0;
#X obj 142 26 inlet;
#X obj 142 306 outlet;
#X obj 142 270 tgl 15 0 empty empty empty 17 7 0 10 -262144 -1 -1 0
1;
#X msg 161 247 0;
#X msg 142 224 1;
#X obj 142 91 f;
#X obj 184 90 + 1;
#X obj 142 64 b;
#X obj 142 142 sel 0 1;
#X obj 142 118 mod 2;
#X obj 161 194 delay;
#X obj 188 26 inlet;
#X connect 0 0 7 0;
#X connect 2 0 1 0;
#X connect 3 0 2 0;
#X connect 4 0 2 0;
#X connect 5 0 6 0;
#X connect 5 0 9 0;
#X connect 6 0 5 1;
#X connect 7 0 5 0;
#X connect 8 0 4 0;
#X connect 8 1 10 0;
#X connect 9 0 8 0;
#X connect 10 0 3 0;
#X connect 11 0 10 1;
#X restore 90 74 pd switch;
#X obj 36 45 unpack f f f f f f;
#N canvas 1082 165 450 300 Velocity 0;
#X obj 142 32 inlet;
#X obj 142 149 outlet;
#X obj 142 120 / 127;
#X obj 142 88 moses 1;
#X floatatom 214 147 5 0 0 0 - - -;
#X connect 0 0 3 0;
#X connect 2 0 1 0;
#X connect 2 0 4 0;
#X connect 3 1 2 0;
#X restore 57 169 pd Velocity;
#X obj 35 207 *~;
#X connect 0 0 8 0;
#X connect 0 0 5 0;
#X connect 1 0 10 0;
#X connect 2 0 1 0;
#X connect 3 0 4 0;
#X connect 5 0 3 1;
#X connect 7 0 6 0;
#X connect 8 0 2 0;
#X connect 8 1 7 0;
#X connect 8 1 9 0;
#X connect 8 5 7 1;
#X connect 9 0 10 1;
#X connect 10 0 3 0;
#X restore 472 386 pd osc;
#N canvas 40 220 450 453 osc 0;
#X obj 36 12 inlet;
#X obj 36 140 osc~;
#X floatatom 36 91 5 0 0 0 - - -;
#X obj 35 262 *~;
#X obj 36 300 outlet~;
#N canvas 755 313 450 300 ADSR 0;
#X obj 233 150 pack f f;
#X msg 233 174 0 \$2;
#X obj 135 151 pack f f f f;
#X msg 135 176 1 \$2 \, \$4 \$3 \$2;
#X obj 135 228 vline~;
#X obj 135 121 >= 1;
#X obj 233 91 select 0;
#X obj 114 25 inlet;
#X obj 114 49 unpack f f f f f f;
#X obj 135 258 outlet~;
#X connect 0 0 1 0;
#X connect 1 0 4 0;
#X connect 2 0 3 0;
#X connect 3 0 4 0;
#X connect 4 0 9 0;
#X connect 5 0 2 0;
#X connect 6 0 0 0;
#X connect 7 0 8 0;
#X connect 8 1 5 0;
#X connect 8 1 6 0;
#X connect 8 2 2 1;
#X connect 8 3 2 2;
#X connect 8 4 2 3;
#X connect 8 5 0 1;
#X restore 158 29 pd ADSR;
#X obj 90 98 switch~;
#N canvas 715 298 450 486 switch 0;
#X obj 142 26 inlet;
#X obj 142 306 outlet;
#X obj 142 270 tgl 15 0 empty empty empty 17 7 0 10 -262144 -1 -1 0
1;
#X msg 161 247 0;
#X msg 142 224 1;
#X obj 142 91 f;
#X obj 184 90 + 1;
#X obj 142 64 b;
#X obj 142 142 sel 0 1;
#X obj 142 118 mod 2;
#X obj 161 194 delay;
#X obj 188 26 inlet;
#X connect 0 0 7 0;
#X connect 2 0 1 0;
#X connect 3 0 2 0;
#X connect 4 0 2 0;
#X connect 5 0 6 0;
#X connect 5 0 9 0;
#X connect 6 0 5 1;
#X connect 7 0 5 0;
#X connect 8 0 4 0;
#X connect 8 1 10 0;
#X connect 9 0 8 0;
#X connect 10 0 3 0;
#X connect 11 0 10 1;
#X restore 90 74 pd switch;
#X obj 36 45 unpack f f f f f f;
#N canvas 1082 165 450 300 Velocity 0;
#X obj 142 32 inlet;
#X obj 142 149 outlet;
#X obj 142 120 / 127;
#X obj 142 88 moses 1;
#X floatatom 214 147 5 0 0 0 - - -;
#X connect 0 0 3 0;
#X connect 2 0 1 0;
#X connect 2 0 4 0;
#X connect 3 1 2 0;
#X restore 57 169 pd Velocity;
#X obj 35 207 *~;
#X connect 0 0 8 0;
#X connect 0 0 5 0;
#X connect 1 0 10 0;
#X connect 2 0 1 0;
#X connect 3 0 4 0;
#X connect 5 0 3 1;
#X connect 7 0 6 0;
#X connect 8 0 2 0;
#X connect 8 1 7 0;
#X connect 8 1 9 0;
#X connect 8 5 7 1;
#X connect 9 0 10 1;
#X connect 10 0 3 0;
#X restore 526 381 pd osc;
#N canvas 40 220 450 453 osc 0;
#X obj 36 12 inlet;
#X obj 36 140 osc~;
#X floatatom 36 91 5 0 0 0 - - -;
#X obj 35 262 *~;
#X obj 36 300 outlet~;
#N canvas 755 313 450 300 ADSR 0;
#X obj 233 150 pack f f;
#X msg 233 174 0 \$2;
#X obj 135 151 pack f f f f;
#X msg 135 176 1 \$2 \, \$4 \$3 \$2;
#X obj 135 228 vline~;
#X obj 135 121 >= 1;
#X obj 233 91 select 0;
#X obj 114 25 inlet;
#X obj 114 49 unpack f f f f f f;
#X obj 135 258 outlet~;
#X connect 0 0 1 0;
#X connect 1 0 4 0;
#X connect 2 0 3 0;
#X connect 3 0 4 0;
#X connect 4 0 9 0;
#X connect 5 0 2 0;
#X connect 6 0 0 0;
#X connect 7 0 8 0;
#X connect 8 1 5 0;
#X connect 8 1 6 0;
#X connect 8 2 2 1;
#X connect 8 3 2 2;
#X connect 8 4 2 3;
#X connect 8 5 0 1;
#X restore 158 29 pd ADSR;
#X obj 90 98 switch~;
#N canvas 715 298 450 486 switch 0;
#X obj 142 26 inlet;
#X obj 142 306 outlet;
#X obj 142 270 tgl 15 0 empty empty empty 17 7 0 10 -262144 -1 -1 0
1;
#X msg 161 247 0;
#X msg 142 224 1;
#X obj 142 91 f;
#X obj 184 90 + 1;
#X obj 142 64 b;
#X obj 142 142 sel 0 1;
#X obj 142 118 mod 2;
#X obj 161 194 delay;
#X obj 188 26 inlet;
#X connect 0 0 7 0;
#X connect 2 0 1 0;
#X connect 3 0 2 0;
#X connect 4 0 2 0;
#X connect 5 0 6 0;
#X connect 5 0 9 0;
#X connect 6 0 5 1;
#X connect 7 0 5 0;
#X connect 8 0 4 0;
#X connect 8 1 10 0;
#X connect 9 0 8 0;
#X connect 10 0 3 0;
#X connect 11 0 10 1;
#X restore 90 74 pd switch;
#X obj 36 45 unpack f f f f f f;
#N canvas 1082 165 450 300 Velocity 0;
#X obj 142 32 inlet;
#X obj 142 149 outlet;
#X obj 142 120 / 127;
#X obj 142 88 moses 1;
#X floatatom 214 147 5 0 0 0 - - -;
#X connect 0 0 3 0;
#X connect 2 0 1 0;
#X connect 2 0 4 0;
#X connect 3 1 2 0;
#X restore 57 169 pd Velocity;
#X obj 35 207 *~;
#X connect 0 0 8 0;
#X connect 0 0 5 0;
#X connect 1 0 10 0;
#X connect 2 0 1 0;
#X connect 3 0 4 0;
#X connect 5 0 3 1;
#X connect 7 0 6 0;
#X connect 8 0 2 0;
#X connect 8 1 7 0;
#X connect 8 1 9 0;
#X connect 8 5 7 1;
#X connect 9 0 10 1;
#X connect 10 0 3 0;
#X restore 579 384 pd osc;
#N canvas 40 220 450 453 osc 0;
#X obj 36 12 inlet;
#X obj 36 140 osc~;
#X floatatom 36 91 5 0 0 0 - - -;
#X obj 35 262 *~;
#X obj 36 300 outlet~;
#N canvas 755 313 450 300 ADSR 0;
#X obj 233 150 pack f f;
#X msg 233 174 0 \$2;
#X obj 135 151 pack f f f f;
#X msg 135 176 1 \$2 \, \$4 \$3 \$2;
#X obj 135 228 vline~;
#X obj 135 121 >= 1;
#X obj 233 91 select 0;
#X obj 114 25 inlet;
#X obj 114 49 unpack f f f f f f;
#X obj 135 258 outlet~;
#X connect 0 0 1 0;
#X connect 1 0 4 0;
#X connect 2 0 3 0;
#X connect 3 0 4 0;
#X connect 4 0 9 0;
#X connect 5 0 2 0;
#X connect 6 0 0 0;
#X connect 7 0 8 0;
#X connect 8 1 5 0;
#X connect 8 1 6 0;
#X connect 8 2 2 1;
#X connect 8 3 2 2;
#X connect 8 4 2 3;
#X connect 8 5 0 1;
#X restore 158 29 pd ADSR;
#X obj 90 98 switch~;
#N canvas 715 298 450 486 switch 0;
#X obj 142 26 inlet;
#X obj 142 306 outlet;
#X obj 142 270 tgl 15 0 empty empty empty 17 7 0 10 -262144 -1 -1 0
1;
#X msg 161 247 0;
#X msg 142 224 1;
#X obj 142 91 f;
#X obj 184 90 + 1;
#X obj 142 64 b;
#X obj 142 142 sel 0 1;
#X obj 142 118 mod 2;
#X obj 161 194 delay;
#X obj 188 26 inlet;
#X connect 0 0 7 0;
#X connect 2 0 1 0;
#X connect 3 0 2 0;
#X connect 4 0 2 0;
#X connect 5 0 6 0;
#X connect 5 0 9 0;
#X connect 6 0 5 1;
#X connect 7 0 5 0;
#X connect 8 0 4 0;
#X connect 8 1 10 0;
#X connect 9 0 8 0;
#X connect 10 0 3 0;
#X connect 11 0 10 1;
#X restore 90 74 pd switch;
#X obj 36 45 unpack f f f f f f;
#N canvas 1082 165 450 300 Velocity 0;
#X obj 142 32 inlet;
#X obj 142 149 outlet;
#X obj 142 120 / 127;
#X obj 142 88 moses 1;
#X floatatom 214 147 5 0 0 0 - - -;
#X connect 0 0 3 0;
#X connect 2 0 1 0;
#X connect 2 0 4 0;
#X connect 3 1 2 0;
#X restore 57 169 pd Velocity;
#X obj 35 207 *~;
#X connect 0 0 8 0;
#X connect 0 0 5 0;
#X connect 1 0 10 0;
#X connect 2 0 1 0;
#X connect 3 0 4 0;
#X connect 5 0 3 1;
#X connect 7 0 6 0;
#X connect 8 0 2 0;
#X connect 8 1 7 0;
#X connect 8 1 9 0;
#X connect 8 5 7 1;
#X connect 9 0 10 1;
#X connect 10 0 3 0;
#X restore 633 383 pd osc;
#X obj 312 149 makenote 80 300;
#X msg 324 112 60;
#X msg 470 177 27;
#X msg 506 178 368;
#X msg 546 177 3;
#X msg 592 175 661;
#X floatatom 470 200 5 0 0 0 - - -;
#X floatatom 506 201 5 0 0 0 - - -;
#X floatatom 546 200 5 0 0 0 - - -;
#X floatatom 592 198 5 0 0 0 - - -;
#X obj 470 127 loadbang;
#X obj 312 35 inlet midinote;
#X obj 310 630 outlet~ left;
#X obj 406 628 outlet~ right;
#X obj 311 549 *~ 0.8;
#X obj 369 521 r \$0-volume;
#X floatatom 369 544 5 0 0 0 - - -;
#X obj 109 112 hsl 128 15 0 1 0 0 empty empty empty -2 -8 0 10 -262144
-1 -1 0 1;
#X text 141 134 volume;
#X obj 106 227 s \$0-volume;
#X floatatom 106 135 5 0 0 0 - - -;
#X obj 116 45 loadbang;
#X msg 116 68 0.8;
#X connect 0 0 2 0;
#X connect 0 1 10 0;
#X connect 0 2 11 0;
#X connect 0 3 12 0;
#X connect 0 4 13 0;
#X connect 0 5 14 0;
#X connect 0 6 15 0;
#X connect 1 0 9 0;
#X connect 2 0 3 0;
#X connect 3 0 30 0;
#X connect 8 0 0 0;
#X connect 9 0 8 0;
#X connect 9 1 8 1;
#X connect 9 2 8 2;
#X connect 10 0 3 0;
#X connect 11 0 3 0;
#X connect 12 0 3 0;
#X connect 13 0 3 0;
#X connect 14 0 3 0;
#X connect 15 0 3 0;
#X connect 16 0 1 0;
#X connect 16 1 9 1;
#X connect 17 0 16 0;
#X connect 18 0 22 0;
#X connect 19 0 23 0;
#X connect 20 0 24 0;
#X connect 21 0 25 0;
#X connect 22 0 8 3;
#X connect 23 0 8 4;
#X connect 24 0 8 5;
#X connect 25 0 8 6;
#X connect 26 0 18 0;
#X connect 26 0 19 0;
#X connect 26 0 20 0;
#X connect 26 0 21 0;
#X connect 27 0 16 0;
#X connect 30 0 28 0;
#X connect 30 0 29 0;
#X connect 31 0 32 0;
#X connect 32 0 30 1;
#X connect 33 0 36 0;
#X connect 36 0 35 0;
#X connect 37 0 38 0;
#X connect 38 0 33 0;
#X coords 0 -1 1 1 150 60 1 100 100;
