#N canvas 0 96 1920 984 12;
#X declare -path /home/pi/Documents/Pd/externals/mediasettings/;
#X obj -101 42 loadbang;
#X obj 350 94 r start_gui_generation;
#X obj -29 42 bng 30 250 50 0 empty empty empty 17 7 0 10 -262144 -1
-1;
#X obj 82 40 bng 30 250 50 0 empty empty empty 17 7 0 10 -262144 -1
-1;
#X obj 82 78 s stop;
#N canvas 0 96 1920 984 init 1;
#X obj 161 33 inlet IN_trigger;
#X obj 273 216 s generalReset;
#X msg 193 526 \; pd-guisubpatch clear;
#X obj 161 637 s start_processing_patch_generation;
#X msg 177 584 \; pd-processingsubpatch clear;
#X obj 257 269 s rows_gesamt;
#X obj 241 327 s columns_gesamt;
#X text 265 378 rows per brett;
#X obj 225 401 s rows_per_brett;
#X text 249 458 columns per brett;
#X obj 209 481 s columns_per_brett;
#X text 301 245 rows of bretter in gui;
#X text 285 303 columns of bretter in gui;
#N canvas 13 275 650 396 raspi_led_blink 0;
#X obj 74 253 print;
#X obj 74 230 shell;
#X msg 74 202 /usr/bin/python /home/pi/theLAB/raspi/led_blink.py;
#X obj 74 51 inlet;
#X obj 289 46 declar -path /home/pi/Documents/Pd/externals/else/;
#X obj 289 70 declar -path /home/pi/Documents/Pd/externals/ggee/;
#X connect 1 0 0 0;
#X connect 2 0 1 0;
#X restore 289 175 pd raspi_led_blink;
#X msg 257 245 1;
#X msg 305 124 \; pd dsp 1 \;;
#X obj 161 84 t b b b b b b b b b b;
#X msg 241 303 1;
#X msg 226 378 6;
#X msg 208 458 1;
#X connect 0 0 16 0;
#X connect 14 0 5 0;
#X connect 16 0 3 0;
#X connect 16 1 4 0;
#X connect 16 2 2 0;
#X connect 16 3 19 0;
#X connect 16 4 18 0;
#X connect 16 5 17 0;
#X connect 16 6 14 0;
#X connect 16 7 1 0;
#X connect 16 8 13 0;
#X connect 16 9 15 0;
#X connect 17 0 6 0;
#X connect 18 0 8 0;
#X connect 19 0 10 0;
#X restore -101 88 pd init;
#N canvas 284 284 1132 576 guisubpatch 0;
#X coords 0 -1 1 1 620 270 1 20 20;
#X restore -100 314 pd guisubpatch;
#X obj 17 43 bng 30 250 50 0 empty empty empty 17 7 0 10 -262144 -1
-1;
#X obj 17 78 s start;
#X obj 351 68 s start_gui_generation;
#N canvas -54 196 1920 984 processingsubpatch 1;
#X obj 200 30 processing_abs 0_0 0_0 0 0;
#X obj 400 30 processing_abs 0_0 0_1 1 0;
#X obj 600 30 processing_abs 0_0 0_2 2 0;
#X obj 800 30 processing_abs 0_0 0_3 3 0;
#X obj 1000 30 processing_abs 0_0 0_4 4 0;
#X obj 1200 30 processing_abs 0_0 0_5 5 0;
#X floatatom 200 55 5 0 0 0 - - -;
#X floatatom 400 55 5 0 0 0 - - -;
#X floatatom 600 55 5 0 0 0 - - -;
#X floatatom 800 55 5 0 0 0 - - -;
#X floatatom 1000 55 5 0 0 0 - - -;
#X floatatom 1200 55 5 0 0 0 - - -;
#X connect 0 0 6 0;
#X connect 1 0 7 0;
#X connect 2 0 8 0;
#X connect 3 0 9 0;
#X connect 4 0 10 0;
#X connect 5 0 11 0;
#X restore 548 159 pd processingsubpatch;
#N canvas -8 135 1060 728 ablage_gui_alt 0;
#X obj 100 389 tgl 15 0 empty empty empty 17 7 0 10 -262144 -1 -1 0
1;
#X obj 100 450 t b b;
#X obj 175 491 delay 1000;
#X msg 100 518 1 \, 0 1000;
#X msg 175 518 0 \, 1 1000;
#X floatatom 100 575 5 0 0 0 - - -;
#X obj 100 598 * 255;
#X obj 100 426 metro 2000;
#X msg 100 353 1;
#X obj 863 47 r \$1-workaround_loadbang;
#X obj 177 22 r \$1-creation_argument;
#X obj 189 84 list append receive;
#X msg 189 113 receive rcv_\$1;
#X text 331 40 change receive symbol \; for the abstractions's gui
element \; when it is dynamically created;
#X obj 755 47 r stop;
#X msg 144 353 0;
#X obj 675 46 r start;
#X obj 100 200 pad 20 20 168 168 168;
#X obj 100 741 s \$0-color;
#X obj 100 172 r \$0-color;
#X obj 100 551 line 10;
#X obj 100 264 route list;
#X obj 100 296 bang;
#X obj 863 96 s \$0-init;
#X obj 151 627 r \$0-init;
#X msg 151 651 255;
#X text 209 653 init button to white color;
#X msg 100 684 color \$1 \$1 \$1;
#X connect 0 0 7 0;
#X connect 1 0 3 0;
#X connect 1 1 2 0;
#X connect 2 0 4 0;
#X connect 3 0 20 0;
#X connect 4 0 20 0;
#X connect 5 0 6 0;
#X connect 6 0 27 0;
#X connect 7 0 1 0;
#X connect 8 0 0 0;
#X connect 9 0 23 0;
#X connect 10 0 11 0;
#X connect 11 0 12 0;
#X connect 14 0 15 0;
#X connect 15 0 0 0;
#X connect 16 0 8 0;
#X connect 17 0 21 0;
#X connect 19 0 17 0;
#X connect 20 0 5 0;
#X connect 21 0 22 0;
#X connect 22 0 8 0;
#X connect 24 0 25 0;
#X connect 25 0 27 0;
#X connect 27 0 18 0;
#X restore 976 86 pd ablage_gui_alt;
#X obj 351 42 bng 15 250 50 0 empty empty empty 17 7 0 10 -262144 -1
-1;
#N canvas 536 302 450 300 ablage_senden_an_gui_dynamisch 0;
#X obj 161 120 s;
#X msg 186 81 symbol 15_0-dimval;
#X msg 144 45 4;
#X connect 1 0 0 1;
#X connect 2 0 0 0;
#X restore 978 123 pd ablage_senden_an_gui_dynamisch;
#N canvas 583 105 565 396 sensor_simulator 0;
#X obj 102 40 metro 250;
#X obj 105 134 hsl 128 15 1 255 0 0 empty empty empty -2 -8 0 10 -258113
-1 -1 0 1;
#X floatatom 102 174 5 0 0 0 - - -;
#X obj 102 -21 loadbang;
#X obj 102 3 tgl 15 0 empty empty empty 17 7 0 10 -262144 -1 -1 1 1
;
#X obj 102 205 s 0_0-sensor_data;
#X obj 116 111 tgl 15 0 empty empty empty 17 7 0 10 -262144 -1 -1 0
1;
#X obj 102 74 spigot 0;
#X connect 0 0 7 0;
#X connect 1 0 2 0;
#X connect 2 0 5 0;
#X connect 3 0 4 0;
#X connect 4 0 0 0;
#X connect 6 0 7 1;
#X connect 7 0 1 0;
#X coords 0 -1 1 1 320 60 1 100 100;
#X restore -112 131 pd sensor_simulator;
#N canvas 0 101 1280 652 processing_patch_generation 0;
#X obj 78 15 until;
#X obj 78 -10 f 0;
#X obj 109 112 f 0;
#X obj 109 136 until;
#X obj 96 -34 r rows_gesamt;
#X obj 127 88 r columns_gesamt;
#X obj 137 271 until;
#X obj 137 246 f 0;
#X obj 155 220 r rows_per_brett;
#X obj 176 413 until;
#X obj 176 388 f 0;
#X obj 194 362 r columns_per_brett;
#X text 208 14 FOR EACH ROW GESAMT;
#X text 267 114 FOR EACH COLUMN GESAMT;
#X obj 219 670 r brett_indicator;
#X obj 241 693 r lamp_indicator;
#X text 672 859 \$1 = x;
#X text 305 786 x-pos y-pos brett-indicator lamp-indicator;
#X text 741 858 \$3 = brett_indicator;
#X text 741 880 \$4 = lamp_indicator;
#X text 674 880 \$2 = y;
#X obj 263 720 r overall_counter;
#N canvas 0 23 579 736 row_ges_loop 0;
#X obj 113 586 outlet trigger_next_loop;
#X obj 179 156 + 1;
#X obj 113 156 f 0, f 7;
#X msg 130 417 0;
#X text 211 157 counting rows gesamt;
#X text 305 381 current row_ges counter;
#X obj 164 385 s loop_curr_row_ges;
#X obj 130 444 s reset_col_ges_counter;
#X obj 159 127 r reset_row_ges_counter;
#X obj 198 335 s row_start_pos;
#X obj 216 281 r current_y_pos;
#X obj 198 309 f 0;
#X text 233 308 row_start_pos = current_y_pos;
#X obj 113 184 t b b f f f b b;
#X msg 215 217 0;
#X obj 215 242 s current_x_pos;
#X obj 113 70 inlet trigger;
#X connect 1 0 2 1;
#X connect 2 0 13 0;
#X connect 3 0 7 0;
#X connect 8 0 2 1;
#X connect 10 0 11 1;
#X connect 11 0 9 0;
#X connect 13 0 0 0;
#X connect 13 1 3 0;
#X connect 13 2 1 0;
#X connect 13 3 6 0;
#X connect 13 5 11 0;
#X connect 13 6 14 0;
#X connect 14 0 15 0;
#X connect 16 0 2 0;
#X restore 78 42 pd row_ges_loop;
#N canvas 624 23 779 679 column_ges_loop 0;
#X obj 124 43 inlet trigger;
#X obj 124 774 outlet trigger next_loop;
#X obj 180 128 + 1;
#X obj 124 128 f 0, f 6;
#X obj 192 572 pack f f;
#X msg 192 600 symbol \$2_\$1;
#X obj 192 631 s brett_indicator;
#X obj 163 99 r reset_col_ges_counter;
#X text 222 130 current column ges counter;
#X obj 245 542 r loop_curr_row_ges;
#X text 324 632 building an indicator for each brett \;;
#X obj 175 673 s loop_curr_col_ges;
#X obj 226 375 s col_start_pos;
#X obj 244 320 r current_x_pos;
#X obj 226 347 f 0;
#X obj 209 472 s current_y_pos;
#X obj 227 423 r row_start_pos;
#X obj 209 448 f 0;
#X msg 141 708 0;
#X obj 141 731 s reset_brett_row_counter;
#X text 267 348 col_start_pos = current_x_pos;
#X text 243 447 current_y_pos = row_start_pos;
#X obj 124 156 t b f f f f b b b;
#X obj 258 179 r reset_overall_counter;
#X obj 240 211 f 0;
#X obj 278 212 + 1;
#X obj 240 235 t f f;
#X obj 240 259 s overall_brett_counter;
#X connect 0 0 3 0;
#X connect 2 0 3 1;
#X connect 3 0 22 0;
#X connect 4 0 5 0;
#X connect 5 0 6 0;
#X connect 7 0 3 1;
#X connect 9 0 4 1;
#X connect 13 0 14 1;
#X connect 14 0 12 0;
#X connect 16 0 17 1;
#X connect 17 0 15 0;
#X connect 18 0 19 0;
#X connect 22 0 1 0;
#X connect 22 1 18 0;
#X connect 22 2 2 0;
#X connect 22 3 11 0;
#X connect 22 4 4 0;
#X connect 22 5 17 0;
#X connect 22 6 14 0;
#X connect 22 7 24 0;
#X connect 23 0 24 1;
#X connect 24 0 26 0;
#X connect 25 0 24 1;
#X connect 26 0 27 0;
#X connect 26 1 25 0;
#X restore 109 166 pd column_ges_loop;
#N canvas 0 23 800 601 row_in_brett_loop 0;
#X obj 124 -45 inlet trigger;
#X obj 124 544 outlet trigger_next_loop;
#X obj 186 97 + 1;
#X obj 124 97 f 0, f 7;
#X msg 141 417 0;
#X obj 170 71 r reset_brett_row_counter;
#X obj 141 440 s reset_brett_column_counter;
#X obj 194 155 s curr_brett_row_counter;
#X text 332 25 FOR EACH ROW IN BRETT;
#X obj 213 204 r current_y_pos;
#X obj 176 284 s current_y_pos;
#X obj 176 256 +;
#X obj 176 230 f 0;
#X obj 213 231 r lamp_y_abstand;
#X text 216 257 current_y_pos += 30;
#X obj 159 378 s current_x_pos;
#X obj 124 121 t b b b b f f;
#X obj 177 326 r col_start_pos;
#X obj 159 355 f 0;
#X text 192 356 current_x_pos = col_start_pos;
#X connect 0 0 3 0;
#X connect 2 0 3 1;
#X connect 3 0 16 0;
#X connect 4 0 6 0;
#X connect 5 0 3 1;
#X connect 9 0 12 1;
#X connect 11 0 10 0;
#X connect 12 0 11 0;
#X connect 13 0 11 1;
#X connect 16 0 1 0;
#X connect 16 1 4 0;
#X connect 16 2 18 0;
#X connect 16 3 12 0;
#X connect 16 4 7 0;
#X connect 16 5 2 0;
#X connect 17 0 18 1;
#X connect 18 0 15 0;
#X restore 137 301 pd row_in_brett_loop;
#X text 318 407 FOR EACH COLUMN IN BRETT;
#X text 321 309 FOR EACH ROW IN BRETT;
#X obj 197 637 r current_y_pos;
#X text 315 640 row position of current lamp;
#X text 348 535 column position of current lamp;
#N canvas 0 23 450 500 column_in_brett_loop 0;
#X obj 89 -1 inlet trigger;
#X obj 89 644 outlet current_x_pos_for_lamp;
#X obj 155 106 + 1;
#X obj 89 106 f 0, f 7;
#X obj 135 80 r reset_brett_column_counter;
#X obj 107 347 pack f f;
#X msg 107 375 symbol \$2_\$1;
#X obj 126 276 s curr_brett_column_counter;
#X obj 160 320 r curr_brett_row_counter;
#X obj 107 406 s lamp_indicator;
#X text 238 408 indicator (e.g. 2_4) for each single lamp;
#X obj 163 193 f 0;
#X obj 204 191 + 1;
#X obj 181 155 r reset_overall_counter;
#X obj 163 249 s overall_counter;
#X obj 163 217 t f f;
#X text 300 248 count each lamp;
#X obj 121 468 r current_x_pos;
#X obj 89 491 f 0;
#X obj 121 501 r lamp_x_abstand;
#X obj 89 522 +;
#X text 127 527 current_x_pos += 30;
#X obj 89 130 t b f f f b;
#X connect 0 0 3 0;
#X connect 2 0 3 1;
#X connect 3 0 22 0;
#X connect 4 0 3 1;
#X connect 5 0 6 0;
#X connect 6 0 9 0;
#X connect 8 0 5 1;
#X connect 11 0 15 0;
#X connect 12 0 11 1;
#X connect 13 0 11 1;
#X connect 15 0 14 0;
#X connect 15 1 12 0;
#X connect 17 0 18 1;
#X connect 18 0 20 0;
#X connect 19 0 20 1;
#X connect 20 0 1 0;
#X connect 22 0 18 0;
#X connect 22 1 5 0;
#X connect 22 2 7 0;
#X connect 22 3 2 0;
#X connect 22 4 11 0;
#X restore 176 446 pd column_in_brett_loop;
#X obj 208 497 s current_x_pos;
#X obj 176 590 f 0;
#X obj 194 564 r current_x_pos;
#X obj 176 470 t b f;
#N canvas 0 23 738 662 init_variables 0;
#X obj 70 -539 inlet trigger;
#X obj 82 66 outlet trigger;
#X msg 98 -42 0;
#X obj 98 -19 s reset_row_ges_counter;
#X msg 114 -90 0;
#X obj 114 -66 s reset_overall_counter;
#X msg 147 -208 0;
#X obj 147 -178 s current_x_pos;
#X obj 130 -119 s current_y_pos;
#X msg 179 -335 0;
#X msg 163 -276 0;
#X obj 179 -305 s row_start_pos;
#X obj 163 -246 s col_start_pos;
#X obj 212 -438 s lamp_x_abstand;
#X obj 195 -380 s lamp_y_abstand;
#X obj 82 -505 t b b b b b b b b b;
#X msg 212 -467 200;
#X msg 130 -149 0;
#X msg 195 -409 30;
#X connect 0 0 15 0;
#X connect 2 0 3 0;
#X connect 4 0 5 0;
#X connect 6 0 7 0;
#X connect 9 0 11 0;
#X connect 10 0 12 0;
#X connect 15 0 1 0;
#X connect 15 1 2 0;
#X connect 15 2 4 0;
#X connect 15 3 17 0;
#X connect 15 4 6 0;
#X connect 15 5 10 0;
#X connect 15 6 9 0;
#X connect 15 7 18 0;
#X connect 15 8 16 0;
#X connect 16 0 13 0;
#X connect 17 0 8 0;
#X connect 18 0 14 0;
#X restore 78 -87 pd init_variables;
#X obj 78 -130 r start_processing_patch_generation;
#X msg 216 918 \; \$5-processing_workaround_loadbang bang;
#X obj 285 749 r overall_brett_counter;
#X obj 176 788 pack f f s s f f;
#X text 611 785 lamp-total;
#X text 695 784 brett-total;
#X obj 176 812 t a a a a;
#X text 673 902 \$5 = lamp indicator decimal (starting at 0);
#X text 671 923 \$6 = brett indicator decimal (starting at 0);
#X msg 196 971 \; \$5-lamp_indicator_decimal \$5;
#X msg 176 1031 \; \$5-brett_indicator_decimal \$6;
#X msg 236 872 \; pd-processingsubpatch obj \$1 \$2 processing_abs
\$3 \$4 \$5 \$6;
#X connect 0 0 22 0;
#X connect 1 0 0 0;
#X connect 2 0 3 0;
#X connect 3 0 23 0;
#X connect 4 0 1 1;
#X connect 5 0 2 1;
#X connect 6 0 24 0;
#X connect 7 0 6 0;
#X connect 8 0 7 1;
#X connect 9 0 30 0;
#X connect 10 0 9 0;
#X connect 11 0 10 1;
#X connect 14 0 39 2;
#X connect 15 0 39 3;
#X connect 21 0 39 4;
#X connect 22 0 2 0;
#X connect 23 0 7 0;
#X connect 24 0 10 0;
#X connect 27 0 39 1;
#X connect 30 0 34 0;
#X connect 32 0 39 0;
#X connect 33 0 32 1;
#X connect 34 0 32 0;
#X connect 34 1 31 0;
#X connect 35 0 1 0;
#X connect 36 0 35 0;
#X connect 38 0 39 5;
#X connect 39 0 42 0;
#X connect 42 0 46 0;
#X connect 42 1 45 0;
#X connect 42 2 37 0;
#X connect 42 3 47 0;
#X restore 548 129 pd processing_patch_generation;
#N canvas 511 201 557 393 controlpanel 0;
#X obj 112 136 tgl 40 1 empty empty enable_sensor_data 0 -10 0 10 -4032
-1 -1 1 1;
#X obj 112 346 s sensor_enable;
#X obj 243 138 hsl 90 40 0 5 0 0 empty lamp_decay_rcv Lamp_Decay_0.2_Sek
-2 -8 0 10 -257985 -1 -1 356 1;
#X floatatom 240 195 5 0 0 0 - - -;
#X obj 240 347 s lamp_decay;
#X obj 240 316 * 1000;
#X text 301 322 s to ms;
#X obj 240 218 t f f;
#X msg 272 271 \; lamp_decay_rcv label \$1;
#X msg 272 245 symbol Lamp_Decay_\$1_Sek;
#X obj 140 10 r generalReset;
#X msg 140 74 1;
#X msg 240 74 0.2;
#X obj 240 47 delay 1000;
#X connect 0 0 1 0;
#X connect 2 0 3 0;
#X connect 3 0 7 0;
#X connect 5 0 4 0;
#X connect 7 0 5 0;
#X connect 7 1 9 0;
#X connect 9 0 8 0;
#X connect 10 0 11 0;
#X connect 10 0 13 0;
#X connect 11 0 0 0;
#X connect 12 0 2 0;
#X connect 13 0 12 0;
#X coords 0 -1 1 1 280 90 1 100 100;
#X restore -103 205 pd controlpanel;
#N canvas 52 249 684 467 processing_abs_alt 0;
#X obj 72 84 r \$1-mouse_trigger;
#X obj 592 97 r \$1-processing_workaround_loadbang;
#X obj 64 180 sel 0, f 48;
#X obj 59 1000 s \$1-dimval;
#X obj 397 220 bang;
#X text 155 996 dimm wert fuer lampe (und gui);
#X floatatom 397 593 5 0 0 0 - - -;
#X text 214 57 0..255 from arduino;
#X text 442 221 convert values to to trigger;
#X obj 397 315 spigot 1;
#X msg 487 285 1;
#X msg 450 285 0;
#X obj 397 341 t b b;
#X obj 96 234 s \$0-openSpigot;
#X obj 487 258 r \$0-openSpigot;
#X text 475 570 turn on lamp slowly when sensor is activated;
#X text 135 1047 brightness in relation to sensor distance;
#X obj 96 386 r \$1-mouse_trigger;
#X obj 78 415 +;
#X text 302 937 convert dimming curve (0..1) to dimval (0..255);
#X text 315 954 mouse trigger always sets to 255;
#X text 221 84 255 oder 0;
#X obj 64 205 t b b;
#X floatatom 60 524 5 0 0 0 - - -;
#X obj 59 837 expr $f2 + $f3;
#X obj 397 751 t b f;
#X obj 92 659 t b f;
#X obj 64 296 t b b;
#X msg 159 322 0;
#X msg 60 659 0;
#X obj 60 560 sel 0, f 10;
#X msg 92 629 0;
#X obj 60 584 t b b;
#X obj 64 57 r \$1-sensor_data;
#X obj 78 361 r \$1-sensor_data;
#X obj 38 246 bng 15 250 50 0 empty empty empty 17 7 0 10 -262144 -1
-1;
#X obj 64 268 delay 1000;
#X obj 82 866 print;
#X text 130 896 cut all values above 255;
#X msg 119 920 255;
#X obj 397 569 line 0;
#X obj 60 500 line 0;
#X msg 60 473 \$1 \, 0 1000;
#X obj 60 447 f 0;
#X obj 475 389 r \$1-mouse_trigger;
#X obj 457 418 +;
#X obj 457 364 r \$1-sensor_data;
#X obj 397 439 f 0;
#X obj 59 893 moses 255;
#X obj 397 642 moses;
#X text 458 646 when gewünschter sensor wert erreicht von line \;
oeffne spigot wieder;
#X obj 429 682 t b f;
#X obj 429 708 s \$0-openSpigot;
#X obj 397 463 t f f;
#X msg 397 495 \$1 500;
#N canvas 0 23 450 300 alt 0;
#X restore 892 356 pd alt;
#X connect 2 0 22 0;
#X connect 2 1 4 0;
#X connect 4 0 9 0;
#X connect 6 0 49 0;
#X connect 9 0 12 0;
#X connect 10 0 9 1;
#X connect 11 0 9 1;
#X connect 12 0 47 0;
#X connect 12 1 11 0;
#X connect 14 0 10 0;
#X connect 17 0 18 1;
#X connect 18 0 43 1;
#X connect 22 0 36 0;
#X connect 22 1 13 0;
#X connect 23 0 30 0;
#X connect 24 0 48 0;
#X connect 25 0 24 0;
#X connect 25 1 24 2;
#X connect 26 0 24 0;
#X connect 26 1 24 1;
#X connect 27 0 28 0;
#X connect 27 1 43 0;
#X connect 28 0 24 2;
#X connect 29 0 24 2;
#X connect 30 0 32 0;
#X connect 30 1 26 0;
#X connect 31 0 26 0;
#X connect 32 0 29 0;
#X connect 32 1 31 0;
#X connect 34 0 18 0;
#X connect 35 0 36 0;
#X connect 36 0 27 0;
#X connect 39 0 3 0;
#X connect 40 0 6 0;
#X connect 41 0 23 0;
#X connect 42 0 41 0;
#X connect 43 0 42 0;
#X connect 44 0 45 1;
#X connect 45 0 47 1;
#X connect 46 0 45 0;
#X connect 47 0 53 0;
#X connect 48 0 3 0;
#X connect 48 1 39 0;
#X connect 49 0 25 0;
#X connect 49 1 51 0;
#X connect 51 0 52 0;
#X connect 51 1 25 0;
#X connect 53 0 54 0;
#X connect 53 1 49 1;
#X connect 54 0 40 0;
#X restore 977 153 pd processing_abs_alt;
#N canvas 371 161 1203 746 midipatch 0;
#X obj 36 42 r 0_0-dimval;
#X obj 1058 460 makenote;
#X obj 1057 290 tgl 15 0 empty empty empty 17 7 0 10 -262144 -1 -1
0 1;
#X obj 1057 310 metro 500;
#X obj 1057 334 t b b b;
#X msg 1137 426 400;
#X text 1122 489 vel;
#X text 1066 486 note;
#X obj 865 446 noteout 15;
#X obj 861 340 hsl 128 15 30 80 0 0 empty empty empty -2 -8 0 10 -262144
-1 -1 0 1;
#X floatatom 883 386 5 0 0 0 - - -;
#X obj 883 409 int;
#X msg 1094 426 60;
#X msg 1057 425 72;
#X obj 36 96 / 2;
#X obj 35 282 / 2;
#X obj 35 248 r 0_1-dimval;
#X obj 737 164 hsl 128 15 0 127 0 0 empty empty empty -2 -8 0 10 -262144
-1 -1 0 1;
#X floatatom 734 184 5 0 0 0 - - -;
#X obj 36 120 ctlout 0 0;
#X obj 35 313 ctlout 1 0;
#X obj 35 472 / 2;
#X obj 35 428 r 0_2-dimval;
#X obj 35 513 ctlout 2 0;
#X obj 35 642 / 2;
#X obj 35 615 r 0_3-dimval;
#X obj 35 673 ctlout 3 0;
#X text 134 120 leuchtturm vol;
#X text 138 313 atmodream 1 vol;
#X connect 0 0 14 0;
#X connect 2 0 3 0;
#X connect 3 0 4 0;
#X connect 4 0 13 0;
#X connect 4 1 12 0;
#X connect 4 2 5 0;
#X connect 5 0 1 2;
#X connect 9 0 10 0;
#X connect 10 0 11 0;
#X connect 11 0 1 0;
#X connect 12 0 1 1;
#X connect 13 0 1 0;
#X connect 14 0 19 0;
#X connect 15 0 20 0;
#X connect 16 0 15 0;
#X connect 17 0 18 0;
#X connect 21 0 23 0;
#X connect 22 0 21 0;
#X connect 24 0 26 0;
#X connect 25 0 24 0;
#X restore 426 212 pd midipatch;
#N canvas 144 89 1136 685 bretter_gui_generation 0;
#X obj 78 -137 inlet GG_trigger;
#X obj 78 15 until;
#X obj 78 -10 f 0;
#X obj 109 112 f 0;
#X obj 109 136 until;
#X obj 96 -34 r rows_gesamt;
#X obj 127 88 r columns_gesamt;
#X obj 137 271 until;
#X obj 137 246 f 0;
#X obj 155 220 r rows_per_brett;
#X obj 176 413 until;
#X obj 176 388 f 0;
#X obj 194 362 r columns_per_brett;
#X text 208 14 FOR EACH ROW GESAMT;
#X text 267 114 FOR EACH COLUMN GESAMT;
#X obj 219 650 r brett_indicator;
#X obj 241 673 r lamp_indicator;
#X text 548 850 \$1 = x;
#X text 615 851 \$3 = brett_indicator;
#X text 615 873 \$4 = lamp_indicator;
#X text 550 871 \$2 = y;
#X obj 263 700 r overall_counter;
#X msg 176 908 \; \$5-workaround_loadbang bang;
#N canvas 0 23 579 736 row_ges_loop 0;
#X obj 113 586 outlet trigger_next_loop;
#X obj 179 156 + 1;
#X obj 113 156 f 0, f 7;
#X msg 130 417 0;
#X text 211 157 counting rows gesamt;
#X text 305 381 current row_ges counter;
#X obj 164 385 s loop_curr_row_ges;
#X obj 130 444 s reset_col_ges_counter;
#X obj 159 127 r reset_row_ges_counter;
#X obj 198 335 s row_start_pos;
#X obj 216 281 r current_y_pos;
#X obj 198 309 f 0;
#X text 233 308 row_start_pos = current_y_pos;
#X obj 113 184 t b b f f f b b;
#X msg 215 217 0;
#X obj 215 242 s current_x_pos;
#X obj 113 70 inlet trigger;
#X connect 1 0 2 1;
#X connect 2 0 13 0;
#X connect 3 0 7 0;
#X connect 8 0 2 1;
#X connect 10 0 11 1;
#X connect 11 0 9 0;
#X connect 13 0 0 0;
#X connect 13 1 3 0;
#X connect 13 2 1 0;
#X connect 13 3 6 0;
#X connect 13 5 11 0;
#X connect 13 6 14 0;
#X connect 14 0 15 0;
#X connect 16 0 2 0;
#X restore 78 42 pd row_ges_loop;
#N canvas 0 23 779 679 column_ges_loop 0;
#X obj 124 -97 inlet trigger;
#X obj 121 704 outlet trigger next_loop;
#X obj 180 -12 + 1;
#X obj 124 -12 f 0, f 6;
#X obj 189 502 pack f f;
#X msg 189 530 symbol \$2_\$1;
#X obj 189 561 s brett_indicator;
#X obj 163 -41 r reset_col_ges_counter;
#X text 222 -10 current column ges counter;
#X obj 242 472 r loop_curr_row_ges;
#X text 321 562 building an indicator for each brett \;;
#X obj 172 603 s loop_curr_col_ges;
#X obj 223 265 s col_start_pos;
#X obj 241 210 r current_x_pos;
#X obj 223 237 f 0;
#X obj 206 402 s current_y_pos;
#X obj 224 353 r row_start_pos;
#X obj 206 378 f 0;
#X msg 138 638 0;
#X obj 138 661 s reset_brett_row_counter;
#X text 264 238 col_start_pos = current_x_pos;
#X text 240 377 current_y_pos = row_start_pos;
#X obj 124 16 t b f f f f b b b;
#X obj 258 53 r reset_overall_counter;
#X obj 240 85 f 0;
#X obj 278 86 + 1;
#X obj 240 109 t f f;
#X obj 240 133 s overall_brett_counter;
#X connect 0 0 3 0;
#X connect 2 0 3 1;
#X connect 3 0 22 0;
#X connect 4 0 5 0;
#X connect 5 0 6 0;
#X connect 7 0 3 1;
#X connect 9 0 4 1;
#X connect 13 0 14 1;
#X connect 14 0 12 0;
#X connect 16 0 17 1;
#X connect 17 0 15 0;
#X connect 18 0 19 0;
#X connect 22 0 1 0;
#X connect 22 1 18 0;
#X connect 22 2 2 0;
#X connect 22 3 11 0;
#X connect 22 4 4 0;
#X connect 22 5 17 0;
#X connect 22 6 14 0;
#X connect 22 7 24 0;
#X connect 23 0 24 1;
#X connect 24 0 26 0;
#X connect 25 0 24 1;
#X connect 26 0 27 0;
#X connect 26 1 25 0;
#X restore 109 166 pd column_ges_loop;
#N canvas 0 23 800 601 row_in_brett_loop 0;
#X obj 124 -45 inlet trigger;
#X obj 124 544 outlet trigger_next_loop;
#X obj 186 97 + 1;
#X obj 124 97 f 0, f 7;
#X msg 141 417 0;
#X obj 170 71 r reset_brett_row_counter;
#X obj 141 440 s reset_brett_column_counter;
#X obj 194 155 s curr_brett_row_counter;
#X text 332 25 FOR EACH ROW IN BRETT;
#X obj 213 204 r current_y_pos;
#X obj 176 284 s current_y_pos;
#X obj 176 256 +;
#X obj 176 230 f 0;
#X obj 213 231 r lamp_y_abstand;
#X text 216 257 current_y_pos += 30;
#X obj 159 378 s current_x_pos;
#X obj 124 121 t b b b b f f;
#X obj 177 326 r col_start_pos;
#X obj 159 355 f 0;
#X text 192 356 current_x_pos = col_start_pos;
#X connect 0 0 3 0;
#X connect 2 0 3 1;
#X connect 3 0 16 0;
#X connect 4 0 6 0;
#X connect 5 0 3 1;
#X connect 9 0 12 1;
#X connect 11 0 10 0;
#X connect 12 0 11 0;
#X connect 13 0 11 1;
#X connect 16 0 1 0;
#X connect 16 1 4 0;
#X connect 16 2 18 0;
#X connect 16 3 12 0;
#X connect 16 4 7 0;
#X connect 16 5 2 0;
#X connect 17 0 18 1;
#X connect 18 0 15 0;
#X restore 137 301 pd row_in_brett_loop;
#X text 318 407 FOR EACH COLUMN IN BRETT;
#X text 321 309 FOR EACH ROW IN BRETT;
#X obj 197 625 r current_y_pos;
#X text 315 628 row position of current lamp;
#X text 348 535 column position of current lamp;
#N canvas 0 23 450 500 column_in_brett_loop 0;
#X obj 89 -1 inlet trigger;
#X obj 89 644 outlet current_x_pos_for_lamp;
#X obj 155 106 + 1;
#X obj 89 106 f 0, f 7;
#X obj 135 80 r reset_brett_column_counter;
#X obj 107 347 pack f f;
#X msg 107 375 symbol \$2_\$1;
#X obj 126 276 s curr_brett_column_counter;
#X obj 160 320 r curr_brett_row_counter;
#X obj 107 406 s lamp_indicator;
#X text 238 408 indicator (e.g. 2_4) for each single lamp;
#X obj 163 193 f 0;
#X obj 204 191 + 1;
#X obj 181 155 r reset_overall_counter;
#X obj 163 249 s overall_counter;
#X obj 163 217 t f f;
#X text 300 248 count each lamp;
#X obj 121 468 r current_x_pos;
#X obj 89 491 f 0;
#X obj 121 501 r lamp_x_abstand;
#X obj 89 522 +;
#X text 127 527 current_x_pos += 30;
#X obj 89 130 t b f f f b;
#X connect 0 0 3 0;
#X connect 2 0 3 1;
#X connect 3 0 22 0;
#X connect 4 0 3 1;
#X connect 5 0 6 0;
#X connect 6 0 9 0;
#X connect 8 0 5 1;
#X connect 11 0 15 0;
#X connect 12 0 11 1;
#X connect 13 0 11 1;
#X connect 15 0 14 0;
#X connect 15 1 12 0;
#X connect 17 0 18 1;
#X connect 18 0 20 0;
#X connect 19 0 20 1;
#X connect 20 0 1 0;
#X connect 22 0 18 0;
#X connect 22 1 5 0;
#X connect 22 2 7 0;
#X connect 22 3 2 0;
#X connect 22 4 11 0;
#X restore 176 446 pd column_in_brett_loop;
#X obj 176 802 t a a a;
#X obj 222 832 print;
#X obj 208 497 s current_x_pos;
#X obj 176 590 f 0;
#X obj 194 564 r current_x_pos;
#X obj 176 470 t b f;
#N canvas 0 23 738 662 init_variables 0;
#X obj 70 -539 inlet trigger;
#X obj 82 66 outlet trigger;
#X msg 98 -42 0;
#X obj 98 -19 s reset_row_ges_counter;
#X msg 114 -90 0;
#X obj 114 -66 s reset_overall_counter;
#X msg 147 -208 0;
#X obj 147 -178 s current_x_pos;
#X obj 130 -119 s current_y_pos;
#X msg 179 -335 0;
#X msg 163 -276 0;
#X obj 179 -305 s row_start_pos;
#X obj 163 -246 s col_start_pos;
#X obj 212 -438 s lamp_x_abstand;
#X obj 195 -380 s lamp_y_abstand;
#X msg 212 -467 30;
#X msg 195 -409 30;
#X obj 82 -505 t b b b b b b b b b;
#X msg 130 -149 15;
#X connect 0 0 17 0;
#X connect 2 0 3 0;
#X connect 4 0 5 0;
#X connect 6 0 7 0;
#X connect 9 0 11 0;
#X connect 10 0 12 0;
#X connect 15 0 13 0;
#X connect 16 0 14 0;
#X connect 17 0 1 0;
#X connect 17 1 2 0;
#X connect 17 2 4 0;
#X connect 17 3 18 0;
#X connect 17 4 6 0;
#X connect 17 5 10 0;
#X connect 17 6 9 0;
#X connect 17 7 16 0;
#X connect 17 8 15 0;
#X connect 18 0 8 0;
#X restore 78 -87 pd init_variables;
#X obj 285 737 r overall_brett_counter;
#X msg 199 862 \; pd-guisubpatch obj \$1 \$2 gui_abs \$3 \$4 \$5 \$6
;
#X text 554 916 \$6 = total decimal number of brett (starting at 0)
;
#X text 552 894 \$5 = total deciaml number of lamps (starting at 0)
;
#X obj 176 778 pack f f s s f f;
#X text 317 779 x-pos y-pos brett-indicator lamp-indicator lamp-total
;
#X text 708 779 brett-total;
#X connect 0 0 38 0;
#X connect 1 0 23 0;
#X connect 2 0 1 0;
#X connect 3 0 4 0;
#X connect 4 0 24 0;
#X connect 5 0 2 1;
#X connect 6 0 3 1;
#X connect 7 0 25 0;
#X connect 8 0 7 0;
#X connect 9 0 8 1;
#X connect 10 0 31 0;
#X connect 11 0 10 0;
#X connect 12 0 11 1;
#X connect 15 0 43 2;
#X connect 16 0 43 3;
#X connect 21 0 43 4;
#X connect 23 0 3 0;
#X connect 24 0 8 0;
#X connect 25 0 11 0;
#X connect 28 0 43 1;
#X connect 31 0 37 0;
#X connect 32 0 22 0;
#X connect 32 1 40 0;
#X connect 35 0 43 0;
#X connect 36 0 35 1;
#X connect 37 0 35 0;
#X connect 37 1 34 0;
#X connect 38 0 2 0;
#X connect 39 0 43 5;
#X connect 43 0 32 0;
#X restore 350 127 pd bretter_gui_generation;
#X text 39 280 lamp decay funktioniert nicht \, wenn es hoch ist;
#X text 951 43 Librarys: else comport ggee(raspi only);
#N canvas 900 134 986 706 comport_interface 1;
#X obj 218 378 print rechts comport;
#X obj 109 337 comport 8 115200;
#X obj 310 436 print;
#X msg 204 295 open 0;
#X obj 204 250 r raspiOrNot;
#X msg 190 214 pollintervall 0.01;
#X text 269 295 raspi;
#X obj 190 181 r generalReset;
#X obj 204 274 bng 15 250 50 0 empty empty empty 17 7 0 10 -262144
-1 -1;
#X obj 70 233 print;
#X msg 338 295 close 0;
#X obj 85 115 r serial_output;
#X msg 85 140 print \$1;
#X obj 289 47 metro 50;
#X obj 289 6 tgl 15 0 empty empty empty 17 7 0 10 -262144 -1 -1 0 1
;
#X obj 289 72 t b b;
#X msg 260 108 print B1L1V30@;
#X msg 397 118 print B1L2V200@;
#X obj 133 383 print;
#N canvas 328 159 1280 872 serial_input_processing2 0;
#N canvas 26 160 680 510 index_to_rows_and_columns 0;
#X obj 60 216 t f b;
#X text 197 327 arrayindex to spalte = index/numberOfZeilen \; arrayindex
to zeile = index%number of Zeilen;
#X obj 60 379 pack f f;
#X obj 60 325 expr int($f1/$f2) \; $f1%$f2;
#X text 148 382 spalte zeile;
#X obj 60 35 inlet arrayIndex;
#X obj 183 264 f;
#X text 238 48 convert decimal matrix indices to row-and-column-indices
;
#X obj 60 431 outlet spalteUndZeile;
#X text 221 255 number of Zeilen gesamt (Bretter);
#X obj 201 226 r rows_per_brett;
#X connect 0 0 3 0;
#X connect 0 1 6 0;
#X connect 2 0 8 0;
#X connect 3 0 2 0;
#X connect 3 1 2 1;
#X connect 5 0 0 0;
#X connect 6 0 3 1;
#X connect 10 0 6 1;
#X restore 697 579 pd index_to_rows_and_columns;
#X obj 99 249 route 0, f 24;
#X text 309 290 0 indicates start of byte stream;
#X obj 280 453 f 0;
#X obj 314 453 + 1;
#X obj 115 360 s \$0-resetByteCounter;
#X obj 298 427 r \$0-resetByteCounter;
#X msg 115 336 0;
#X text 347 452 count up the bytes that come in from arduino;
#X obj 285 1062 s;
#X text 303 269 checking byte stream from arduino;
#X obj 280 498 route 0, f 60;
#X obj 697 548 - 1;
#X text 326 1032 send sensor value to its corresponding processing
subpatch;
#X obj 280 600 f 0;
#X obj 280 343 t b f;
#X obj 312 372 s byteStream_sensor_value;
#X obj 298 535 r byteStream_sensor_value;
#N canvas 0 23 680 510 index_to_rows_and_columns 0;
#X obj 60 216 t f b;
#X text 197 327 arrayindex to spalte = index/numberOfZeilen \; arrayindex
to zeile = index%number of Zeilen;
#X obj 60 379 pack f f;
#X obj 60 325 expr int($f1/$f2) \; $f1%$f2;
#X text 148 382 spalte zeile;
#X obj 60 35 inlet arrayIndex;
#X obj 183 264 f;
#X text 238 48 convert decimal matrix indices to row-and-column-indices
;
#X obj 60 431 outlet spalteUndZeile;
#X obj 201 237 r rows_gesamt;
#X text 304 237 number of Zeilen gesamt (Bretter);
#X connect 0 0 3 0;
#X connect 0 1 6 0;
#X connect 2 0 8 0;
#X connect 3 0 2 0;
#X connect 3 1 2 1;
#X connect 5 0 0 0;
#X connect 6 0 3 1;
#X connect 9 0 6 1;
#X restore 280 625 pd index_to_rows_and_columns;
#X text 288 479 route for brett indicator;
#X msg 280 653 symbol \$1_\$2;
#X obj 280 677 s brett_id;
#X obj 282 796 pack s s;
#X obj 335 762 r brett_id;
#X msg 697 612 symbol \$1_\$2;
#X obj 697 665 s lamp_id;
#X obj 282 733 r lamp_id;
#X text 302 321 TODO: HIER DARF NUR WAS DURCH \; WENN DIE NULL VORHER
DA WAR;
#X obj 298 559 - 1;
#X text 327 561 TODO: Sicherheit einbauen?;
#X text 748 550 TODO: Sicherheit einbauen?;
#X obj 282 855 t b a;
#X text 504 888 build unique send name according to bytestream-identifiers
\; e.g. 0_0-1_3-sensor-data;
#X obj 300 942 r byteStream_sensor_value;
#X obj 282 972 f 0;
#X obj 330 1002 print;
#X msg 314 885 symbol \$2-\$1-sensor_data;
#X obj 115 130 inlet serial_input_data;
#X obj 460 992 print;
#X obj 201 1009 print;
#X obj 102 956 print;
#X obj 408 991 print;
#X obj 565 984 print send_name;
#X obj 115 155 t f f;
#X obj 154 194 print input;
#X obj 314 910 t a a;
#X obj 282 997 t f f;
#X obj 340 1059 print value;
#X connect 0 0 24 0;
#X connect 1 0 7 0;
#X connect 1 1 15 0;
#X connect 3 0 4 0;
#X connect 3 0 11 0;
#X connect 4 0 3 1;
#X connect 6 0 3 1;
#X connect 7 0 5 0;
#X connect 11 0 14 0;
#X connect 11 1 12 0;
#X connect 12 0 0 0;
#X connect 14 0 18 0;
#X connect 15 0 3 0;
#X connect 15 1 16 0;
#X connect 17 0 28 0;
#X connect 18 0 20 0;
#X connect 20 0 21 0;
#X connect 22 0 31 0;
#X connect 23 0 22 1;
#X connect 24 0 25 0;
#X connect 26 0 22 0;
#X connect 28 0 14 1;
#X connect 31 0 34 0;
#X connect 31 1 36 0;
#X connect 33 0 34 1;
#X connect 34 0 46 0;
#X connect 36 0 45 0;
#X connect 37 0 43 0;
#X connect 43 0 1 0;
#X connect 43 1 44 0;
#X connect 45 0 9 1;
#X connect 45 1 42 0;
#X connect 46 0 9 0;
#X connect 46 1 47 0;
#X restore 109 420 pd serial_input_processing2;
#X connect 1 0 19 0;
#X connect 1 1 0 0;
#X connect 3 0 1 0;
#X connect 4 0 8 0;
#X connect 5 0 1 0;
#X connect 7 0 5 0;
#X connect 8 0 3 0;
#X connect 10 0 1 0;
#X connect 11 0 12 0;
#X connect 12 0 1 0;
#X connect 13 0 15 0;
#X connect 14 0 13 0;
#X connect 15 0 16 0;
#X connect 15 1 17 0;
#X restore 548 100 pd comport_interface;
#N canvas 0 96 1920 984 audiosprefs 0;
#X obj 88 242 audiosettings;
#X obj 88 84 loadbang;
#X obj 88 107 delay 400;
#X obj 323 222 declare -path /home/pi/Documents/Pd/externals/mediasettings/
;
#X msg 222 183 driver ALSA;
#X text 306 184 set driver to "ALSA" (if possible);
#X obj 88 130 t b b;
#X msg 88 181 params @output 2 2;
#X connect 1 0 2 0;
#X connect 2 0 6 0;
#X connect 4 0 0 0;
#X connect 6 0 7 0;
#X connect 6 1 4 0;
#X connect 7 0 0 0;
#X restore 548 74 pd audiosprefs;
#X obj 615 208 r AUDIO_INFO;
#X obj 31 694 r 0_0-0_0-dimval;
#X obj 818 1241 dac~ 1 2;
#X text 1254 35 anforderungen an container mehr bereich fuer basstoeone
;
#X obj 980 187 mode_decider;
#X obj 159 691 r 0_0-0_1-dimval;
#X msg 1794 285 120;
#X obj 1794 310 expr 60000/$f1;
#X floatatom 1794 335 5 0 0 0 - - -;
#X obj 1895 474 tgl 15 0 empty empty empty 17 7 0 10 -262144 -1 -1
1 1;
#X obj 1895 525 bng 15 250 50 0 empty empty empty 17 7 0 10 -262144
-1 -1;
#X obj 1895 389 * 4;
#X floatatom 1895 414 5 0 0 0 - - -;
#X obj 1826 385 * 2;
#X floatatom 1826 410 5 0 0 0 - - -;
#X obj 1741 387 / 2;
#X obj 1779 387 * 1;
#X obj 1701 386 / 4;
#X floatatom 1779 412 5 0 0 0 - - -;
#X floatatom 1741 412 5 0 0 0 - - -;
#X floatatom 1701 411 5 0 0 0 - - -;
#X obj 1895 498 metro;
#X obj 1895 449 t b f f;
#X obj 1895 549 f 0;
#X obj 1895 589 s \$0-tempganz;
#X obj 1834 501 tgl 15 0 empty empty empty 17 7 0 10 -262144 -1 -1
1 1;
#X obj 1834 552 bng 15 250 50 0 empty empty empty 17 7 0 10 -262144
-1 -1;
#X obj 1834 525 metro;
#X obj 1834 476 t b f f;
#X obj 1834 576 f 0;
#X obj 1834 616 s \$0-temphalb;
#X obj 1774 526 tgl 15 0 empty empty empty 17 7 0 10 -262144 -1 -1
1 1;
#X obj 1774 577 bng 15 250 50 0 empty empty empty 17 7 0 10 -262144
-1 -1;
#X obj 1774 550 metro;
#X obj 1774 501 t b f f;
#X obj 1774 601 f 0;
#X obj 1774 642 s \$0-tempviertel;
#X obj 1718 551 tgl 15 0 empty empty empty 17 7 0 10 -262144 -1 -1
1 1;
#X obj 1718 602 bng 15 250 50 0 empty empty empty 17 7 0 10 -262144
-1 -1;
#X obj 1718 575 metro;
#X obj 1718 526 t b f f;
#X obj 1718 626 f 0;
#X obj 1718 666 s \$0-tempachtel;
#X obj 1634 533 tgl 15 0 empty empty empty 17 7 0 10 -262144 -1 -1
1 1;
#X obj 1634 584 bng 15 250 50 0 empty empty empty 17 7 0 10 -262144
-1 -1;
#X obj 1658 599 metro;
#X obj 1658 550 t b f f;
#X obj 1658 650 f 0;
#X obj 1658 690 s \$0-temp16tel;
#X obj 1789 247 loadbang;
#X obj 158 760 sensor_instr_bang;
#X obj -31 760 sensor_instr_bang;
#X floatatom 31 719 5 0 0 0 - - -;
#X floatatom 159 716 5 0 0 0 - - -;
#X floatatom 315 711 5 0 0 0 - - -;
#X text 41 627 sensor 1;
#X text 163 633 sensor2;
#X text 310 634 sensor3;
#X text 458 637 sensor 4;
#X text 580 643 sensor5;
#X text 727 644 sensor6;
#X obj 15 803 r 0_0-0_0-sensor_data;
#X obj 16 863 print;
#X obj 315 686 r 0_0-1_0-dimval;
#X connect 0 0 5 0;
#X connect 1 0 19 0;
#X connect 2 0 5 0;
#X connect 3 0 4 0;
#X connect 7 0 8 0;
#X connect 12 0 9 0;
#X connect 25 0 75 0;
#X connect 25 0 76 0;
#X connect 29 0 74 0;
#X connect 29 0 77 0;
#X connect 30 0 31 0;
#X connect 31 0 32 0;
#X connect 32 0 35 0;
#X connect 32 0 37 0;
#X connect 32 0 39 0;
#X connect 32 0 40 0;
#X connect 32 0 41 0;
#X connect 33 0 45 0;
#X connect 34 0 47 0;
#X connect 35 0 36 0;
#X connect 36 0 46 0;
#X connect 37 0 38 0;
#X connect 38 0 52 0;
#X connect 39 0 43 0;
#X connect 40 0 42 0;
#X connect 41 0 44 0;
#X connect 42 0 58 0;
#X connect 43 0 64 0;
#X connect 44 0 70 0;
#X connect 45 0 34 0;
#X connect 46 0 33 0;
#X connect 46 1 45 1;
#X connect 46 2 47 1;
#X connect 47 0 48 0;
#X connect 49 0 51 0;
#X connect 50 0 53 0;
#X connect 51 0 50 0;
#X connect 52 0 49 0;
#X connect 52 1 51 1;
#X connect 52 2 53 1;
#X connect 53 0 54 0;
#X connect 55 0 57 0;
#X connect 56 0 59 0;
#X connect 57 0 56 0;
#X connect 58 0 55 0;
#X connect 58 1 57 1;
#X connect 58 2 59 1;
#X connect 59 0 60 0;
#X connect 61 0 63 0;
#X connect 62 0 65 0;
#X connect 63 0 62 0;
#X connect 64 0 61 0;
#X connect 64 1 63 1;
#X connect 64 2 65 1;
#X connect 65 0 66 0;
#X connect 67 0 69 0;
#X connect 68 0 71 0;
#X connect 69 0 68 0;
#X connect 70 0 67 0;
#X connect 70 1 69 1;
#X connect 70 2 71 1;
#X connect 71 0 72 0;
#X connect 73 0 30 0;
#X connect 87 0 78 0;
