#N canvas -21 169 815 1013 10;
#X floatatom 93 16 5 0 0 0 - - -;
#X obj 16 72 t f f b;
#X obj 16 100 mtof;
#X obj 17 326 *~;
#X obj 57 134 vline~;
#X obj 16 156 *~;
#X floatatom 35 266 5 0 0 0 - - -;
#X text 209 152 cc from ev-xs knob 1;
#X text 218 178 880 / 127;
#X obj 17 436 *~;
#X obj 213 228 hsl 128 15 0 1 0 0 empty empty volume -2 -8 0 10 -262144
-1 -1 10160 1;
#X text 141 22 amplitude modulation synth;
#X obj 422 16 loadbang;
#X msg 422 44 \; pd dsp 1;
#X text 219 53 adsr envelope;
#X text 219 107 attack: ramp up to x in y ms;
#X text 221 133 release: ramp down to 0 in x m after y ms hold;
#X text 221 120 decay + sustain: ramp down to x in y ms after z ms
hold;
#X obj 16 16 inlet;
#X obj 16 44 / 2;
#X msg 57 109 1 250 \, 0.7 1000 2000 \, 0 200 200;
#X obj 35 240 mtof;
#X obj 17 490 outlet~;
#X obj 363 172 loadbang;
#X msg 363 195 0.8;
#X obj 16 128 osc~;
#X obj 35 291 osc~;
#X msg 164 69 1 100 \, 0.7 200 2000 \, 0 2000 1000;
#X connect 0 0 19 0;
#X connect 1 0 2 0;
#X connect 1 1 21 0;
#X connect 1 2 27 0;
#X connect 1 2 20 0;
#X connect 2 0 25 0;
#X connect 3 0 9 0;
#X connect 4 0 5 1;
#X connect 5 0 3 0;
#X connect 6 0 26 0;
#X connect 9 0 22 0;
#X connect 10 0 9 1;
#X connect 12 0 13 0;
#X connect 18 0 19 0;
#X connect 19 0 1 0;
#X connect 20 0 4 0;
#X connect 21 0 6 0;
#X connect 23 0 24 0;
#X connect 24 0 10 0;
#X connect 25 0 5 0;
#X connect 26 0 3 1;
#X coords 0 -1 1 1 150 60 1 200 200;
