#N canvas 0 23 1280 751 12;
#N canvas 0 23 1280 751 data_stream_simulator 0;
#X obj 94 63 tgl 15 0 empty empty empty 17 7 0 10 -262144 -1 -1 0 1
;
#X floatatom 94 83 5 0 0 0 - - -;
#X obj 94 105 metro 150;
#X obj 94 128 bng 15 250 50 0 empty empty empty 17 7 0 10 -262144 -1
-1;
#X floatatom 94 201 5 0 0 0 - - -;
#X obj 94 171 + 1;
#X obj 94 148 random 10;
#X floatatom 94 246 5 0 0 0 - - -;
#X floatatom 224 246 5 0 0 0 - - -;
#X obj 94 289 random 30;
#X obj 94 312 + 1;
#X floatatom 94 358 5 0 0 0 - - -;
#X obj 94 268 bng 15 250 50 0 empty empty empty 17 7 0 10 -262144 -1
-1;
#X msg 224 269 1;
#X floatatom 224 358 5 0 0 0 - - -;
#X obj 94 400 outlet datastream;
#X obj 94 21 inlet start_stop;
#X obj 94 223 moses 9, f 19;
#X obj 94 335 + 100;
#X connect 0 0 1 0;
#X connect 1 0 2 0;
#X connect 2 0 3 0;
#X connect 3 0 6 0;
#X connect 4 0 17 0;
#X connect 5 0 4 0;
#X connect 6 0 5 0;
#X connect 7 0 12 0;
#X connect 8 0 13 0;
#X connect 9 0 10 0;
#X connect 10 0 18 0;
#X connect 11 0 15 0;
#X connect 12 0 9 0;
#X connect 13 0 14 0;
#X connect 14 0 15 0;
#X connect 16 0 0 0;
#X connect 17 0 7 0;
#X connect 17 1 8 0;
#X connect 18 0 11 0;
#X restore 32 31 pd data_stream_simulator;
#X obj 32 6 tgl 15 0 empty empty empty 17 7 0 10 -262144 -1 -1 0 1
;
#X floatatom 32 54 5 0 0 0 - - -;
#X msg 81 54 1;
#X obj 292 100;
#X obj 32 176 t f f;
#X obj 64 209 print in;
#X obj 32 259 print out;
#X msg 61 113 1;
#X msg 116 146 40;
#X msg 107 118 7;
#X obj 32 236 data_smoothing2;
#X connect 0 0 2 0;
#X connect 1 0 0 0;
#X connect 2 0 5 0;
#X connect 5 0 11 0;
#X connect 8 0 5 0;
#X connect 9 0 5 0;
#X connect 10 0 5 0;
#X connect 11 0 7 0;
