#N canvas -11 174 1920 984 10;
#X declare -path /home/pi/Documents/Pd/externals/mediasettings/;
#X obj 75 319 sine_synth;
#X obj 75 402 dac~;
#X obj 253 318 sine_synth;
#X msg 131 289 64;
#X obj 75 210 metro 400;
#X obj 75 233 tgl 15 0 empty empty empty 17 7 0 10 -262144 -1 -1 1
1;
#X obj 75 253 route 1;
#X obj 77 184 tgl 15 0 empty empty empty 17 7 0 10 -262144 -1 -1 0
1;
#X obj 240 233 tgl 15 0 empty empty empty 17 7 0 10 -262144 -1 -1 0
1;
#X obj 240 253 route 1;
#X obj 240 210 metro 600;
#X msg 240 287 68;
#X msg 296 289 74;
#X obj 315 31 loadbang;
#X msg 315 101 \; pd dsp 1;
#X msg 76 139 1;
#X msg 75 287 60;
#X text 390 77 prevent device/resoure busy;
#X obj 633 252 audiosettings;
#X obj 633 94 loadbang;
#X obj 74 47 loadbang;
#X obj 633 117 delay 400;
#X obj 315 71 delay 800;
#X obj 74 70 delay 1500;
#X obj 868 232 declare -path /home/pi/Documents/Pd/externals/mediasettings/
;
#X msg 767 193 driver ALSA;
#X text 851 194 set driver to "ALSA" (if possible);
#X obj 633 140 t b b;
#X msg 633 191 params @output 2 2;
#X text 424 314 BASS NICE 58 - 80;
#X connect 0 0 1 0;
#X connect 2 0 1 1;
#X connect 3 0 0 0;
#X connect 3 0 2 0;
#X connect 4 0 5 0;
#X connect 5 0 6 0;
#X connect 6 0 16 0;
#X connect 6 1 3 0;
#X connect 7 0 4 0;
#X connect 7 0 10 0;
#X connect 8 0 9 0;
#X connect 9 0 11 0;
#X connect 9 1 12 0;
#X connect 10 0 8 0;
#X connect 11 0 0 0;
#X connect 12 0 2 0;
#X connect 13 0 22 0;
#X connect 15 0 7 0;
#X connect 16 0 0 0;
#X connect 16 0 2 0;
#X connect 19 0 21 0;
#X connect 20 0 23 0;
#X connect 21 0 27 0;
#X connect 22 0 14 0;
#X connect 23 0 15 0;
#X connect 25 0 18 0;
#X connect 27 0 28 0;
#X connect 27 1 25 0;
#X connect 28 0 18 0;
