#N canvas 832 122 1280 671 12;
#X obj 152 221 hsl 128 15 0 1 0 0 empty empty empty -2 -8 0 10 -262144
-1 -1 10160 1;
#X obj 149 356 s \$0-vol;
#X floatatom 149 241 5 0 0 0 - - -;
#X floatatom 410 201 5 0 0 0 - - -;
#X obj 410 178 random 3;
#X text 329 113 midi note;
#X obj 319 477 reverbCH~;
#X obj 320 370 pip_nes;
#X obj 320 435 *~;
#X obj 373 439 *~;
#X obj 391 416 r \$0-vol;
#X obj 339 396 r \$0-vol;
#X msg 323 260 \$2 \$1;
#X obj 323 288 route 0 1 2;
#X floatatom 322 323 5 0 0 0 - - -;
#X floatatom 363 322 5 0 0 0 - - -;
#X floatatom 406 324 5 0 0 0 - - -;
#X obj 323 147 t f b, f 11;
#X obj 323 228 pack f f;
#X text 192 241 volume;
#X text 152 185 variable_bip_instr;
#X obj 323 44 inlet midinotes;
#X obj 131 40 loadbang;
#X msg 131 144 0.8;
#X obj 319 574 outlet~ L;
#X obj 391 575 outlet~ R;
#X connect 0 0 2 0;
#X connect 2 0 1 0;
#X connect 3 0 18 1;
#X connect 4 0 3 0;
#X connect 6 0 24 0;
#X connect 6 1 25 0;
#X connect 7 0 8 0;
#X connect 7 1 9 0;
#X connect 8 0 6 0;
#X connect 9 0 6 1;
#X connect 10 0 9 1;
#X connect 11 0 8 1;
#X connect 12 0 13 0;
#X connect 13 0 14 0;
#X connect 13 1 15 0;
#X connect 13 2 16 0;
#X connect 14 0 7 0;
#X connect 15 0 7 1;
#X connect 16 0 7 2;
#X connect 17 0 18 0;
#X connect 17 1 4 0;
#X connect 18 0 12 0;
#X connect 21 0 17 0;
#X connect 22 0 23 0;
#X connect 23 0 0 0;
#X coords 0 671 1 670 200 200 0;
